<?xml version="1.0" encoding="UTF-8"?><svg xmlns="http://www.w3.org/2000/svg" xmlns:xlink="http://www.w3.org/1999/xlink" viewBox="0 0 610 610"><defs><style>.cls-1{stroke-width:5px;}.cls-1,.cls-2,.cls-3,.cls-4,.cls-5,.cls-6,.cls-7,.cls-8,.cls-9,.cls-10,.cls-11,.cls-12,.cls-13,.cls-14,.cls-15{stroke-miterlimit:10;}.cls-1,.cls-2,.cls-3,.cls-4,.cls-5,.cls-6,.cls-7,.cls-8,.cls-9,.cls-10,.cls-13,.cls-14,.cls-15{stroke:#000;}.cls-1,.cls-12{fill:#231f20;}.cls-2{filter:url(#drop-shadow-6);}.cls-2,.cls-3,.cls-4,.cls-5,.cls-6,.cls-7,.cls-8,.cls-9,.cls-10,.cls-16,.cls-11,.cls-13,.cls-14,.cls-15{fill:ivory;}.cls-2,.cls-3,.cls-4,.cls-5,.cls-6,.cls-7,.cls-8,.cls-9,.cls-10,.cls-11,.cls-12,.cls-13,.cls-14,.cls-15{stroke-width:2px;}.cls-3{filter:url(#drop-shadow-1);}.cls-4{filter:url(#drop-shadow-4);}.cls-5{filter:url(#drop-shadow-7);}.cls-6{filter:url(#drop-shadow-2);}.cls-7{filter:url(#drop-shadow-3);}.cls-8{filter:url(#drop-shadow-5);}.cls-9{filter:url(#drop-shadow-9);}.cls-10{filter:url(#drop-shadow-8);}.cls-11,.cls-12{stroke:ivory;}.cls-13{filter:url(#drop-shadow-12);}.cls-14{filter:url(#drop-shadow-11);}.cls-15{filter:url(#drop-shadow-10);}</style><filter id="drop-shadow-1" filterUnits="userSpaceOnUse"><feOffset dx="0" dy="0"/><feGaussianBlur result="blur" stdDeviation="12"/><feFlood flood-color="ivory" flood-opacity=".8"/><feComposite in2="blur" operator="in"/><feComposite in="SourceGraphic"/></filter><filter id="drop-shadow-2" filterUnits="userSpaceOnUse"><feOffset dx="0" dy="0"/><feGaussianBlur result="blur-2" stdDeviation="12"/><feFlood flood-color="ivory" flood-opacity=".8"/><feComposite in2="blur-2" operator="in"/><feComposite in="SourceGraphic"/></filter><filter id="drop-shadow-3" filterUnits="userSpaceOnUse"><feOffset dx="0" dy="0"/><feGaussianBlur result="blur-3" stdDeviation="12"/><feFlood flood-color="ivory" flood-opacity=".8"/><feComposite in2="blur-3" operator="in"/><feComposite in="SourceGraphic"/></filter><filter id="drop-shadow-4" filterUnits="userSpaceOnUse"><feOffset dx="0" dy="0"/><feGaussianBlur result="blur-4" stdDeviation="12"/><feFlood flood-color="ivory" flood-opacity=".8"/><feComposite in2="blur-4" operator="in"/><feComposite in="SourceGraphic"/></filter><filter id="drop-shadow-5" filterUnits="userSpaceOnUse"><feOffset dx="0" dy="0"/><feGaussianBlur result="blur-5" stdDeviation="12"/><feFlood flood-color="ivory" flood-opacity=".8"/><feComposite in2="blur-5" operator="in"/><feComposite in="SourceGraphic"/></filter><filter id="drop-shadow-6" filterUnits="userSpaceOnUse"><feOffset dx="0" dy="0"/><feGaussianBlur result="blur-6" stdDeviation="12"/><feFlood flood-color="ivory" flood-opacity=".8"/><feComposite in2="blur-6" operator="in"/><feComposite in="SourceGraphic"/></filter><filter id="drop-shadow-7" filterUnits="userSpaceOnUse"><feOffset dx="0" dy="0"/><feGaussianBlur result="blur-7" stdDeviation="12"/><feFlood flood-color="ivory" flood-opacity=".8"/><feComposite in2="blur-7" operator="in"/><feComposite in="SourceGraphic"/></filter><filter id="drop-shadow-8" filterUnits="userSpaceOnUse"><feOffset dx="0" dy="0"/><feGaussianBlur result="blur-8" stdDeviation="12"/><feFlood flood-color="ivory" flood-opacity=".8"/><feComposite in2="blur-8" operator="in"/><feComposite in="SourceGraphic"/></filter><filter id="drop-shadow-9" filterUnits="userSpaceOnUse"><feOffset dx="0" dy="0"/><feGaussianBlur result="blur-9" stdDeviation="12"/><feFlood flood-color="ivory" flood-opacity=".8"/><feComposite in2="blur-9" operator="in"/><feComposite in="SourceGraphic"/></filter><filter id="drop-shadow-10" filterUnits="userSpaceOnUse"><feOffset dx="0" dy="0"/><feGaussianBlur result="blur-10" stdDeviation="12"/><feFlood flood-color="ivory" flood-opacity=".8"/><feComposite in2="blur-10" operator="in"/><feComposite in="SourceGraphic"/></filter><filter id="drop-shadow-11" filterUnits="userSpaceOnUse"><feOffset dx="0" dy="0"/><feGaussianBlur result="blur-11" stdDeviation="12"/><feFlood flood-color="ivory" flood-opacity=".8"/><feComposite in2="blur-11" operator="in"/><feComposite in="SourceGraphic"/></filter><filter id="drop-shadow-12" filterUnits="userSpaceOnUse"><feOffset dx="0" dy="0"/><feGaussianBlur result="blur-12" stdDeviation="12"/><feFlood flood-color="ivory" flood-opacity=".8"/><feComposite in2="blur-12" operator="in"/><feComposite in="SourceGraphic"/></filter></defs><g id="large_circle"><circle class="cls-1" cx="305" cy="305" r="300"/></g><g id="left_text"><g><path class="cls-16" d="M34.1,371.9l5.8,20.2-2,.6-5.8-20.2,2-.6Zm9.1-2.6l5.8,20.2-2,.6-5.8-20.2,2-.6Zm9.1-2.6l5.8,20.2-2,.6-5.8-20.2,2-.6Z"/><path class="cls-16" d="M26.4,344.1l1.3-.2,10.6,7.3,7.5-10.6,1.3-.2,.2,1.6-7.3,10.4,10.6,7.4,.2,1.3-1.6,.3-10.5-7.2-7.3,10.4-1.3,.2-.3-1.7,7.2-10.1-10.3-7.1-.3-1.7Z"/><path class="cls-16" d="M26.6,324.8h-2.1c0-2.2,.2-4.4,.8-6.6,.6-2.2,1.6-4.1,2.8-5.9,1.2-1.8,2.7-3.3,4.4-4.7,1.7-1.4,3.6-2.4,5.7-3.2s4.3-1.2,6.6-1.3v2.1c-4.6,.4-8.6,2.2-12,5.5l12.7,11.9v1.5h-1.4l-12.7-11.8c-3,3.6-4.6,7.8-4.7,12.5Z"/><path class="cls-16" d="M25.9,296.1h-2.1v-2.2h.1l1.2-16.8v-2.1h2.2l18.9,1.4v2.1l-19.1-1.3-1.2,16.8,18.9,1.3v2.1l-19.1-1.3Z"/><path class="cls-16" d="M41.6,248.4l5.8,20.2-.4,2.1-20.7-3.6,.4-2h0l12.2-17.1h.4l1.9,.4h.4Zm1.3,12l-9.2-1.6-4.7,6.6,16.1,2.8-2.2-7.8Zm-.7-2.3l-2.3-8-4.8,6.7,7.1,1.2Z"/><path class="cls-16" d="M39.4,219l-2.6,9.1,16.2,4.6,2.6-9.1,2,.6-2.6,9.1-.6,2-2.6,9.1-2-.6,2.6-9.1-16.2-4.6-2.6,9.1-2-.6,2.6-9.1,.6-2,2.6-9.1,2,.6Z"/><path class="cls-16" d="M50.8,215.3h0l-1-.4h-.2l-.8-.4h0l-.8-23h0l2.1,.8,.6,17.6,6-14.9,1.9,.8-6,14.9,12.6-12.3,2.1,.8h0l-16.4,16.1Z"/><path class="cls-16" d="M62.7,166.5l-9.7,18.6-1.9-1,9.7-18.6,1.9,1Zm8.4,4.4l-9.7,18.6-1.9-1,9.7-18.6,1.9,1Zm8.4,4.4l-9.7,18.6-1.9-1,9.7-18.6,1.9,1Z"/><path class="cls-16" d="M72.6,150.3l-1.7-1.2,1.2-1.7h0l9.8-13.6,1.2-1.7,1.7,1.2,15.4,11.1-1.2,1.7-15.4-11.1-9.8,13.7,15.4,11.1-1.2,1.7-15.4-11.1Z"/><path class="cls-16" d="M111,118l-5.7,20.2-1.4,1.6-15.7-14,1.4-1.6h0l19.4-8.1,.3,.3,1.4,1.3,.3,.3Zm-5.2,10.9l-7-6.2-7.5,3.1,12.2,10.9,2.2-7.8Zm.6-2.3l2.3-8-7.7,3.2,5.4,4.8Z"/><path class="cls-16" d="M124.7,89.3l6.5,7.8h0l13.5,1.3,.8,.9-1.3,1.1-12.5-1.2-.9,12.5-1.4,1.2-.8-.9,1-13.5h0l-6.5-7.7,1.6-1.3Z"/><path class="cls-16" d="M148.4,90.6c-1.7-.8-3.1-2-4.1-3.6-1.1-1.6-1.7-3.3-1.8-5.2-.1-1.9,.2-3.6,1-5.3,.8-1.7,2-3.1,3.6-4.1,1.6-1.1,3.3-1.7,5.2-1.8,1.9-.1,3.6,.2,5.3,1,1.7,.8,3.1,2,4.1,3.6,1.1,1.6,1.7,3.3,1.8,5.2,.1,1.9-.2,3.6-1,5.3-.8,1.7-2,3.1-3.6,4.1-1.6,1.1-3.3,1.7-5.2,1.8-1.9,.1-3.6-.2-5.3-1Zm-2.9-5.7l13.8-9.4c-1.4-1.6-3.1-2.5-5.2-2.8-2.1-.3-4,.2-5.8,1.4-1.8,1.2-2.9,2.8-3.4,4.9-.5,2-.3,4,.6,5.9Zm1.2,1.8c1.4,1.6,3.1,2.5,5.2,2.8,2.1,.3,4-.2,5.8-1.4,1.8-1.2,2.9-2.8,3.4-4.9s.3-4-.6-5.9l-13.8,9.4Z"/><path class="cls-16" d="M191,71l-10.3,5.5-1,.6h0l-7.2,3.9v-.2l-1.1-1.9-3.2-5.9-1.2-2.2-4.5-8.4,2.2-1.1,4.5,8.3,7.4-4,.9,1.6,.3,.5,3.2,6,9-4.8,1.1,2.1Zm-15.7-2l-5,2.7,3.2,5.9,5-2.7-3.2-6Z"/><path class="cls-16" d="M208.5,43.1l-8.7,3.6,6.4,15.5,8.7-3.6,.8,1.9-8.7,3.6-1.9,.8-8.7,3.6-.8-1.9,8.7-3.6-6.4-15.5-8.7,3.6-.8-1.9,8.7-3.6,1.9-.8,8.7-3.6,.8,1.9Z"/><path class="cls-16" d="M216.6,37.9l13.8,15.2,3.6-20.3,1.3-.3,.7,2.3-3.5,20.4-2.6,.8h-.1l-13.9-15.4-.7-2.3,1.4-.5Z"/><path class="cls-16" d="M249,50.9l-2.1,.4-3.9-20.6,2.1-.4,3.9,20.6Zm9.3-1.7l-2.1,.4-3.9-20.6,2.1-.4,3.9,20.6Zm9.3-1.7l-2.1,.4-3.9-20.6,2.1-.4,3.9,20.6Z"/></g></g><g id="name"><g><path class="cls-16" d="M224.7,556.8l.6-2,2,.5h0l16.2,4.5,2,.6-.6,2-5,18.3-2-.6,5-18.3-16.2-4.5-5,18.3-2-.6,5-18.3Z"/><path class="cls-16" d="M252,583.2l-2.1-.3,3.3-20.7,2.1,.3-3.3,20.7Zm9.3,1.5l-2.1-.3,3.3-20.7,2.1,.3-3.3,20.7Zm9.3,1.5l-2.1-.3,3.3-20.7,2.1,.3-3.3,20.7Z"/><path class="cls-16" d="M282.5,582c-.9-1.7-1.2-3.4-1.2-5.3,0-1.9,.6-3.6,1.7-5.2,1-1.6,2.3-2.8,4-3.6,1.7-.9,3.4-1.2,5.3-1.2,1.9,0,3.6,.6,5.2,1.7,1.6,1,2.8,2.3,3.6,4s1.2,3.4,1.2,5.3-.6,3.6-1.7,5.2c-1,1.6-2.3,2.8-4,3.6-1.7,.9-3.4,1.2-5.3,1.2-1.9,0-3.6-.6-5.2-1.7-1.6-1-2.8-2.3-3.6-4Zm1-4.2c.2,2.1,1,3.9,2.5,5.4,1.5,1.5,3.3,2.3,5.5,2.4,2.1,.1,4-.5,5.7-1.8,1.6-1.3,2.7-3,3-5.1l-16.7-.8Zm.1-2.1l16.7,.8c-.2-2.1-1-3.9-2.5-5.4-1.5-1.5-3.3-2.3-5.5-2.4-2.1-.1-4,.5-5.7,1.8s-2.7,3-3,5.1Z"/><path class="cls-16" d="M311,569.3v-2.1c2.1-.1,4.4,0,6.5,.7,2.2,.6,4.2,1.5,6,2.6,1.8,1.2,3.4,2.6,4.8,4.2,1.4,1.6,2.5,3.5,3.4,5.6,.8,2.1,1.3,4.3,1.5,6.5h-2.1c-.5-4.5-2.5-8.5-5.8-11.8l-11.5,13h-1.5v-1.4l11.4-13c-3.7-2.9-7.9-4.4-12.6-4.3Z"/><path class="cls-16" d="M343.7,580.3c-1.2-1.4-2-3.1-2.3-5-.3-1.9-.2-3.7,.5-5.4s1.7-3.2,3.1-4.4c1.4-1.2,3.1-2,5-2.3,1.9-.3,3.7-.2,5.4,.5,1.7,.6,3.2,1.7,4.4,3.1,1.2,1.4,2,3.1,2.3,5,.3,1.9,.2,3.7-.5,5.4-.6,1.7-1.7,3.2-3.1,4.4-1.4,1.2-3.1,2-5,2.3-1.9,.3-3.7,.2-5.4-.5-1.7-.6-3.2-1.7-4.4-3.1Zm-.3-6.4l16.4-2.8c-.6-2-1.8-3.6-3.6-4.7-1.8-1.1-3.7-1.5-5.8-1.1-2.1,.4-3.8,1.4-5.1,3-1.3,1.6-1.9,3.5-1.8,5.6Zm.4,2.1c.6,2,1.8,3.6,3.6,4.7,1.8,1.1,3.7,1.5,5.8,1.1,2.1-.4,3.8-1.4,5.1-3,1.3-1.7,1.9-3.5,1.8-5.6l-16.4,2.8Z"/><path class="cls-16" d="M394.2,573.9l-18.1,5.3-2,.6-.6-2-2-7-.3-1-.3-1,18.1-5.3-2-7-18.1,5.3-.6-2,18.1-5.3,2-.6,.6,2,2,7,.3,1,.3,1-18.1,5.3,2,7,18.1-5.3,.6,2Z"/></g></g><g id="right_text"><g><path class="cls-16" d="M444.1,85l-16.4-9.4-1.8-1,1.1-1.8,3.7-6.4,.5-.9,.5-.9,16.4,9.4,3.7-6.4-16.4-9.4,1-1.8,16.4,9.4,1.8,1-1,1.8-3.7,6.4-.5,.9-.5,.9-16.4-9.4-3.7,6.4,16.4,9.4-1.1,1.8Z"/><path class="cls-16" d="M461.9,74l1.2-1.7,1.7,1.2h0l13.6,10,1.7,1.2-1.2,1.7-11.2,15.3-1.7-1.2,11.2-15.3-13.6-10-11.2,15.3-1.7-1.2,11.2-15.3Z"/><path class="cls-16" d="M482,114.4l-1.5-1.4,6.5-7-6.9-6.3,1.4-1.5,6.9,6.3,4.9-5.3-6.9-6.3,1.4-1.5,15.4,14.2-1.4,1.5-7-6.5-4.9,5.3,7,6.5-1.4,1.5-7-6.5-6.5,7Z"/><path class="cls-16" d="M499.4,124.1c.6-1.8,1.6-3.3,3.1-4.5,1.4-1.2,3.1-2,4.9-2.4,1.8-.3,3.6-.2,5.4,.4,1.8,.6,3.3,1.6,4.5,3.1,1.2,1.4,2,3.1,2.4,4.9s.2,3.6-.4,5.4c-.6,1.8-1.6,3.3-3.1,4.5s-3.1,2-4.9,2.4c-1.8,.3-3.6,.2-5.4-.4-1.8-.6-3.3-1.6-4.5-3.1-1.2-1.4-2-3.1-2.4-4.9-.3-1.8-.2-3.6,.4-5.4Zm3.7-2.2c-1.4,1.6-2.1,3.4-2.1,5.5,0,2.1,.7,4,2.1,5.6,1.4,1.6,3.1,2.5,5.2,2.8,2.1,.3,4-.2,5.8-1.3l-10.9-12.6Zm1.6-1.4l10.9,12.6c1.4-1.6,2.1-3.4,2.1-5.5,0-2.1-.7-4-2.1-5.6s-3.1-2.6-5.2-2.8c-2.1-.3-4,.2-5.8,1.3Z"/><path class="cls-16" d="M528.7,137.9l1.7-1.2c1.3,1.9,2.3,3.9,2.9,6.1,.6,2.2,.9,4.3,.8,6.5,0,2.2-.5,4.2-1.2,6.3-.7,2-1.7,4-3.1,5.8-1.4,1.8-3,3.3-4.9,4.6l-1.2-1.7c3.7-2.9,6.1-6.6,7.2-11.2l-17.1-3.2-.8-1.2,1.2-.8,17.1,3.1c.6-4.7-.3-9-2.8-13Z"/><path class="cls-16" d="M561,188.1l-13.6,15.4,20.6,1.3,.5,1.3-2.2,.9-20.7-1.3-1.1-2.5h0l13.8-15.7,2.2-.9,.7,1.3Z"/><path class="cls-16" d="M575.7,236.5l-2.7-9.1-16.1,4.8,2.7,9.1-2,.6-2.7-9.1-.6-2-2.7-9.1,2-.6,2.7,9.1,16.1-4.8-2.7-9.1,2-.6,2.7,9.1,.6,2,2.7,9.1-2,.6Z"/><path class="cls-16" d="M561.4,260.7l-.4-2.1,9.4-1.7-1.6-9.2,2.1-.4,1.6,9.2,7.2-1.3-1.6-9.2,2-.4,3.7,20.7-2,.4-1.7-9.4-7.2,1.3,1.7,9.4-2.1,.4-1.7-9.4-9.4,1.7Z"/><path class="cls-16" d="M582.9,276.7h2.1l.2,2h0l1.1,16.8v2.1h-1.9l-18.9,1.3v-2.1l18.8-1.2-1.1-16.8-18.9,1.2v-2.1l18.8-1.2Z"/><path class="cls-16" d="M564.4,327.7l1-21h2.1l-1,21.1h-2.1Zm9.4,.4l1-21h2.1l-1,21.1h-2.1Zm9.4,.3l1-21h2.1l-1,21.1h-2.1Z"/></g></g><g id="small_circle"><circle class="cls-12" cx="305" cy="305" r="250"/></g><g id="constellation"><line class="cls-11" x1="300.9" y1="399.4" x2="300.9" y2="338.2"/><line class="cls-11" x1="256.6" y1="415.8" x2="291.7" y2="400.9"/><line class="cls-11" x1="354.4" y1="422.7" x2="313.5" y2="399.5"/><line class="cls-11" x1="300.9" y1="338.2" x2="328.8" y2="280.8"/><line class="cls-11" x1="266.2" y1="272" x2="300.9" y2="338.2"/><line class="cls-11" x1="249.9" y1="205.8" x2="180" y2="280.1"/><line class="cls-11" x1="342.1" y1="195.9" x2="278.8" y2="196.5"/><line class="cls-11" x1="180" y1="280.1" x2="300.9" y2="338.2"/><line class="cls-11" x1="420.1" y1="271.9" x2="300.9" y2="338.2"/><line class="cls-11" x1="328.8" y1="280.8" x2="386.2" y2="233.7"/><line class="cls-11" x1="258.9" y1="261.7" x2="236.9" y2="232.4"/><line class="cls-11" x1="352.2" y1="195.6" x2="420.1" y2="271.9"/><line class="cls-11" x1="301.1" y1="325.2" x2="308.9" y2="196.1"/><circle class="cls-3" cx="180" cy="280.1" r="11.7"/><circle class="cls-6" cx="300.9" cy="338.2" r="11.7"/><ellipse class="cls-7" cx="229.4" cy="224.8" rx="10.3" ry="10.2"/><circle class="cls-4" cx="386.2" cy="233.7" r="11.7"/><circle class="cls-8" cx="266.2" cy="272" r="11.7"/><circle class="cls-2" cx="352.2" cy="195.6" r="11.7"/><circle class="cls-5" cx="260.7" cy="195.2" r="17.2"/><circle class="cls-10" cx="300.9" cy="399.4" r="11.7"/><circle class="cls-9" cx="365.3" cy="427.9" r="11.7"/><circle class="cls-15" cx="420.1" cy="271.9" r="11.7"/><circle class="cls-14" cx="248.1" cy="421.5" r="9.5"/><circle class="cls-13" cx="330.1" cy="279.6" r="9.3"/></g></svg>