<?xml version="1.0" encoding="UTF-8"?><svg xmlns="http://www.w3.org/2000/svg" xmlns:xlink="http://www.w3.org/1999/xlink" viewBox="0 0 610 610"><defs><style>.cls-1{stroke-width:5px;}.cls-1,.cls-2,.cls-3,.cls-4,.cls-5,.cls-6,.cls-7,.cls-8,.cls-9,.cls-10,.cls-11,.cls-12,.cls-13,.cls-14,.cls-15{stroke-miterlimit:10;}.cls-1,.cls-2,.cls-3,.cls-4,.cls-5,.cls-6,.cls-7,.cls-8,.cls-9,.cls-10,.cls-13,.cls-14,.cls-15{stroke:#000;}.cls-1,.cls-12{fill:#231f20;}.cls-2{filter:url(#drop-shadow-6);}.cls-2,.cls-3,.cls-4,.cls-5,.cls-6,.cls-7,.cls-8,.cls-9,.cls-10,.cls-16,.cls-11,.cls-13,.cls-14,.cls-15{fill:ivory;}.cls-2,.cls-3,.cls-4,.cls-5,.cls-6,.cls-7,.cls-8,.cls-9,.cls-10,.cls-11,.cls-12,.cls-13,.cls-14,.cls-15{stroke-width:2px;}.cls-3{filter:url(#drop-shadow-1);}.cls-4{filter:url(#drop-shadow-4);}.cls-5{filter:url(#drop-shadow-7);}.cls-6{filter:url(#drop-shadow-2);}.cls-7{filter:url(#drop-shadow-3);}.cls-8{filter:url(#drop-shadow-5);}.cls-9{filter:url(#drop-shadow-9);}.cls-10{filter:url(#drop-shadow-8);}.cls-11,.cls-12{stroke:ivory;}.cls-13{filter:url(#drop-shadow-12);}.cls-14{filter:url(#drop-shadow-11);}.cls-15{filter:url(#drop-shadow-10);}</style><filter id="drop-shadow-1" filterUnits="userSpaceOnUse"><feOffset dx="0" dy="0"/><feGaussianBlur result="blur" stdDeviation="12"/><feFlood flood-color="ivory" flood-opacity=".8"/><feComposite in2="blur" operator="in"/><feComposite in="SourceGraphic"/></filter><filter id="drop-shadow-2" filterUnits="userSpaceOnUse"><feOffset dx="0" dy="0"/><feGaussianBlur result="blur-2" stdDeviation="12"/><feFlood flood-color="ivory" flood-opacity=".8"/><feComposite in2="blur-2" operator="in"/><feComposite in="SourceGraphic"/></filter><filter id="drop-shadow-3" filterUnits="userSpaceOnUse"><feOffset dx="0" dy="0"/><feGaussianBlur result="blur-3" stdDeviation="12"/><feFlood flood-color="ivory" flood-opacity=".8"/><feComposite in2="blur-3" operator="in"/><feComposite in="SourceGraphic"/></filter><filter id="drop-shadow-4" filterUnits="userSpaceOnUse"><feOffset dx="0" dy="0"/><feGaussianBlur result="blur-4" stdDeviation="12"/><feFlood flood-color="ivory" flood-opacity=".8"/><feComposite in2="blur-4" operator="in"/><feComposite in="SourceGraphic"/></filter><filter id="drop-shadow-5" filterUnits="userSpaceOnUse"><feOffset dx="0" dy="0"/><feGaussianBlur result="blur-5" stdDeviation="12"/><feFlood flood-color="ivory" flood-opacity=".8"/><feComposite in2="blur-5" operator="in"/><feComposite in="SourceGraphic"/></filter><filter id="drop-shadow-6" filterUnits="userSpaceOnUse"><feOffset dx="0" dy="0"/><feGaussianBlur result="blur-6" stdDeviation="12"/><feFlood flood-color="ivory" flood-opacity=".8"/><feComposite in2="blur-6" operator="in"/><feComposite in="SourceGraphic"/></filter><filter id="drop-shadow-7" filterUnits="userSpaceOnUse"><feOffset dx="0" dy="0"/><feGaussianBlur result="blur-7" stdDeviation="12"/><feFlood flood-color="ivory" flood-opacity=".8"/><feComposite in2="blur-7" operator="in"/><feComposite in="SourceGraphic"/></filter><filter id="drop-shadow-8" filterUnits="userSpaceOnUse"><feOffset dx="0" dy="0"/><feGaussianBlur result="blur-8" stdDeviation="12"/><feFlood flood-color="ivory" flood-opacity=".8"/><feComposite in2="blur-8" operator="in"/><feComposite in="SourceGraphic"/></filter><filter id="drop-shadow-9" filterUnits="userSpaceOnUse"><feOffset dx="0" dy="0"/><feGaussianBlur result="blur-9" stdDeviation="12"/><feFlood flood-color="ivory" flood-opacity=".8"/><feComposite in2="blur-9" operator="in"/><feComposite in="SourceGraphic"/></filter><filter id="drop-shadow-10" filterUnits="userSpaceOnUse"><feOffset dx="0" dy="0"/><feGaussianBlur result="blur-10" stdDeviation="12"/><feFlood flood-color="ivory" flood-opacity=".8"/><feComposite in2="blur-10" operator="in"/><feComposite in="SourceGraphic"/></filter><filter id="drop-shadow-11" filterUnits="userSpaceOnUse"><feOffset dx="0" dy="0"/><feGaussianBlur result="blur-11" stdDeviation="12"/><feFlood flood-color="ivory" flood-opacity=".8"/><feComposite in2="blur-11" operator="in"/><feComposite in="SourceGraphic"/></filter><filter id="drop-shadow-12" filterUnits="userSpaceOnUse"><feOffset dx="0" dy="0"/><feGaussianBlur result="blur-12" stdDeviation="12"/><feFlood flood-color="ivory" flood-opacity=".8"/><feComposite in2="blur-12" operator="in"/><feComposite in="SourceGraphic"/></filter></defs><g id="large_circle"><circle class="cls-1" cx="305" cy="305" r="300"/></g><g id="name"><g><path class="cls-16" d="M252.1,561.9l.3-2.1,2.1,.3h0l16.6,2.7,2.1,.3-.3,2.1-3,18.7-2.1-.3,3-18.7-16.6-2.7-3,18.7-2.1-.3,3-18.7Z"/><path class="cls-16" d="M282.7,564l8,18.9,10.1-17.9h1.4v2.5l-10.2,18.1h-2.8l-8-19.2v-2.3h1.6Z"/><path class="cls-16" d="M310.2,567.3v-2.1c2.2-.1,4.4,0,6.6,.7,2.2,.6,4.2,1.5,6,2.7,1.8,1.2,3.4,2.6,4.8,4.3,1.4,1.6,2.5,3.5,3.3,5.6,.8,2.1,1.3,4.3,1.4,6.6h-2.1c-.5-4.5-2.5-8.5-5.8-11.8l-11.6,13h-1.5v-1.4l11.4-13c-3.7-2.9-7.9-4.4-12.6-4.3Z"/><path class="cls-16" d="M339.3,565l-.4-2,2.1-.4h0l16.6-2.8,2-.4,.4,2,3.2,18.7-2,.4-3.2-18.7-16.6,2.8,3.2,18.7-2,.4-3.2-18.7Z"/></g></g><g id="left_top_lettering"><g><path class="cls-16" d="M103.8,501.4l6.8,6.5,11.6-12.2-6.8-6.5,1.4-1.5,6.8,6.5,1.5,1.4,6.8,6.5-1.4,1.5-6.8-6.5-11.6,12.2,6.8,6.5-1.4,1.5-6.8-6.5-1.5-1.4-6.8-6.5,1.4-1.5Z"/><path class="cls-16" d="M88.1,486.9l8.3-19.7,1.5-1.3,13.5,16.1-1.5,1.3h0l-20.1,5.6-.2-.3-1.2-1.4-.2-.3Zm2.2-.3l18.1-5-10.7-12.7-7.5,17.7Z"/><path class="cls-16" d="M75.2,431.3l1.1,1.8-18,10.8-1.1-1.8,18-10.8Zm4.9,8.1l1.1,1.8-18,10.8-1.1-1.8,18-10.8Zm4.9,8.1l1.1,1.8-18,10.8-1.1-1.8,18-10.8Z"/><path class="cls-16" d="M54.3,432.4l-1.9,.9-.9-1.9h0l-7.1-15.3-.9-1.9,1.9-.9,17.2-8,.9,1.9-17.2,8,7.1,15.3,17.2-8,.9,1.9-17.2,8Z"/><path class="cls-16" d="M36.3,394l15-15.3,1.9-.6,6.7,19.9-1.9,.6h0l-20.8-2.2v-.4l-.7-1.7v-.4Zm2.1,.6l18.7,2-5.2-15.7-13.5,13.7Z"/><path class="cls-16" d="M28.2,354l2,9.2,16.4-3.6-2-9.2,2.1-.4,2,9.2,.4,2.1,2,9.2-2.1,.4-2-9.2-16.4,3.6,2,9.2-2.1,.4-2-9.2-.4-2.1-2-9.2,2.1-.4Z"/><path class="cls-16" d="M34,322.3h0l8.8,15.1-1.6-15.9,2.1-.2,2.2,20.9-2.1,.2h0l-10.2-17.5-6.4,19.2h-.2l-1.9,.2-2.2-20.9,2.1-.2,1.6,15.9,5.6-16.6h0l2.3-.3h0Z"/><path class="cls-16" d="M21.7,311.8l18.5-8.8-18.4-9.3v-1.4h2.5l18.5,9.3v2.7h0l-18.8,9h-2.4v-1.5Z"/><path class="cls-16" d="M46,263.8l-2.2,18.7-.2,2.1-2.1-.3-7.3-.9h-1l-1-.2,2.2-18.7-7.3-.9-2.2,18.7-2.1-.2,2.2-18.7,.2-2.1,2.1,.2,7.3,.9h1.1l1,.2-2.2,18.7,7.3,.9,2.2-18.7,2.1,.3Z"/><path class="cls-16" d="M53.2,232.8l-.6,2-9.2-2.6-2.6,9-2-.6,2.6-9-7-2-2.6,9-2-.6,5.7-20.2,2,.6-2.6,9.2,7,2,2.6-9.2,2,.6-2.6,9.2,9.2,2.6Z"/><path class="cls-16" d="M39.3,206.7l20.5-1.4-13.6-15.5,.6-1.2,2.2,.9,13.8,15.5-1,2.5h0l-20.7,1.4-2.2-.9,.5-1.4Z"/><path class="cls-16" d="M62.9,162.1l-4.5,8.3,14.8,8,4.5-8.3,1.8,1-4.5,8.3-1,1.8-4.5,8.3-1.8-1,4.5-8.3-14.8-8-4.5,8.3-1.8-1,4.5-8.3,1-1.8,4.5-8.3,1.8,1Z"/><path class="cls-16" d="M95.6,147.1l-10.7,15.5-1.2,1.7-1.7-1.2-6-4.2-.9-.6-.9-.6,10.7-15.5-6-4.2-10.7,15.5-1.7-1.2,10.7-15.5,1.2-1.7,1.7,1.2,6,4.2,.9,.6,.8,.6-10.7,15.5,6,4.2,10.7-15.5,1.7,1.2Z"/><path class="cls-16" d="M101.8,124.8h0l-.8-.8h-.2l-.6-.7h0l7.9-21.6h0l1.6,1.5-6,16.5,11.1-11.6,1.5,1.4-11.2,11.6,16.3-6.7,1.6,1.5h0l-21.2,8.7Z"/><path class="cls-16" d="M116.7,96.3l-1.4-1.6c1.8-1.5,3.7-2.6,5.8-3.4,2.1-.8,4.2-1.3,6.4-1.4,2.2-.1,4.3,0,6.4,.6,2.1,.5,4.1,1.3,6,2.5,1.9,1.2,3.6,2.7,5.1,4.4l-1.6,1.4c-3.2-3.4-7.1-5.5-11.8-6.2l-1.6,17.3-1.1,1-1-1.1,1.5-17.3c-4.7-.2-8.9,1.2-12.7,4Z"/><path class="cls-16" d="M158.3,65.2l-17.5,11.6-1.2-1.7,17.5-11.6,1.2,1.8Zm5.2,7.9l-17.5,11.6-1.2-1.8,17.5-11.6,1.2,1.7Zm5.2,7.9l-17.5,11.6-1.2-1.8,17.5-11.6,1.2,1.7Z"/><path class="cls-16" d="M166.8,60.2l-1-1.8,1.8-1h0l14.9-7.7,1.8-1,1,1.8,8.7,16.9-1.8,1-8.7-16.9-14.9,7.7,8.7,16.9-1.8,1-8.7-16.8Z"/><path class="cls-16" d="M212,60.1l-2,.8-3.4-8.9-8.7,3.4-.8-2,8.7-3.4-2.6-6.8-8.7,3.4-.7-1.9,19.6-7.5,.7,1.9-8.9,3.4,2.6,6.8,8.9-3.4,.8,2-8.9,3.4,3.4,8.9Z"/><path class="cls-16" d="M243.9,30.6l-9.1,2.4,4.3,16.2,9.1-2.4,.5,2-9.1,2.4-2,.5-9.1,2.4-.5-2,9.1-2.4-4.3-16.2-9.1,2.4-.5-2,9.1-2.4,2-.5,9.1-2.4,.5,2Z"/><path class="cls-16" d="M257,41.9c-1.2-1.5-1.9-3.1-2.2-5-.3-1.9,0-3.7,.6-5.4,.7-1.7,1.8-3.2,3.2-4.3,1.5-1.2,3.1-1.9,5-2.2,1.9-.3,3.7,0,5.4,.6,1.7,.7,3.2,1.8,4.3,3.2,1.2,1.5,1.9,3.1,2.2,5,.3,1.9,0,3.7-.6,5.4-.7,1.7-1.8,3.2-3.2,4.3-1.5,1.2-3.1,1.9-5,2.2-1.9,.3-3.7,0-5.4-.6s-3.2-1.8-4.3-3.2Zm-.2-6.4l16.5-2.4c-.6-2-1.7-3.6-3.5-4.8-1.8-1.2-3.7-1.6-5.8-1.3-2.1,.3-3.8,1.3-5.2,2.9-1.4,1.6-2,3.5-2,5.6Zm.3,2.1c.6,2,1.7,3.6,3.5,4.8,1.8,1.2,3.7,1.6,5.8,1.3,2.1-.3,3.8-1.3,5.2-2.9,1.4-1.6,2-3.5,2-5.6l-16.5,2.4Z"/></g></g><g id="right_top_lettering"><g><path class="cls-16" d="M340.2,23.9l6,19.6,12-16.8,1.3,.3-.4,2.4-12,16.9-2.7-.4h-.1l-6-19.9,.4-2.3h1.5Z"/><path class="cls-16" d="M365.8,50l-2-.6,5.5-20.3,2,.6-5.5,20.3Zm9.1,2.5l-2-.6,5.5-20.3,2,.6-5.5,20.3Zm9.1,2.5l-2-.6,5.5-20.3,2,.6-5.5,20.3Z"/><path class="cls-16" d="M414.5,56.5h0l-17.4,.9,14.8,5.8-.8,2-19.5-7.7,.8-1.9h0l20.2-1.1-14.1-14.5h0v-.2l.8-1.8,19.5,7.7-.8,2-14.9-5.9,12.2,12.6h0l-.8,2.1h0Z"/><path class="cls-16" d="M427,51.7l1-1.9c2,1.1,3.8,2.4,5.4,4,1.6,1.6,2.8,3.4,3.7,5.4,.9,1.9,1.5,4,1.9,6.1,.3,2.1,.3,4.3,0,6.5-.4,2.2-1.1,4.3-2.2,6.4l-1.9-1c2-4.3,2.4-8.7,1.2-13.2l-16.6,5.1-1.3-.7,.7-1.3,16.6-5.2c-1.6-4.4-4.5-7.8-8.5-10.2Z"/><path class="cls-16" d="M454.1,66.6l1.2-1.7,1.8,1.1h0l13.9,9.5,1.7,1.2-1.2,1.7-10.6,15.7-1.7-1.2,10.6-15.7-13.9-9.4-10.6,15.7-1.7-1.2,10.6-15.7Z"/><path class="cls-16" d="M489.8,93l1.4-1.5,1.6,1.4h0l12.2,11.6,1.5,1.4-1.4,1.5-13,13.8-1.5-1.4,13-13.8-12.2-11.5-13,13.8-1.5-1.4,13-13.8Z"/><path class="cls-16" d="M511.1,142.9l-13.6-16,1.6-1.4,13.6,16-1.6,1.4Zm7.2-6.1l-13.6-16,1.6-1.4,13.6,16-1.6,1.4Zm7.2-6.1l-13.6-16,1.6-1.4,13.6,16-1.6,1.4Z"/><path class="cls-16" d="M522.3,158.7l-1.2-1.7,7.9-5.4-5.3-7.7,1.7-1.2,5.3,7.7,6-4.1-5.3-7.7,1.7-1.2,11.9,17.3-1.7,1.2-5.4-7.9-6,4.1,5.4,7.9-1.7,1.2-5.4-7.9-7.9,5.4Z"/><path class="cls-16" d="M541.6,191.8l-9.8-18.6,1.9-1,9.8,18.6-1.9,1Zm8.3-4.4l-9.8-18.6,1.9-1,9.8,18.6-1.9,1Zm8.3-4.4l-9.8-18.6,1.9-1,9.8,18.6-1.9,1Z"/><path class="cls-16" d="M562.4,192l2-.8c.8,2.1,1.3,4.3,1.5,6.6,.1,2.2,0,4.4-.7,6.5s-1.4,4-2.5,5.9c-1.1,1.8-2.5,3.5-4.3,4.9-1.7,1.4-3.6,2.6-5.8,3.4l-.8-2c4.3-2,7.5-5,9.5-9.3l-16-6.9-.5-1.4,1.4-.5,16,6.9c1.6-4.4,1.7-8.8,.2-13.3Z"/><path class="cls-16" d="M578.3,231.2l-15.8,14.4-1.9,.5-5.5-20.3,1.9-.5h0l20.6,3.4v.4l.6,1.8v.4Zm-2-.7l-18.6-3,4.3,16,14.2-12.9Z"/><path class="cls-16" d="M581,250.9l2.1-.3,.4,2.1h0l2.6,16.6,.3,2.1-2.1,.3-18.7,2.9-.3-2.1,18.7-2.9-2.6-16.6-18.7,2.9-.3-2.1,18.7-3Z"/><path class="cls-16" d="M588.2,296.6l-18.5,8.9,18.4,9.3v1.4h-2.5l-18.6-9.2v-2.7h0l18.7-9.1h2.4v1.5Z"/><path class="cls-16" d="M564.2,344.8l.2-2.1,20.9,2.4-.2,2.1-20.9-2.4Zm1.1-9.4l.2-2.1,20.9,2.4-.2,2.1-20.9-2.4Zm1.1-9.4l.2-2.1,20.9,2.4-.2,2.1-20.9-2.4Z"/><path class="cls-16" d="M576.7,377.1l2.1-9.2-16.4-3.7-2.1,9.2-2-.5,2.1-9.2,.5-2,2.1-9.2,2,.5-2.1,9.2,16.4,3.7,2.1-9.2,2,.5-2.1,9.2-.5,2-2.1,9.2-2-.5Z"/></g></g><g id="Layer_10"><circle class="cls-12" cx="304.9" cy="304.9" r="250"/></g><g id="constellation_lines"><line class="cls-11" x1="191" y1="322.3" x2="217.1" y2="348.6"/><line class="cls-11" x1="274.6" y1="381" x2="235.9" y2="359.4"/><line class="cls-11" x1="292.7" y1="424.7" x2="286.7" y2="393.9"/><line class="cls-11" x1="344.7" y1="422.4" x2="343.8" y2="390.3"/><line class="cls-11" x1="266.5" y1="310.4" x2="281.6" y2="374.1"/><line class="cls-11" x1="236.7" y1="213.7" x2="257.1" y2="281.9"/><line class="cls-11" x1="345.6" y1="313" x2="277.8" y2="298.7"/><line class="cls-11" x1="400.2" y1="252.6" x2="361.6" y2="306"/><line class="cls-11" x1="353.2" y1="190.6" x2="323.9" y2="307.2"/><line class="cls-11" x1="294.6" y1="173.6" x2="294.2" y2="301"/><line class="cls-11" x1="353.4" y1="323.9" x2="346.2" y2="374.5"/></g><g id="stars"><circle class="cls-3" cx="355" cy="315" r="10"/><circle class="cls-6" cx="343.3" cy="383.3" r="8.3"/><circle class="cls-7" cx="235" cy="205" r="10"/><circle class="cls-4" cx="405" cy="245" r="10"/><circle class="cls-8" cx="295" cy="435" r="10"/><circle class="cls-2" cx="354.6" cy="184.4" r="7.9"/><circle class="cls-5" cx="295" cy="165" r="10"/><circle class="cls-10" cx="285" cy="385" r="10"/><circle class="cls-9" cx="264.4" cy="296.6" r="15"/><circle class="cls-15" cx="185" cy="315" r="10"/><circle class="cls-14" cx="226" cy="356" r="11"/><circle class="cls-13" cx="345" cy="435" r="10"/></g></svg>