<?xml version="1.0" encoding="UTF-8"?><svg xmlns="http://www.w3.org/2000/svg" xmlns:xlink="http://www.w3.org/1999/xlink" viewBox="0 0 610 610"><defs><style>.cls-1{stroke-width:5px;}.cls-1,.cls-2,.cls-3,.cls-4,.cls-5,.cls-6,.cls-7,.cls-8,.cls-9,.cls-10,.cls-11,.cls-12,.cls-13{stroke-miterlimit:10;}.cls-1,.cls-2,.cls-3,.cls-4,.cls-5,.cls-6,.cls-7,.cls-8,.cls-9,.cls-10,.cls-13{stroke:#000;}.cls-1,.cls-11{fill:#231f20;}.cls-2{filter:url(#drop-shadow-6);}.cls-2,.cls-3,.cls-4,.cls-5,.cls-6,.cls-7,.cls-8,.cls-9,.cls-10,.cls-14,.cls-13{fill:ivory;}.cls-2,.cls-3,.cls-4,.cls-5,.cls-6,.cls-7,.cls-8,.cls-9,.cls-10,.cls-11,.cls-12,.cls-13{stroke-width:2px;}.cls-3{filter:url(#drop-shadow-1);}.cls-4{filter:url(#drop-shadow-4);}.cls-5{filter:url(#drop-shadow-7);}.cls-6{filter:url(#drop-shadow-2);}.cls-7{filter:url(#drop-shadow-3);}.cls-8{filter:url(#drop-shadow-5);}.cls-9{filter:url(#drop-shadow-9);}.cls-10{filter:url(#drop-shadow-8);}.cls-11,.cls-12{stroke:ivory;}.cls-12{fill:none;}.cls-13{filter:url(#drop-shadow-10);}</style><filter id="drop-shadow-1" filterUnits="userSpaceOnUse"><feOffset dx="0" dy="0"/><feGaussianBlur result="blur" stdDeviation="12"/><feFlood flood-color="ivory" flood-opacity=".8"/><feComposite in2="blur" operator="in"/><feComposite in="SourceGraphic"/></filter><filter id="drop-shadow-2" filterUnits="userSpaceOnUse"><feOffset dx="0" dy="0"/><feGaussianBlur result="blur-2" stdDeviation="12"/><feFlood flood-color="ivory" flood-opacity=".8"/><feComposite in2="blur-2" operator="in"/><feComposite in="SourceGraphic"/></filter><filter id="drop-shadow-3" filterUnits="userSpaceOnUse"><feOffset dx="0" dy="0"/><feGaussianBlur result="blur-3" stdDeviation="12"/><feFlood flood-color="ivory" flood-opacity=".8"/><feComposite in2="blur-3" operator="in"/><feComposite in="SourceGraphic"/></filter><filter id="drop-shadow-4" filterUnits="userSpaceOnUse"><feOffset dx="0" dy="0"/><feGaussianBlur result="blur-4" stdDeviation="12"/><feFlood flood-color="ivory" flood-opacity=".8"/><feComposite in2="blur-4" operator="in"/><feComposite in="SourceGraphic"/></filter><filter id="drop-shadow-5" filterUnits="userSpaceOnUse"><feOffset dx="0" dy="0"/><feGaussianBlur result="blur-5" stdDeviation="12"/><feFlood flood-color="ivory" flood-opacity=".8"/><feComposite in2="blur-5" operator="in"/><feComposite in="SourceGraphic"/></filter><filter id="drop-shadow-6" filterUnits="userSpaceOnUse"><feOffset dx="0" dy="0"/><feGaussianBlur result="blur-6" stdDeviation="12"/><feFlood flood-color="ivory" flood-opacity=".8"/><feComposite in2="blur-6" operator="in"/><feComposite in="SourceGraphic"/></filter><filter id="drop-shadow-7" filterUnits="userSpaceOnUse"><feOffset dx="0" dy="0"/><feGaussianBlur result="blur-7" stdDeviation="12"/><feFlood flood-color="ivory" flood-opacity=".8"/><feComposite in2="blur-7" operator="in"/><feComposite in="SourceGraphic"/></filter><filter id="drop-shadow-8" filterUnits="userSpaceOnUse"><feOffset dx="0" dy="0"/><feGaussianBlur result="blur-8" stdDeviation="12"/><feFlood flood-color="ivory" flood-opacity=".8"/><feComposite in2="blur-8" operator="in"/><feComposite in="SourceGraphic"/></filter><filter id="drop-shadow-9" filterUnits="userSpaceOnUse"><feOffset dx="0" dy="0"/><feGaussianBlur result="blur-9" stdDeviation="12"/><feFlood flood-color="ivory" flood-opacity=".8"/><feComposite in2="blur-9" operator="in"/><feComposite in="SourceGraphic"/></filter><filter id="drop-shadow-10" filterUnits="userSpaceOnUse"><feOffset dx="0" dy="0"/><feGaussianBlur result="blur-10" stdDeviation="12"/><feFlood flood-color="ivory" flood-opacity=".8"/><feComposite in2="blur-10" operator="in"/><feComposite in="SourceGraphic"/></filter></defs><g id="large_circle"><circle class="cls-1" cx="305" cy="305" r="300"/></g><g id="name"><g><path class="cls-14" d="M196.5,68.5l-1.9,.8-8.1-19.4,1.9-.8,8.1,19.4Zm8.7-3.7l-1.9,.8-8.1-19.4,1.9-.8,8.1,19.4Zm8.7-3.7l-1.9,.8-8.1-19.4,1.9-.8,8.1,19.4Z"/><path class="cls-14" d="M236.2,34.4l-20.1,5.9-.6-2,20.1-5.9,.6,2Zm2.7,9.1l-20.1,5.9-.6-2,20.1-5.9,.6,2Zm2.7,9.1l-20.1,5.9-.6-2,20.1-5.9,.6,2Z"/><path class="cls-14" d="M260.6,48.8l-2.1,.4-1.7-9.4-9.2,1.6-.4-2.1,9.2-1.6-1.3-7.2-9.2,1.6-.4-2,20.7-3.6,.4,2-9.4,1.7,1.3,7.2,9.4-1.7,.4,2.1-9.4,1.7,1.7,9.4Z"/><path class="cls-14" d="M276.7,27.3v-2.1c2.1-.1,4.4,0,6.5,.6,2.2,.6,4.2,1.4,6,2.6,1.8,1.2,3.4,2.6,4.8,4.2,1.4,1.6,2.5,3.5,3.4,5.6,.8,2.1,1.3,4.3,1.5,6.5h-2.1c-.5-4.5-2.5-8.5-5.8-11.8l-11.5,13h-1.5v-1.4l11.4-13.1c-3.7-2.9-7.9-4.3-12.6-4.3Z"/><path class="cls-14" d="M308.4,39.6c-.9-1.7-1.2-3.4-1.2-5.3,0-1.9,.6-3.6,1.7-5.2s2.3-2.8,4-3.6c1.7-.9,3.4-1.2,5.3-1.2,1.9,0,3.6,.6,5.2,1.7,1.6,1,2.8,2.3,3.6,4s1.2,3.4,1.2,5.3c0,1.9-.6,3.6-1.7,5.2s-2.3,2.8-4,3.6c-1.7,.9-3.4,1.2-5.3,1.2-1.9,0-3.6-.6-5.2-1.7-1.6-1-2.8-2.3-3.6-4Zm1-4.2c.2,2.1,1,3.9,2.5,5.4,1.5,1.5,3.3,2.3,5.5,2.4,2.1,0,4-.5,5.7-1.8,1.6-1.3,2.7-3,3-5.1l-16.7-.8Zm0-2.1l16.7,.8c-.2-2.1-1-3.9-2.5-5.4-1.5-1.5-3.3-2.3-5.5-2.4-2.1,0-4,.5-5.7,1.8-1.6,1.3-2.7,3-3,5.1Z"/><path class="cls-14" d="M350.1,27.6l6.6,20.3-.3,2-20.7-3.3,.3-2h0l11.5-17.4h.4l1.8,.3h.4Zm-1.5,1.7l-10.4,15.7,16.4,2.6-5.9-18.3Z"/><path class="cls-14" d="M371.3,31.6l3.7,20.2,13.8-15.3,1.3,.4-.6,2.3-13.8,15.5-2.6-.7h-.1l-3.7-20.5,.6-2.3,1.5,.3Z"/><path class="cls-14" d="M394,60.5l-1.9-.8,7.8-19.5,1.9,.8-7.8,19.5Zm8.8,3.5l-1.9-.8,7.8-19.5,1.9,.8-7.8,19.5Zm8.8,3.5l-1.9-.8,7.8-19.5,1.9,.8-7.8,19.5Z"/></g></g><g id="left_top_lettering"><g><path class="cls-14" d="M40.3,205.1l.7-2,8.9,3.4,3.3-8.7,2,.7-3.3,8.7,6.8,2.6,3.3-8.7,1.9,.7-7.5,19.6-1.9-.7,3.4-8.9-6.8-2.6-3.4,8.9-2-.7,3.4-8.9-8.9-3.4Z"/><path class="cls-14" d="M29.8,238.5l5.7-20.2,2,.6-5.7,20.2-2-.6Zm9.1,2.6l5.7-20.2,2,.6-5.7,20.2-2-.6Zm9.1,2.6l5.7-20.2,2,.6-5.7,20.2-2-.6Z"/><path class="cls-14" d="M24.9,263.7l.4-2.1,20.6,3.8-.4,2.1-20.6-3.8Zm1.7-9.3l.4-2.1,20.6,3.8-.4,2.1-20.6-3.8Zm1.7-9.3l.4-2.1,20.6,3.8-.4,2.1-20.6-3.8Z"/><path class="cls-14" d="M24.4,289.3l-2.1-.2,.2-2.1,1.6-16.7,.2-2.1,2.1,.2,7.7,.7,2.1,.2,9,.8-.2,2.1-9-.8-1.6,16.7,9,.8-.2,2.1-18.8-1.8Zm.2-2.1l7.7,.7,1.6-16.7-7.7-.7-1.6,16.7Z"/><path class="cls-14" d="M43.2,295.3l-18.5,8.9,18.4,9.3v1.4h-2.5l-18.5-9.3v-2.7h0l18.7-9h2.4v1.5Z"/><path class="cls-14" d="M24,340.3l-1.6-18.8-.2-2.1,2.1-.2,7.3-.6h1l1-.2,1.6,18.8,7.3-.6-1.6-18.8,2.1-.2,1.6,18.8,.2,2.1-2.1,.2-7.3,.6h-1.1l-1,.2-1.6-18.8-7.3,.6,1.6,18.8-2.1,.2Z"/><path class="cls-14" d="M26.3,354.9l-.4-2.1,20.6-4.3,.4,2.1-20.6,4.3Zm1.9,9.2l-.4-2.1,20.6-4.3,.4,2.1-20.6,4.3Zm1.9,9.2l-.4-2.1,20.6-4.3,.4,2.1-20.6,4.3Z"/><path class="cls-14" d="M36.7,377.6c1.3-1.4,2.8-2.3,4.6-2.9s3.6-.6,5.5-.2c1.8,.4,3.4,1.3,4.8,2.5s2.3,2.8,2.9,4.6c.6,1.8,.6,3.6,.2,5.5-.4,1.8-1.3,3.4-2.5,4.8-1.3,1.4-2.8,2.3-4.6,2.9-1.8,.6-3.6,.6-5.5,.2-1.8-.4-3.4-1.3-4.8-2.5-1.4-1.3-2.3-2.8-2.9-4.6-.6-1.8-.6-3.6-.2-5.5,.4-1.8,1.3-3.4,2.5-4.8Zm4.3-.5c-1.9,.9-3.3,2.3-4.2,4.2-.9,1.9-1,3.9-.4,5.9s1.8,3.6,3.7,4.7c1.8,1.1,3.8,1.5,5.8,1.1l-4.9-15.9Zm2-.6l4.9,15.9c1.9-.9,3.3-2.3,4.2-4.2s1-3.9,.4-5.9c-.6-2-1.8-3.6-3.6-4.7-1.8-1.1-3.7-1.5-5.8-1.1Z"/><path class="cls-14" d="M55.5,418.2l-15.7-14-.8-1.9,19.4-8,.8,1.9h0l-1.3,21-.4,.2-1.7,.7-.4,.2Zm-7.5-9.5l8.6-3.5,.5-8.1-15.2,6.2,6.1,5.4Zm1.8,1.6l6.2,5.5,.5-8.3-6.7,2.7Z"/><path class="cls-14" d="M58.6,444.5l-9.7-18.6,1.9-1,9.7,18.6-1.9,1Zm8.4-4.3l-9.7-18.6,1.9-1,9.7,18.6-1.9,1Zm8.4-4.3l-9.7-18.6,1.9-1,9.7,18.6-1.9,1Z"/><path class="cls-14" d="M76.7,438.3l1.8-1.1c1.2,1.9,2.1,4,2.7,6.2s.7,4.3,.6,6.5c-.2,2.1-.6,4.2-1.4,6.2-.8,2-1.8,3.9-3.3,5.6-1.4,1.7-3.1,3.2-5,4.5l-1.1-1.8c3.8-2.7,6.4-6.4,7.6-10.9l-17-3.8-.8-1.3,1.3-.8,17,3.8c.8-4.6,0-9-2.3-13.1Z"/><path class="cls-14" d="M89.7,458.3l1.6-1.3,1.3,1.6h0l10.3,13.3,1.3,1.6-1.6,1.3-15,11.6-1.3-1.6,15-11.6-10.3-13.3-15,11.6-1.3-1.6,15-11.6Z"/><path class="cls-14" d="M98.3,498.4l-1.4-1.5,7-6.5-6.4-6.9,1.5-1.4,6.4,6.9,5.3-4.9-6.4-6.9,1.5-1.4,14.3,15.4-1.5,1.4-6.5-7-5.3,4.9,6.5,7-1.5,1.4-6.5-7-7,6.5Z"/><path class="cls-14" d="M112.6,505.7c.4-1.8,1.2-3.4,2.5-4.9,1.3-1.4,2.8-2.4,4.6-3,1.8-.6,3.6-.7,5.4-.3,1.8,.4,3.4,1.2,4.9,2.5s2.4,2.8,3,4.6c.6,1.8,.7,3.6,.3,5.4-.4,1.8-1.2,3.4-2.5,4.9-1.3,1.4-2.8,2.4-4.6,3-1.8,.6-3.6,.7-5.4,.3-1.8-.4-3.4-1.2-4.9-2.5-1.4-1.3-2.4-2.8-3-4.6-.6-1.8-.7-3.6-.3-5.4Zm3.4-2.6c-1.2,1.7-1.7,3.6-1.4,5.7,.2,2.1,1.1,3.9,2.7,5.3,1.6,1.4,3.4,2.1,5.6,2.1,2.1,0,4-.7,5.6-2l-12.4-11.1Zm1.4-1.6l12.4,11.1c1.2-1.7,1.7-3.6,1.4-5.7s-1.2-3.9-2.7-5.3c-1.6-1.4-3.4-2.1-5.5-2.2-2.1,0-4,.7-5.6,2Z"/><path class="cls-14" d="M138.6,510.4l1.3-1.7c1.8,1.4,3.4,3,4.7,4.8,1.3,1.8,2.2,3.8,2.8,5.9,.6,2.1,.9,4.2,.9,6.3s-.3,4.3-1.1,6.4c-.7,2.1-1.7,4.1-3.1,5.9l-1.7-1.3c2.6-3.9,3.7-8.2,3.3-12.9l-17.2,2.5-1.2-.9,.9-1.2,17.2-2.5c-.9-4.6-3.2-8.4-6.8-11.4Z"/><path class="cls-14" d="M158.5,541.2c0-1.9,.5-3.6,1.4-5.3,.9-1.7,2.2-2.9,3.8-3.9,1.6-.9,3.4-1.4,5.2-1.4,1.9,0,3.6,.5,5.3,1.4,1.7,.9,2.9,2.2,3.9,3.8,.9,1.6,1.4,3.4,1.4,5.2,0,1.9-.5,3.6-1.4,5.3-.9,1.7-2.2,2.9-3.8,3.9-1.6,.9-3.4,1.4-5.2,1.4-1.9,0-3.6-.5-5.3-1.4-1.7-.9-2.9-2.2-3.9-3.8s-1.4-3.4-1.4-5.2Zm2.8-3.3c-.8,1.9-.9,3.9-.2,5.9,.7,2,1.9,3.5,3.8,4.6,1.8,1.1,3.8,1.4,5.9,.9s3.7-1.5,5-3.2l-14.5-8.3Zm1.1-1.8l14.5,8.3c.8-1.9,.9-3.9,.2-5.9-.7-2-1.9-3.5-3.8-4.6-1.8-1.1-3.8-1.4-5.9-1-2.1,.4-3.7,1.5-5,3.2Z"/><path class="cls-14" d="M178.9,558.5l-1.9-.9,8.8-19.1,1.9,.9-8.8,19.1Zm8.6,4l-1.9-.9,8.8-19.1,1.9,.9-8.8,19.1Zm8.6,4l-1.9-.9,8.8-19.1,1.9,.9-8.8,19.1Z"/><path class="cls-14" d="M218,552.1l2.8,21.2-.7,1.9-19.8-7,.7-1.9h0l14.5-15h.4l1.7,.7h.4Zm-1.8,1.5l-13.1,13.5,15.6,5.6-2.5-19.1Z"/><path class="cls-14" d="M249.5,563.4l-9.2-2.4-4.2,16.3,9.2,2.4-.5,2-9.2-2.4-2-.5-9.2-2.4,.5-2,9.2,2.4,4.2-16.3-9.2-2.4,.5-2,9.2,2.4,2,.5,9.2,2.4-.5,2Z"/><path class="cls-14" d="M270,586.1l-18.6-3-2.1-.3,.3-2.1,1.2-7.2,.2-1,.2-1,18.6,3,1.2-7.2-18.6-3,.3-2.1,18.6,3,2.1,.3-.3,2.1-1.2,7.2-.2,1.1-.2,1-18.6-3-1.2,7.2,18.6,3-.3,2.1Z"/></g></g><g id="right_top_lettering"><g><path class="cls-14" d="M372.6,577.9l.4,2.1-2.1,.4-16.4,3.4-2.1,.4-.4-2.1-1.6-7.6-.4-2.1-1.8-8.8,2.1-.4,1.8,8.8,16.4-3.4-1.8-8.8,2.1-.4,3.9,18.5Zm-2.1,.4l-1.6-7.6-16.4,3.4,1.6,7.6,16.4-3.4Z"/><path class="cls-14" d="M373,560.5l-.6-2c2.2-.7,4.4-1,6.6-.9,2.2,0,4.4,.4,6.4,1.2,2,.7,3.9,1.7,5.7,3,1.7,1.3,3.3,2.8,4.6,4.6,1.3,1.8,2.3,3.8,3,6l-2,.6c-1.6-4.4-4.5-7.8-8.5-10.2l-8.1,15.4-1.4,.4-.4-1.4,8.1-15.4c-4.3-2-8.7-2.4-13.2-1.2Z"/><path class="cls-14" d="M403.3,565.1c-1.5-1.1-2.6-2.6-3.3-4.3-.7-1.8-1-3.6-.7-5.4,.2-1.8,.9-3.5,2.1-5,1.1-1.5,2.6-2.6,4.3-3.3s3.6-1,5.4-.7c1.8,.2,3.5,.9,5,2.1,1.5,1.1,2.6,2.6,3.3,4.3,.7,1.8,1,3.6,.7,5.4-.2,1.8-.9,3.5-2.1,5-1.1,1.5-2.6,2.6-4.3,3.3-1.8,.7-3.6,1-5.4,.7s-3.5-.9-5-2.1Zm-1.7-6.1l15.4-6.4c-1-1.8-2.6-3.1-4.6-3.8-2-.7-4-.6-5.9,.2-2,.8-3.4,2.2-4.3,4.1s-1.1,3.9-.6,5.9Zm.8,2c1,1.8,2.6,3.1,4.6,3.8,2,.7,4,.6,5.9-.2,2-.8,3.4-2.2,4.3-4.1,.9-1.9,1.1-3.9,.6-5.9l-15.4,6.4Z"/><path class="cls-14" d="M424.2,551.7h0l-.5-1v-.2l-.5-.7h0l14.2-18.1h0l1,1.9-10.9,13.8,14.2-7.5,1,1.8-14.2,7.5,17.6-1.2,1,2h0l-22.9,1.6Z"/><path class="cls-14" d="M441.7,528.7l17.6,10.5-2.5-20.5,1.2-.7,1.3,2,2.6,20.6-2.2,1.5h-.1l-17.8-10.6-1.3-2,1.2-.9Z"/><path class="cls-14" d="M462.4,517.5l-1.3-1.7c1.8-1.4,3.7-2.5,5.8-3.3,2.1-.8,4.2-1.2,6.4-1.3,2.2,0,4.3,.2,6.4,.7,2.1,.5,4.1,1.4,6,2.6,1.9,1.2,3.5,2.7,5,4.5l-1.7,1.3c-3.1-3.5-7-5.6-11.7-6.4l-1.9,17.3-1.2,.9-.9-1.2,1.9-17.3c-4.7-.3-8.9,1-12.8,3.7Z"/><path class="cls-14" d="M481.7,501.7l-1.5-1.5,1.5-1.5h0l12-11.7,1.5-1.5,1.5,1.5,13.2,13.6-1.5,1.5-13.2-13.6-12,11.7,13.2,13.6-1.5,1.5-13.2-13.6Z"/><path class="cls-14" d="M521.2,487.7l-1.4,1.6-7.3-6.2-6,7.1-1.6-1.4,6-7.1-5.5-4.7-6,7.1-1.6-1.3,13.6-16,1.6,1.3-6.2,7.3,5.5,4.7,6.2-7.3,1.6,1.4-6.2,7.3,7.3,6.2Z"/><path class="cls-14" d="M527.4,471.8c-1.9-.2-3.6-.8-5.1-1.9s-2.7-2.5-3.5-4.2c-.8-1.7-1.1-3.5-.9-5.3s.8-3.6,1.9-5.1c1.1-1.6,2.5-2.7,4.2-3.5,1.7-.8,3.5-1.1,5.3-.9,1.9,.2,3.6,.8,5.1,1.9,1.6,1.1,2.7,2.5,3.5,4.2,.8,1.7,1.1,3.5,.9,5.3-.2,1.9-.8,3.6-1.9,5.1-1.1,1.6-2.5,2.7-4.2,3.5-1.7,.8-3.5,1.1-5.3,.9Zm-4.8-4.3l9.5-13.7c-1.9-1-3.8-1.2-5.9-.7-2.1,.5-3.7,1.6-4.9,3.4-1.2,1.7-1.7,3.7-1.5,5.8,.2,2.1,1.1,3.9,2.7,5.3Zm1.7,1.2c1.9,1,3.8,1.2,5.9,.7,2.1-.5,3.7-1.6,4.9-3.4,1.2-1.7,1.7-3.7,1.5-5.8-.2-2.1-1.1-3.9-2.7-5.3l-9.5,13.7Z"/><path class="cls-14" d="M529.5,444.6l-1.8-1c1.1-2,2.5-3.7,4.2-5.2,1.7-1.5,3.5-2.7,5.5-3.5,2-.9,4-1.4,6.2-1.7,2.1-.3,4.3-.2,6.5,.2,2.2,.4,4.3,1.2,6.3,2.4l-1,1.8c-4.2-2.1-8.6-2.7-13.2-1.7l4.6,16.8-.7,1.3-1.3-.7-4.6-16.8c-4.5,1.5-8,4.2-10.5,8.2Z"/><path class="cls-14" d="M567.2,411.7l-.8,1.9-8.8-3.6-3.6,8.6-1.9-.8,3.6-8.6-6.7-2.8-3.6,8.6-1.9-.8,8-19.4,1.9,.8-3.6,8.8,6.7,2.8,3.6-8.8,1.9,.8-3.6,8.8,8.8,3.6Z"/><path class="cls-14" d="M560.8,371.9l-6.1,20.1-2-.6,6.1-20.1,2,.6Zm9,2.8l-6.1,20.1-2-.6,6.1-20.1,2,.6Zm9,2.8l-6.1,20.1-2-.6,6.1-20.1,2,.6Z"/><path class="cls-14" d="M580.7,369.8l-.4,2.1-20.6-4.2,.4-2.1,20.6,4.2Zm1.9-9.3l-.4,2.1-20.6-4.2,.4-2.1,20.6,4.2Zm1.9-9.3l-.4,2.1-20.6-4.2,.4-2.1,20.6,4.2Z"/><path class="cls-14" d="M585.5,324.6l2.1,.2-.2,2.1-1.8,16.7-.2,2.1-2.1-.2-7.7-.8-2.1-.2-9-1,.2-2.1,9,1,1.8-16.7-9-1,.2-2.1,18.8,2Zm-.2,2.1l-7.7-.8-1.8,16.7,7.7,.8,1.8-16.7Z"/><path class="cls-14" d="M582.7,317.7c-1.6,.9-3.4,1.4-5.3,1.3s-3.7-.5-5.3-1.5c-1.6-1-2.9-2.2-3.8-3.9-.9-1.6-1.4-3.4-1.3-5.3,0-1.9,.5-3.7,1.5-5.3,1-1.6,2.2-2.9,3.9-3.8,1.6-.9,3.4-1.4,5.3-1.3,1.9,0,3.7,.5,5.3,1.5,1.6,1,2.9,2.2,3.8,3.9,.9,1.6,1.4,3.4,1.3,5.3,0,1.9-.5,3.7-1.5,5.3s-2.2,2.9-3.9,3.8Zm-6.3-.8l.2-16.7c-2.1,.2-3.8,1.1-5.3,2.7-1.4,1.6-2.1,3.4-2.2,5.5,0,2.1,.7,4,2,5.6,1.4,1.6,3.1,2.5,5.2,2.8Zm2.1,0c2.1-.2,3.8-1.1,5.3-2.7s2.2-3.4,2.2-5.5c0-2.1-.7-4-2-5.6-1.4-1.6-3.1-2.5-5.2-2.8l-.2,16.7Z"/><path class="cls-14" d="M569.2,294l-2.1,.2c-.2-2.3,0-4.5,.5-6.7,.5-2.2,1.4-4.2,2.5-6,1.1-1.8,2.5-3.4,4.1-4.9,1.6-1.4,3.5-2.6,5.5-3.5,2.1-.9,4.2-1.4,6.5-1.6l.2,2.1c-4.7,.6-8.6,2.7-11.8,6.1l13.3,11.3v1.5h-1.4l-13.3-11.1c-2.8,3.7-4.2,8-4.1,12.7Z"/><path class="cls-14" d="M563.2,248.5l1.7,9.3,16.5-2.9-1.7-9.3,2.1-.4,1.7,9.3,.4,2.1,1.7,9.3-2.1,.4-1.7-9.3-16.5,2.9,1.7,9.3-2.1,.4-1.7-9.3-.4-2.1-1.7-9.3,2.1-.4Z"/><path class="cls-14" d="M575,219.4l5,18.2,.6,2-2,.6-7.1,2-1,.3-1,.3-5-18.2-7.1,2,5,18.2-2,.6-5-18.2-.6-2,2-.6,7.1-2,1-.3,1-.3,5,18.2,7.1-2-5-18.2,2-.6Z"/></g></g><g id="small_circle"><circle class="cls-11" cx="305" cy="305" r="250"/></g><g id="constellation"><line class="cls-12" x1="313.9" y1="309.4" x2="378.4" y2="270.3"/><line class="cls-12" x1="198.8" y1="278.5" x2="234.9" y2="292.1"/><line class="cls-12" x1="305.3" y1="344.3" x2="305.5" y2="325.1"/><line class="cls-12" x1="304.6" y1="304.1" x2="304.7" y2="294.2"/><line class="cls-12" x1="335" y1="325" x2="315.7" y2="318"/><line class="cls-12" x1="285.3" y1="328.5" x2="296.7" y2="320"/><circle class="cls-3" cx="245" cy="295" r="10"/><circle class="cls-6" cx="385" cy="264.8" r="8"/><circle class="cls-7" cx="465" cy="215" r="10"/><circle class="cls-4" cx="305" cy="355" r="10"/><circle class="cls-8" cx="305" cy="405" r="10"/><circle class="cls-2" cx="185.4" cy="274.6" r="12.5"/><circle class="cls-5" cx="305" cy="315" r="10"/><circle class="cls-10" cx="305" cy="285" r="10"/><circle class="cls-9" cx="352.5" cy="331.3" r="16.3"/><circle class="cls-13" cx="275" cy="335" r="10"/><line class="cls-12" x1="257" y1="299.5" x2="293.2" y2="312"/><line class="cls-12" x1="392.1" y1="261.4" x2="456.3" y2="221.5"/><line class="cls-12" x1="304.9" y1="394.8" x2="305.3" y2="366.1"/></g></svg>