<?xml version="1.0" encoding="UTF-8"?><svg xmlns="http://www.w3.org/2000/svg" xmlns:xlink="http://www.w3.org/1999/xlink" viewBox="0 0 610 610"><defs><style>.cls-1{stroke-width:5px;}.cls-1,.cls-2,.cls-3,.cls-4,.cls-5,.cls-6,.cls-7,.cls-8,.cls-9,.cls-10,.cls-11,.cls-12,.cls-13,.cls-14,.cls-15{stroke-miterlimit:10;}.cls-1,.cls-2,.cls-3,.cls-4,.cls-5,.cls-6,.cls-7,.cls-8,.cls-9,.cls-10,.cls-11,.cls-14,.cls-15{stroke:#000;}.cls-1,.cls-12{fill:#231f20;}.cls-2{filter:url(#drop-shadow-9);}.cls-2,.cls-3,.cls-4,.cls-5,.cls-6,.cls-7,.cls-8,.cls-9,.cls-10,.cls-11,.cls-12,.cls-13,.cls-14,.cls-15{stroke-width:2px;}.cls-2,.cls-3,.cls-4,.cls-5,.cls-6,.cls-7,.cls-8,.cls-9,.cls-10,.cls-11,.cls-14,.cls-15{fill:#fff;}.cls-3{filter:url(#drop-shadow-6);}.cls-4{filter:url(#drop-shadow-8);}.cls-5{filter:url(#drop-shadow-2);}.cls-6{filter:url(#drop-shadow-1);}.cls-7{filter:url(#drop-shadow-3);}.cls-8{filter:url(#drop-shadow-5);}.cls-9{filter:url(#drop-shadow-7);}.cls-10{filter:url(#drop-shadow-4);}.cls-16{fill:ivory;}.cls-12,.cls-13{stroke:ivory;}.cls-13{fill:none;}.cls-14{filter:url(#drop-shadow-10);}.cls-15{filter:url(#drop-shadow-11);}</style><filter id="drop-shadow-1" filterUnits="userSpaceOnUse"><feOffset dx="0" dy="0"/><feGaussianBlur result="blur" stdDeviation="12"/><feFlood flood-color="ivory" flood-opacity=".8"/><feComposite in2="blur" operator="in"/><feComposite in="SourceGraphic"/></filter><filter id="drop-shadow-2" filterUnits="userSpaceOnUse"><feOffset dx="0" dy="0"/><feGaussianBlur result="blur-2" stdDeviation="12"/><feFlood flood-color="ivory" flood-opacity=".8"/><feComposite in2="blur-2" operator="in"/><feComposite in="SourceGraphic"/></filter><filter id="drop-shadow-3" filterUnits="userSpaceOnUse"><feOffset dx="0" dy="0"/><feGaussianBlur result="blur-3" stdDeviation="12"/><feFlood flood-color="ivory" flood-opacity=".8"/><feComposite in2="blur-3" operator="in"/><feComposite in="SourceGraphic"/></filter><filter id="drop-shadow-4" filterUnits="userSpaceOnUse"><feOffset dx="0" dy="0"/><feGaussianBlur result="blur-4" stdDeviation="12"/><feFlood flood-color="ivory" flood-opacity=".8"/><feComposite in2="blur-4" operator="in"/><feComposite in="SourceGraphic"/></filter><filter id="drop-shadow-5" filterUnits="userSpaceOnUse"><feOffset dx="0" dy="0"/><feGaussianBlur result="blur-5" stdDeviation="12"/><feFlood flood-color="ivory" flood-opacity=".8"/><feComposite in2="blur-5" operator="in"/><feComposite in="SourceGraphic"/></filter><filter id="drop-shadow-6" filterUnits="userSpaceOnUse"><feOffset dx="0" dy="0"/><feGaussianBlur result="blur-6" stdDeviation="12"/><feFlood flood-color="ivory" flood-opacity=".8"/><feComposite in2="blur-6" operator="in"/><feComposite in="SourceGraphic"/></filter><filter id="drop-shadow-7" filterUnits="userSpaceOnUse"><feOffset dx="0" dy="0"/><feGaussianBlur result="blur-7" stdDeviation="12"/><feFlood flood-color="ivory" flood-opacity=".8"/><feComposite in2="blur-7" operator="in"/><feComposite in="SourceGraphic"/></filter><filter id="drop-shadow-8" filterUnits="userSpaceOnUse"><feOffset dx="0" dy="0"/><feGaussianBlur result="blur-8" stdDeviation="12"/><feFlood flood-color="ivory" flood-opacity=".8"/><feComposite in2="blur-8" operator="in"/><feComposite in="SourceGraphic"/></filter><filter id="drop-shadow-9" filterUnits="userSpaceOnUse"><feOffset dx="0" dy="0"/><feGaussianBlur result="blur-9" stdDeviation="12"/><feFlood flood-color="ivory" flood-opacity=".8"/><feComposite in2="blur-9" operator="in"/><feComposite in="SourceGraphic"/></filter><filter id="drop-shadow-10" filterUnits="userSpaceOnUse"><feOffset dx="0" dy="0"/><feGaussianBlur result="blur-10" stdDeviation="12"/><feFlood flood-color="ivory" flood-opacity=".8"/><feComposite in2="blur-10" operator="in"/><feComposite in="SourceGraphic"/></filter><filter id="drop-shadow-11" filterUnits="userSpaceOnUse"><feOffset dx="0" dy="0"/><feGaussianBlur result="blur-11" stdDeviation="12"/><feFlood flood-color="ivory" flood-opacity=".8"/><feComposite in2="blur-11" operator="in"/><feComposite in="SourceGraphic"/></filter></defs><g id="large_circle"><circle class="cls-1" cx="305" cy="305" r="300"/></g><g id="left_text"><g><path class="cls-16" d="M45.3,377.1h0l-1,.3h-.2l-.8,.2h0l-13.8-18.3h0l2.2-.6,10.6,14-3.7-15.6,2-.5,3.7,15.7,3.3-17.3,2.2-.5h0l-4.2,22.6Z"/><path class="cls-16" d="M29.7,351.2l-2.1,.3c-.3-2.3-.2-4.5,.2-6.7,.4-2.2,1.2-4.3,2.2-6.1,1.1-1.9,2.4-3.6,3.9-5.1,1.5-1.5,3.3-2.7,5.3-3.7,2-1,4.2-1.6,6.4-1.9l.3,2.1c-4.6,.9-8.5,3.1-11.5,6.6l13.8,10.6,.2,1.5-1.5,.2-13.8-10.6c-2.7,3.9-3.8,8.2-3.5,12.8Z"/><path class="cls-16" d="M25.8,301.7l.6,21h-2.1l-.6-20.9h2.1Zm9.4-.3l.6,21h-2.1l-.6-20.9h2.1Zm9.4-.3l.6,21h-2.1l-.6-20.9h2.1Z"/><path class="cls-16" d="M25.9,294l-2.1-.2v-2.1h.2l1.3-16.8,.2-2.1,2.1,.2,18.9,1.4-.2,2.1-18.9-1.4-1.3,16.8,18.9,1.4-.2,2.1-18.9-1.4Z"/><path class="cls-16" d="M28.6,252.2l20-4.7-16-13,.3-1.3,2.4,.5,16.1,13-.5,2.7h0l-20.2,4.8-2.3-.5,.2-1.5Z"/><path class="cls-16" d="M43.8,206.3l-6.7,19.9-2-.7,6.7-19.9,2,.7Zm9,3l-6.7,19.9-2-.7,6.7-19.9,2,.7Zm9,3l-6.7,19.9-2-.7,6.7-19.9,2,.7Z"/><path class="cls-16" d="M46.7,199.1l-1.9-.9c.9-2.1,2.2-3.9,3.7-5.6,1.5-1.6,3.2-3,5.1-4,1.9-1,3.9-1.8,6-2.2,2.1-.5,4.3-.6,6.5-.3,2.2,.2,4.4,.8,6.5,1.8l-.9,1.9c-4.4-1.7-8.8-1.9-13.3-.5l6.1,16.3-.6,1.4-1.4-.6-6.1-16.3c-4.3,1.9-7.5,4.9-9.7,9.1Z"/><path class="cls-16" d="M69.4,155.1l-4.7,8.2,14.6,8.4,4.7-8.2,1.8,1-4.7,8.2-1,1.8-4.7,8.2-1.8-1,4.7-8.2-14.6-8.4-4.7,8.2-1.8-1,4.7-8.2,1-1.8,4.7-8.2,1.8,1Z"/><path class="cls-16" d="M95.8,150.5l-1.2,1.7-7.7-5.6-5.5,7.5-1.7-1.2,5.5-7.5-5.9-4.3-5.5,7.5-1.7-1.2,12.4-17,1.7,1.2-5.6,7.7,5.9,4.3,5.6-7.7,1.7,1.2-5.6,7.7,7.7,5.6Z"/><path class="cls-16" d="M105.1,110.1l-14.1,15.6-1.6-1.4,14.1-15.6,1.6,1.4Zm7,6.3l-14.1,15.6-1.6-1.4,14.1-15.6,1.6,1.4Zm7,6.3l-14.1,15.6-1.6-1.4,14.1-15.6,1.6,1.4Z"/><path class="cls-16" d="M124.8,117.2l-1.6,1.4-14-15.6,1.6-1.4,14,15.6Zm7-6.3l-1.6,1.4-14-15.6,1.6-1.4,14,15.6Zm7-6.3l-1.6,1.4-14-15.6,1.6-1.4,14,15.6Z"/><path class="cls-16" d="M161.2,88.2l-1.7,1.2-5.3-7.9-7.8,5.2-1.2-1.7,7.8-5.2-4-6-7.8,5.2-1.2-1.7,17.5-11.7,1.2,1.7-7.9,5.3,4,6,7.9-5.3,1.2,1.7-7.9,5.3,5.3,7.9Z"/><path class="cls-16" d="M165.7,60.5l16.5,12.2-.5-20.6,1.2-.6,1.1,2.1,.5,20.7-2.4,1.3h-.1l-16.7-12.3-1.1-2.1,1.3-.8Z"/><path class="cls-16" d="M190.9,50.1l-.8-1.9,1.9-.8h0l15.6-6.2,1.9-.8,.8,1.9,7.1,17.6-1.9,.8-7.1-17.6-15.6,6.3,7.1,17.6-1.9,.8-7.1-17.6Z"/><path class="cls-16" d="M225,57.4l-2,.6-5.8-20.2,2-.6,5.8,20.2Zm9.1-2.6l-2,.6-5.8-20.2,2-.6,5.8,20.2Zm9.1-2.6l-2,.6-5.8-20.2,2-.6,5.8,20.2Z"/></g></g><g id="name"><g><path class="cls-16" d="M193.6,559.7c-.3-1.8,0-3.6,.6-5.4s1.8-3.2,3.3-4.4c1.5-1.1,3.1-1.9,5-2.1,1.8-.3,3.6,0,5.4,.6,1.8,.7,3.2,1.8,4.4,3.3,1.1,1.5,1.9,3.1,2.1,5s0,3.6-.6,5.4c-.7,1.8-1.8,3.2-3.3,4.4s-3.1,1.9-5,2.1c-1.8,.3-3.6,0-5.4-.6-1.8-.7-3.2-1.8-4.4-3.3-1.1-1.5-1.9-3.1-2.1-5Zm2.3-3.6c-.5,2-.3,4,.6,5.9,.9,1.9,2.4,3.2,4.4,4s4,.8,6,.1c2-.7,3.5-2,4.5-3.8l-15.5-6.2Zm.8-2l15.5,6.2c.5-2,.3-4-.6-5.9s-2.4-3.2-4.4-4-4-.8-5.9-.1c-2,.7-3.5,2-4.5,3.8Z"/><path class="cls-16" d="M242.3,571.7h0l-17.2,2.7,15.4,4.2-.6,2-20.2-5.6,.6-2h0l20-3.2-15.5-13h0v-.2l.6-1.8,20.2,5.6-.6,2-15.4-4.3,13.5,11.2h0l-.6,2.2h0Z"/><path class="cls-16" d="M270.6,586.1l-18.6-3-2.1-.3,.3-2.1,1.2-7.2,.2-1,.2-1,18.6,3,1.2-7.2-18.6-3,.3-2.1,18.6,3,2.1,.3-.3,2.1-1.2,7.2-.2,1.1-.2,1-18.6-3-1.2,7.2,18.6,3-.3,2.1Z"/><path class="cls-16" d="M281.3,577.9h0v-2.1h.1l21.4-8.3h0v2.2l-16.5,6.3,16,.8v2.1l-16.2-.8,15.7,7.9v2.2h-.2l-20.5-10.3Z"/><path class="cls-16" d="M312.4,566.9l10.1,17.9,8.1-19h1.4v2.4l-7.9,19.1-2.7,.2h-.1l-10.1-18.1v-2.3l1.3-.2Z"/><path class="cls-16" d="M340.1,567.1l-.4-2.1c2.2-.4,4.5-.4,6.7,0,2.2,.3,4.3,1,6.2,2,1.9,1,3.7,2.2,5.2,3.7,1.6,1.5,2.9,3.2,3.9,5.2,1.1,2,1.8,4.1,2.2,6.3l-2.1,.4c-1-4.6-3.4-8.3-7.1-11.2l-10,14.2-1.5,.3-.3-1.5,10-14.2c-4-2.5-8.3-3.5-13-2.9Z"/><path class="cls-16" d="M373.9,574.4c-1.3-1.3-2.3-2.8-2.8-4.7-.5-1.8-.6-3.6-.1-5.5,.5-1.8,1.3-3.4,2.6-4.7s2.8-2.3,4.7-2.8c1.8-.5,3.6-.6,5.5-.1,1.8,.5,3.4,1.3,4.7,2.6,1.3,1.3,2.3,2.8,2.8,4.7,.5,1.8,.6,3.6,.1,5.5-.5,1.8-1.3,3.4-2.6,4.7s-2.8,2.3-4.7,2.8c-1.8,.5-3.6,.6-5.5,.1-1.8-.5-3.4-1.3-4.7-2.6Zm-1-6.3l16-4.6c-.8-1.9-2.2-3.3-4.1-4.2-1.9-.9-3.9-1.1-5.9-.5-2,.6-3.6,1.8-4.8,3.6s-1.5,3.7-1.2,5.8Zm.6,2c.8,1.9,2.2,3.3,4.1,4.3,1.9,.9,3.9,1.1,5.9,.5,2-.6,3.6-1.8,4.8-3.6,1.1-1.8,1.5-3.7,1.2-5.8l-16,4.6Z"/><path class="cls-16" d="M423.3,562.4l-17.4,7.2-1.9,.8-.8-2-2.8-6.8-.4-1-.4-1,17.4-7.2-2.8-6.8-17.4,7.2-.8-1.9,17.4-7.2,1.9-.8,.8,1.9,2.8,6.8,.4,1,.4,.9-17.4,7.2,2.8,6.8,17.4-7.2,.8,2Z"/></g></g><g id="right_text"><g><path class="cls-16" d="M376.6,45.4l-20.5,4.6-2-.5,4.8-20.4,2,.5h0l16.3,13.2v.4l-.5,1.8v.4Zm-12.1,.6l2.1-9.1-6.3-5.1-3.7,15.9,7.9-1.8Zm2.3-.5l8.1-1.8-6.5-5.2-1.7,7.1Z"/><path class="cls-16" d="M381,50.8c-.4-1.8-.3-3.6,.3-5.4,.6-1.8,1.6-3.3,3-4.5,1.4-1.2,3-2,4.8-2.4s3.6-.3,5.4,.3c1.8,.6,3.3,1.6,4.5,3s2,3,2.4,4.8,.3,3.6-.3,5.4c-.6,1.8-1.6,3.3-3,4.5-1.4,1.2-3,2-4.8,2.4s-3.6,.3-5.4-.3-3.3-1.6-4.5-3c-1.2-1.4-2-3-2.4-4.8Zm2.1-3.8c-.4,2.1,0,4,1,5.8,1.1,1.8,2.6,3.1,4.6,3.8,2,.7,4,.6,5.9-.2,1.9-.8,3.4-2.2,4.3-4.1l-15.8-5.3Zm.7-2l15.8,5.3c.4-2.1,0-4-1-5.8-1.1-1.8-2.6-3.1-4.6-3.8-2-.7-4-.6-5.9,.2-1.9,.8-3.4,2.2-4.3,4.1Z"/><path class="cls-16" d="M403.3,64.2l-1.9-.9,8.5-19.2,1.9,.9-8.5,19.2Zm8.6,3.8l-1.9-.9,8.5-19.2,1.9,.9-8.5,19.2Zm8.6,3.8l-1.9-.9,8.5-19.2,1.9,.9-8.5,19.2Z"/><path class="cls-16" d="M451.5,67.4l-8.2-4.6-8.3,14.6,8.2,4.6-1,1.8-8.2-4.6-1.8-1-8.2-4.6,1-1.8,8.2,4.6,8.3-14.6-8.2-4.6,1-1.8,8.2,4.6,1.8,1,8.2,4.6-1,1.8Z"/><path class="cls-16" d="M466.6,75.1l-2.9,21.2-1.2,1.7-17.2-12,1.1-1.6h0l18-10.6,.3,.2,1.5,1,.3,.2Zm-2.1,.8l-16.2,9.6,13.6,9.5,2.6-19.1Z"/><path class="cls-16" d="M480.4,85.1l-5.2,19.9,19-8.1,1,.9-1.6,1.8-19,8.2-2.1-1.7h0l5.3-20.2,1.5-1.8,1.2,.9Z"/><path class="cls-16" d="M498.9,131.4l-13.1-13.6-1.5-1.5,1.5-1.5,5.3-5.1,.8-.7,.8-.7,13.1,13.5,5.3-5.1-13.1-13.6,1.5-1.5,13.1,13.6,1.5,1.5-1.5,1.5-5.3,5.1-.8,.7-.7,.7-13.1-13.6-5.3,5.1,13.1,13.6-1.5,1.5Z"/><path class="cls-16" d="M508.1,142.4l-1.3-1.7,16.8-12.6,1.3,1.7-16.8,12.6Zm5.7,7.6l-1.3-1.7,16.8-12.6,1.3,1.7-16.8,12.6Zm5.7,7.6l-1.3-1.7,16.8-12.6,1.3,1.7-16.8,12.6Z"/><path class="cls-16" d="M532.4,178.5l-10.9-17.9,1.8-1.1,10.9,17.9-1.8,1.1Zm8.1-4.9l-10.9-17.9,1.8-1.1,10.9,17.9-1.8,1.1Zm8.1-4.9l-10.9-17.9,1.8-1.1,10.9,17.9-1.8,1.1Z"/><path class="cls-16" d="M558.1,182.7l-12.8,17.1-1.8,.9-9.2-18.9,1.8-.9h0l20.9-.5,.2,.3,.8,1.6,.2,.3Zm-2.2-.3l-18.8,.5,7.2,14.9,11.6-15.4Z"/><path class="cls-16" d="M560.9,220.5l-15.2-14.5-.7-2,19.7-7.4,.7,1.9h0l-1.9,20.9h-.4l-1.8,.8h-.4Zm-7.2-9.5l8.7-3.3,.7-8.1-15.3,5.8,5.9,5.6Zm1.7,1.6l6,5.7,.8-8.3-6.8,2.5Z"/><path class="cls-16" d="M571.7,222.4l2-.5,.6,2h0l4.4,16.2,.5,2-2,.5-18.3,4.9-.5-2,18.3-4.9-4.4-16.2-18.3,4.9-.5-2,18.3-5Z"/><path class="cls-16" d="M568.9,249.6h0l1-.2h.2l.8-.2h0l12.6,19.1h0l-2.2,.4-9.7-14.7,2.7,15.8-2,.3-2.7-15.9-4.3,17.1-2.2,.4h0l5.7-22.3Z"/><path class="cls-16" d="M584,295.2l-.7-9.4-16.8,1.2,.7,9.4-2.1,.2-.7-9.4-.2-2.1-.7-9.4,2.1-.2,.7,9.4,16.8-1.2-.7-9.4,2.1-.2,.7,9.4,.2,2.1,.7,9.4-2.1,.2Z"/><path class="cls-16" d="M570.5,301.8c1.6-.9,3.4-1.3,5.3-1.3s3.6,.6,5.2,1.5c1.6,1,2.8,2.3,3.7,3.9,.9,1.6,1.3,3.4,1.3,5.3,0,1.9-.6,3.7-1.5,5.2s-2.3,2.8-3.9,3.7-3.4,1.3-5.3,1.3c-1.9,0-3.7-.6-5.2-1.5-1.6-1-2.8-2.3-3.7-3.9-.9-1.6-1.3-3.4-1.3-5.3,0-1.9,.6-3.7,1.5-5.2,1-1.6,2.3-2.8,3.9-3.7Zm4.2,.9c-2.1,.2-3.9,1.1-5.3,2.7-1.4,1.5-2.2,3.4-2.2,5.5,0,2.1,.6,4,2,5.6,1.4,1.6,3.1,2.6,5.2,2.9l.4-16.7Zm2.1,0l-.4,16.7c2.1-.2,3.9-1.1,5.3-2.7,1.4-1.5,2.2-3.4,2.2-5.5,0-2.1-.6-4-2-5.6-1.4-1.6-3.1-2.6-5.2-2.9Z"/><path class="cls-16" d="M583.3,327.2l2.1,.2c-.3,2.3-.9,4.4-1.8,6.5s-2.2,3.8-3.7,5.4-3.2,2.9-5,4c-1.9,1.1-3.9,1.9-6.1,2.3-2.2,.5-4.4,.5-6.7,.3l.2-2.1c4.7,.3,9-.9,12.8-3.6l-10.8-13.7,.2-1.5,1.5,.2,10.8,13.6c3.5-3.1,5.7-7,6.5-11.6Z"/><path class="cls-16" d="M581.8,355.5l-20,4.8,16.1,12.9-.3,1.3-2.4-.5-16.2-12.9,.5-2.7h0l20.2-5,2.3,.5-.2,1.5Z"/><path class="cls-16" d="M549.7,393.7l.6-2,20,6.3-.6,2-20-6.3Zm2.9-9l.6-2,20,6.3-.6,2-20-6.3Zm2.9-9l.6-2,20,6.3-.6,2-20-6.3Z"/></g></g><g id="small_circle"><circle class="cls-12" cx="305" cy="305" r="250"/></g><g id="constellation"><line class="cls-13" x1="411.6" y1="297.2" x2="395.9" y2="260.5"/><line class="cls-13" x1="374.9" y1="298" x2="411.6" y2="297.2"/><line class="cls-13" x1="335.3" y1="246" x2="374.9" y2="298"/><line class="cls-13" x1="395.9" y1="260.5" x2="335.3" y2="246"/><line class="cls-13" x1="310.1" y1="196.8" x2="335.3" y2="246"/><line class="cls-13" x1="260.6" y1="203" x2="310.1" y2="196.8"/><line class="cls-13" x1="225.9" y1="249.8" x2="260.6" y2="203"/><line class="cls-13" x1="245.5" y1="300.5" x2="225.9" y2="249.8"/><line class="cls-13" x1="314.9" y1="317.8" x2="245.5" y2="300.5"/><line class="cls-13" x1="306.9" y1="372.8" x2="314.9" y2="317.8"/><line class="cls-13" x1="245.5" y1="358.8" x2="306.9" y2="372.8"/><line class="cls-13" x1="206.1" y1="410.7" x2="245.5" y2="358.8"/><circle class="cls-6" cx="260.9" cy="204.2" r="13"/><circle class="cls-11" cx="247.8" cy="300.4" r="8.5"/><circle class="cls-5" cx="310.1" cy="196.8" r="10"/><circle class="cls-7" cx="374.9" cy="298" r="10"/><circle class="cls-10" cx="225.9" cy="249.8" r="10"/><circle class="cls-8" cx="411.6" cy="297.2" r="10"/><circle class="cls-3" cx="335.3" cy="246" r="10"/><circle class="cls-9" cx="245.5" cy="358.8" r="10"/><circle class="cls-4" cx="306.9" cy="372.8" r="10"/><circle class="cls-2" cx="392.7" cy="258.8" r="14.7"/><circle class="cls-14" cx="204.9" cy="413.7" r="8.5"/><circle class="cls-15" cx="314.9" cy="317.8" r="10"/></g></svg>