<?xml version="1.0" encoding="UTF-8"?><svg xmlns="http://www.w3.org/2000/svg" xmlns:xlink="http://www.w3.org/1999/xlink" viewBox="0 0 610 610"><defs><style>.cls-1{stroke-width:5px;}.cls-1,.cls-2,.cls-3,.cls-4,.cls-5,.cls-6,.cls-7,.cls-8,.cls-9,.cls-10,.cls-11,.cls-12,.cls-13,.cls-14,.cls-15{stroke-miterlimit:10;}.cls-1,.cls-2,.cls-3,.cls-4,.cls-5,.cls-6,.cls-7,.cls-8,.cls-9,.cls-10,.cls-13,.cls-14,.cls-15{stroke:#000;}.cls-1,.cls-11{fill:#231f20;}.cls-2{filter:url(#drop-shadow-9);}.cls-2,.cls-3,.cls-4,.cls-5,.cls-6,.cls-7,.cls-8,.cls-9,.cls-10,.cls-11,.cls-12,.cls-13,.cls-14,.cls-15{stroke-width:2px;}.cls-2,.cls-3,.cls-4,.cls-5,.cls-6,.cls-7,.cls-8,.cls-9,.cls-10,.cls-13,.cls-14,.cls-15{fill:#fff;}.cls-3{filter:url(#drop-shadow-6);}.cls-4{filter:url(#drop-shadow-8);}.cls-5{filter:url(#drop-shadow-2);}.cls-6{filter:url(#drop-shadow-1);}.cls-7{filter:url(#drop-shadow-3);}.cls-8{filter:url(#drop-shadow-5);}.cls-9{filter:url(#drop-shadow-7);}.cls-10{filter:url(#drop-shadow-4);}.cls-16{fill:ivory;}.cls-11,.cls-12{stroke:ivory;}.cls-12{fill:none;}.cls-13{filter:url(#drop-shadow-12);}.cls-14{filter:url(#drop-shadow-10);}.cls-15{filter:url(#drop-shadow-11);}</style><filter id="drop-shadow-1" filterUnits="userSpaceOnUse"><feOffset dx="0" dy="0"/><feGaussianBlur result="blur" stdDeviation="12"/><feFlood flood-color="ivory" flood-opacity=".8"/><feComposite in2="blur" operator="in"/><feComposite in="SourceGraphic"/></filter><filter id="drop-shadow-2" filterUnits="userSpaceOnUse"><feOffset dx="0" dy="0"/><feGaussianBlur result="blur-2" stdDeviation="12"/><feFlood flood-color="ivory" flood-opacity=".8"/><feComposite in2="blur-2" operator="in"/><feComposite in="SourceGraphic"/></filter><filter id="drop-shadow-3" filterUnits="userSpaceOnUse"><feOffset dx="0" dy="0"/><feGaussianBlur result="blur-3" stdDeviation="12"/><feFlood flood-color="ivory" flood-opacity=".8"/><feComposite in2="blur-3" operator="in"/><feComposite in="SourceGraphic"/></filter><filter id="drop-shadow-4" filterUnits="userSpaceOnUse"><feOffset dx="0" dy="0"/><feGaussianBlur result="blur-4" stdDeviation="12"/><feFlood flood-color="ivory" flood-opacity=".8"/><feComposite in2="blur-4" operator="in"/><feComposite in="SourceGraphic"/></filter><filter id="drop-shadow-5" filterUnits="userSpaceOnUse"><feOffset dx="0" dy="0"/><feGaussianBlur result="blur-5" stdDeviation="12"/><feFlood flood-color="ivory" flood-opacity=".8"/><feComposite in2="blur-5" operator="in"/><feComposite in="SourceGraphic"/></filter><filter id="drop-shadow-6" filterUnits="userSpaceOnUse"><feOffset dx="0" dy="0"/><feGaussianBlur result="blur-6" stdDeviation="12"/><feFlood flood-color="ivory" flood-opacity=".8"/><feComposite in2="blur-6" operator="in"/><feComposite in="SourceGraphic"/></filter><filter id="drop-shadow-7" filterUnits="userSpaceOnUse"><feOffset dx="0" dy="0"/><feGaussianBlur result="blur-7" stdDeviation="12"/><feFlood flood-color="ivory" flood-opacity=".8"/><feComposite in2="blur-7" operator="in"/><feComposite in="SourceGraphic"/></filter><filter id="drop-shadow-8" filterUnits="userSpaceOnUse"><feOffset dx="0" dy="0"/><feGaussianBlur result="blur-8" stdDeviation="12"/><feFlood flood-color="ivory" flood-opacity=".8"/><feComposite in2="blur-8" operator="in"/><feComposite in="SourceGraphic"/></filter><filter id="drop-shadow-9" filterUnits="userSpaceOnUse"><feOffset dx="0" dy="0"/><feGaussianBlur result="blur-9" stdDeviation="12"/><feFlood flood-color="ivory" flood-opacity=".8"/><feComposite in2="blur-9" operator="in"/><feComposite in="SourceGraphic"/></filter><filter id="drop-shadow-10" filterUnits="userSpaceOnUse"><feOffset dx="0" dy="0"/><feGaussianBlur result="blur-10" stdDeviation="12"/><feFlood flood-color="ivory" flood-opacity=".8"/><feComposite in2="blur-10" operator="in"/><feComposite in="SourceGraphic"/></filter><filter id="drop-shadow-11" filterUnits="userSpaceOnUse"><feOffset dx="0" dy="0"/><feGaussianBlur result="blur-11" stdDeviation="12"/><feFlood flood-color="ivory" flood-opacity=".8"/><feComposite in2="blur-11" operator="in"/><feComposite in="SourceGraphic"/></filter><filter id="drop-shadow-12" filterUnits="userSpaceOnUse"><feOffset dx="0" dy="0"/><feGaussianBlur result="blur-12" stdDeviation="12"/><feFlood flood-color="ivory" flood-opacity=".8"/><feComposite in2="blur-12" operator="in"/><feComposite in="SourceGraphic"/></filter></defs><g id="large_circle"><circle class="cls-1" cx="305" cy="305" r="300"/></g><g id="left_text"><g><path class="cls-16" d="M49.2,212.7h0l1,.3h.2l.8,.3h0l2.5,22.8h0l-2.1-.6-1.9-17.5-4.9,15.3-2-.6,4.9-15.3-11.7,13.2-2.1-.7h0l15.2-17.2Z"/><path class="cls-16" d="M36.3,242.2c1.8-.6,3.6-.7,5.4-.3,1.9,.4,3.5,1.2,4.9,2.4,1.4,1.2,2.4,2.7,3,4.5,.6,1.8,.7,3.6,.3,5.4-.4,1.9-1.2,3.5-2.4,4.9-1.2,1.4-2.7,2.4-4.5,3-1.8,.6-3.6,.7-5.4,.3-1.9-.4-3.5-1.2-4.9-2.4-1.4-1.2-2.4-2.7-3-4.5-.6-1.8-.7-3.6-.3-5.4s1.2-3.5,2.4-4.9c1.2-1.4,2.7-2.4,4.5-3Zm4,1.6c-2.1-.1-4,.4-5.7,1.7-1.7,1.3-2.7,3-3.2,5s0,4,1,5.9c1.1,1.8,2.6,3.1,4.6,3.7l3.3-16.4Zm2.1,.4l-3.3,16.4c2.1,.1,4-.4,5.7-1.7,1.7-1.3,2.7-3,3.1-5,.4-2.1,0-4-1-5.9-1.1-1.8-2.6-3.1-4.6-3.7Z"/><path class="cls-16" d="M45.9,283.7l-19.8,8.1-2-.2,1.8-20.9,2,.2h0l18.2,10.3v.4l-.2,1.8v.4Zm-1.8-1.4l-16.4-9.3-1.4,16.5,17.8-7.2Z"/><path class="cls-16" d="M45.1,312.8l-10.1,.2h0l-9.5,9.8h-1.2v-1.6l8.7-9-9.2-8.5v-1.8h1.2l10,9.1h0l10.1-.2v2Z"/><path class="cls-16" d="M28,353.9l-2.9-20.8,2.1-.3,2.9,20.8-2.1,.3Zm9.4-1.3l-2.9-20.8,2.1-.3,2.9,20.8-2.1,.3Zm9.4-1.3l-2.9-20.8,2.1-.3,2.9,20.8-2.1,.3Z"/><path class="cls-16" d="M39,361.7h0l1-.3h.2l.8-.3h0l14.2,18h0l-2.2,.6-10.8-13.8,3.9,15.6-2,.5-3.9-15.6-2.9,17.4-2.2,.5h0l3.8-22.7Z"/><path class="cls-16" d="M42.3,404.9l-.7-2,8.9-3.4-3.3-8.7,2-.7,3.3,8.7,6.8-2.6-3.3-8.7,1.9-.7,7.4,19.6-1.9,.7-3.4-8.9-6.8,2.6,3.4,8.9-2,.7-3.4-8.9-8.9,3.4Z"/><path class="cls-16" d="M55.1,422.1c1-1.6,2.4-2.8,4.1-3.6,1.7-.9,3.5-1.2,5.3-1.1,1.9,.1,3.6,.7,5.1,1.7,1.6,1,2.8,2.4,3.6,4.1,.9,1.7,1.2,3.5,1.1,5.3-.1,1.9-.7,3.6-1.7,5.1-1,1.6-2.4,2.8-4.1,3.6-1.7,.9-3.5,1.2-5.3,1.1-1.9-.1-3.6-.7-5.1-1.7-1.6-1-2.8-2.4-3.6-4.1-.9-1.7-1.2-3.5-1.1-5.3s.7-3.6,1.7-5.1Zm4.1-1.2c-1.7,1.2-2.9,2.8-3.4,4.8-.5,2-.3,4,.6,5.9,1,1.9,2.4,3.2,4.4,4,2,.8,3.9,.8,5.9,0l-7.6-14.9Zm1.9-1l7.6,14.9c1.7-1.2,2.9-2.8,3.4-4.8,.5-2,.3-4-.7-5.9-1-1.9-2.4-3.2-4.4-4-2-.8-3.9-.8-5.9,0Z"/><path class="cls-16" d="M80.3,440.4l1.8-1.2c1.3,1.9,2.2,3.9,2.8,6.1,.6,2.2,.8,4.3,.7,6.5-.1,2.2-.6,4.2-1.3,6.3s-1.8,3.9-3.2,5.7c-1.4,1.8-3,3.3-5,4.5l-1.2-1.8c3.8-2.8,6.3-6.5,7.5-11l-17-3.5-.8-1.2,1.2-.8,17,3.5c.7-4.6-.1-9-2.5-13.1Z"/><path class="cls-16" d="M97.8,487.2c.5-1.8,1.5-3.3,2.9-4.6,1.4-1.3,3-2.2,4.8-2.6,1.8-.4,3.6-.4,5.4,.2,1.8,.5,3.3,1.5,4.6,2.9,1.3,1.4,2.2,3,2.6,4.8,.4,1.8,.4,3.6-.2,5.4-.5,1.8-1.5,3.3-2.9,4.6s-3,2.2-4.8,2.6c-1.8,.4-3.6,.4-5.4-.2-1.8-.5-3.3-1.5-4.6-2.9-1.3-1.4-2.2-3-2.6-4.8-.4-1.8-.4-3.6,.2-5.4Zm3.6-2.3c-1.3,1.6-2,3.5-1.9,5.6,0,2.1,.8,4,2.3,5.5s3.2,2.4,5.3,2.6c2.1,.2,4-.3,5.7-1.6l-11.4-12.2Zm1.5-1.5l11.4,12.2c1.3-1.6,2-3.5,1.9-5.6,0-2.1-.8-3.9-2.3-5.5-1.5-1.6-3.2-2.4-5.3-2.6-2.1-.2-4,.3-5.7,1.6Z"/><path class="cls-16" d="M116.4,513.6l-1.6-1.4,13.6-16,1.6,1.4-13.6,16Zm7.2,6.1l-1.6-1.4,13.6-16,1.6,1.4-13.6,16Zm7.2,6.1l-1.6-1.4,13.6-16,1.6,1.4-13.6,16Z"/><path class="cls-16" d="M160.1,520.9l-2.6,21.2-1.1,1.7-17.4-11.8,1.1-1.7h0l17.8-10.9,.3,.2,1.5,1,.3,.2Zm-2.1,.9l-16.1,9.8,13.7,9.3,2.3-19.1Z"/><path class="cls-16" d="M192.7,542.1l-8.4-4.4-7.8,14.9,8.4,4.4-1,1.9-8.4-4.4-1.9-1-8.4-4.4,1-1.9,8.4,4.4,7.8-14.9-8.4-4.4,1-1.9,8.4,4.4,1.9,1,8.4,4.4-1,1.9Z"/><path class="cls-16" d="M202.4,543.9l1.6,20.5,15.3-13.9,1.3,.5-.9,2.3-15.3,14-2.5-.9h-.1l-1.6-20.7,.9-2.2,1.4,.5Z"/><path class="cls-16" d="M224.7,574.4l-2-.5,5.4-20.3,2,.5-5.4,20.3Zm9.1,2.4l-2-.5,5.4-20.3,2,.5-5.4,20.3Zm9.1,2.4l-2-.5,5.4-20.3,2,.5-5.4,20.3Z"/></g></g><g id="right_text"><g><path class="cls-16" d="M419,562.1l-1.9,.8-7-17.6-15.5,6.2,7,17.6-2,.8-7-17.6-.7-1.8v-.2l17.4-7,1.9-.8,.8,2,7,17.6Zm-15.6-1.1c-1.3-.6-2.3-1.5-2.8-2.9-.5-1.3-.5-2.7,0-4,.6-1.3,1.5-2.3,2.9-2.8s2.7-.5,4,0,2.3,1.5,2.8,2.9c.5,1.4,.5,2.7,0,4-.6,1.3-1.5,2.3-2.9,2.8-1.3,.5-2.7,.5-4,0Zm-.8-6.1c-.3,.8-.4,1.6,0,2.4,.3,.8,.9,1.4,1.7,1.7,.8,.3,1.6,.4,2.4,0,.8-.3,1.4-.9,1.7-1.7,.3-.8,.3-1.6,0-2.4s-.9-1.4-1.7-1.7c-.8-.3-1.6-.4-2.4,0s-1.4,.9-1.7,1.7Z"/><path class="cls-16" d="M438.4,552.4l-1.9,1-4.5-8.4-8.2,4.4-1-1.9,8.2-4.4-3.4-6.4-8.2,4.4-1-1.8,18.5-9.9,1,1.8-8.4,4.5,3.4,6.4,8.4-4.5,1,1.9-8.4,4.5,4.5,8.4Z"/><path class="cls-16" d="M444.8,527l-1.2-1.7c1.9-1.3,3.9-2.2,6.1-2.9s4.3-.9,6.5-.8c2.2,0,4.2,.5,6.3,1.2,2,.7,4,1.7,5.8,3.1,1.8,1.4,3.3,3,4.6,4.9l-1.7,1.2c-2.9-3.7-6.6-6.1-11.1-7.3l-3.2,17.1-1.2,.8-.8-1.2,3.2-17.1c-4.7-.6-9,.3-13,2.8Z"/><path class="cls-16" d="M478.5,519.6c-1.8-.6-3.3-1.6-4.5-3.1-1.2-1.4-2-3.1-2.4-4.9-.3-1.8-.2-3.6,.4-5.4,.6-1.8,1.6-3.3,3.1-4.5,1.4-1.2,3.1-2,4.9-2.4,1.8-.3,3.6-.2,5.4,.4s3.3,1.6,4.5,3.1,2,3.1,2.4,4.9c.3,1.8,.2,3.6-.4,5.4-.6,1.8-1.6,3.3-3.1,4.5-1.4,1.2-3.1,2-4.9,2.4-1.8,.3-3.6,.2-5.4-.4Zm-3.6-5.3l12.6-10.9c-1.6-1.4-3.4-2.1-5.5-2.1-2.1,0-4,.7-5.6,2.1-1.6,1.4-2.6,3.1-2.8,5.2-.3,2.1,.2,4,1.3,5.8Zm1.4,1.6c1.6,1.4,3.4,2.1,5.5,2.1,2.1,0,4-.7,5.6-2s2.6-3.1,2.8-5.2c.3-2.1-.2-4-1.3-5.8l-12.6,10.9Z"/><path class="cls-16" d="M502.8,474l1,.9,.5,12.9,13-.4,1,.9-1.2,1.2-12.7,.4,.5,12.9-.9,1-1.2-1.1-.6-12.7-12.7,.4-1-.9,1.2-1.3,12.4-.4-.6-12.6,1.2-1.3Z"/><path class="cls-16" d="M537,447l-2.8,20.8-1.2,1.7-17.5-11.6,1.2-1.7h0l18-10.7,.3,.2,1.6,1,.3,.2Zm-3.7,11.5l-7.7-5.2-7,4.1,13.6,9.1,1.1-8.1Zm.3-2.3l1.1-8.2-7.1,4.2,6,4Z"/><path class="cls-16" d="M542.7,416l-9.7,18.6-1.9-1,9.7-18.6,1.9,1Zm8.4,4.3l-9.7,18.6-1.9-1,9.7-18.6,1.9,1Zm8.4,4.3l-9.7,18.6-1.9-1,9.7-18.6,1.9,1Z"/><path class="cls-16" d="M571.2,395.8l-4.2,10.9-.4,1.1h0l-2.9,7.6h-.2l-2.1-.9-6.3-2.4-2.3-.9-8.9-3.4,.9-2.3,8.8,3.4,3-7.8,1.7,.7,.6,.2,6.3,2.4,3.7-9.5,2.2,.9Zm-13.2,8.7l-2,5.3,6.3,2.4,2-5.3-6.3-2.4Z"/><path class="cls-16" d="M561.3,361l-5.3,20.3-2-.5,5.3-20.3,2,.5Zm9.1,2.4l-5.3,20.3-2-.5,5.3-20.3,2,.5Zm9.1,2.4l-5.3,20.3-2-.5,5.3-20.3,2,.5Z"/><path class="cls-16" d="M583.3,344.5l-.3,2.1-9.5-1.3-1.3,9.2-2.1-.3,1.3-9.2-7.2-1-1.3,9.2-2.1-.3,3-20.8,2.1,.3-1.4,9.5,7.2,1,1.4-9.5,2.1,.3-1.4,9.5,9.5,1.3Z"/><path class="cls-16" d="M580.4,323.4c-1.6,.9-3.4,1.3-5.3,1.2s-3.6-.6-5.2-1.6c-1.6-1-2.8-2.3-3.7-3.9-.9-1.6-1.3-3.4-1.2-5.3,0-1.9,.6-3.6,1.6-5.2,1-1.6,2.3-2.8,3.9-3.7s3.4-1.3,5.3-1.2c1.9,0,3.6,.6,5.2,1.6,1.6,1,2.8,2.3,3.7,3.9,.9,1.6,1.3,3.4,1.2,5.3,0,1.9-.6,3.6-1.6,5.2-1,1.6-2.3,2.8-3.9,3.7Zm-6.3-1l.5-16.7c-2.1,.2-3.9,1.1-5.3,2.6-1.4,1.5-2.2,3.4-2.3,5.5,0,2.1,.6,4,1.9,5.6s3.1,2.6,5.1,2.9Zm2.1,0c2.1-.2,3.9-1.1,5.3-2.6,1.5-1.5,2.2-3.4,2.3-5.5,0-2.1-.6-4-1.9-5.6-1.4-1.6-3.1-2.6-5.1-2.9l-.5,16.7Z"/><path class="cls-16" d="M567.2,295.2l-2.1,.2c-.2-2.3,0-4.5,.5-6.7,.5-2.2,1.4-4.2,2.5-6s2.5-3.4,4.2-4.9,3.5-2.6,5.5-3.4c2.1-.9,4.2-1.4,6.5-1.6l.2,2.1c-4.7,.6-8.6,2.6-11.9,6l13.2,11.3v1.5h-1.4l-13.2-11.2c-2.9,3.7-4.2,7.9-4.1,12.6Z"/></g></g><g id="name"><g><path class="cls-16" d="M212.6,57.2l.8,2-1.9,.8-15.5,6.5-1.9,.8-.8-2-3-7.1-.8-2-3.5-8.3,1.9-.8,3.5,8.3,15.5-6.5-3.5-8.3,1.9-.8,7.3,17.4Zm-1.9,.8l-3-7.1-15.5,6.5,3,7.1,15.5-6.5Z"/><path class="cls-16" d="M235.8,32.5l-20.1,5.9-.6-2,20.1-5.9,.6,2Zm2.7,9.1l-20.1,5.9-.6-2,20.1-5.9,.6,2Zm2.7,9.1l-20.1,5.9-.6-2,20.1-5.9,.6,2Z"/><path class="cls-16" d="M245.5,30.2l-.4-2.1c2.2-.4,4.5-.4,6.7-.1,2.2,.3,4.3,1,6.2,2,1.9,1,3.7,2.2,5.2,3.7,1.6,1.5,2.9,3.2,4,5.2,1.1,2,1.8,4.1,2.2,6.3l-2.1,.4c-1.1-4.6-3.4-8.3-7.1-11.2l-10,14.2-1.5,.3-.3-1.5,10-14.3c-4-2.5-8.3-3.4-13-2.9Z"/><path class="cls-16" d="M297.8,33.7l-18.3,10.4h-2.1l-1.4-20.8h2.1l19.4,7.7v2.3l.2,.4Zm-11.3,4.1l-.6-9.3-7.5-3,1.1,16.3,7.1-4Zm2.1-1.2l7.2-4.1-7.7-3.1,.5,7.2Z"/><path class="cls-16" d="M328.1,24.8l-9.4-.4-.7,16.8,9.4,.4v2.1l-9.5-.4h-2.1l-9.4-.5v-2.1l9.5,.4,.7-16.8-9.4-.4v-2.1l9.5,.4h2.1l9.4,.5v2.1Z"/><path class="cls-16" d="M346.5,46.3l-2.1-.3,1.4-9.4-9.2-1.4,.3-2.1,9.2,1.4,1.1-7.2-9.2-1.4,.3-2.1,20.8,3.2-.3,2.1-9.4-1.5-1.1,7.2,9.4,1.5-.3,2.1-9.4-1.5-1.4,9.4Z"/><path class="cls-16" d="M366.5,44.7c-.5-1.8-.5-3.6,0-5.5,.5-1.8,1.4-3.4,2.7-4.7,1.3-1.3,2.9-2.2,4.7-2.7,1.8-.5,3.6-.5,5.5,0s3.4,1.4,4.7,2.7c1.3,1.3,2.2,2.9,2.7,4.7s.5,3.6,0,5.5c-.5,1.8-1.4,3.4-2.7,4.7-1.3,1.3-2.9,2.2-4.7,2.7-1.8,.5-3.6,.5-5.5,0-1.8-.5-3.4-1.4-4.7-2.7-1.3-1.3-2.2-2.9-2.7-4.7Zm1.8-3.9c-.3,2.1,.1,4,1.3,5.8,1.2,1.8,2.8,2.9,4.8,3.5s4,.4,5.9-.6c1.9-.9,3.2-2.4,4-4.3l-16.1-4.4Zm.6-2l16.1,4.4c.3-2.1-.1-4-1.3-5.8s-2.8-2.9-4.8-3.5-4-.4-5.9,.6c-1.9,.9-3.2,2.4-4,4.3Z"/><path class="cls-16" d="M398.5,39.8l.8-2c2.1,.8,4,2,5.8,3.4,1.7,1.4,3.2,3.1,4.3,4.9,1.1,1.8,2,3.8,2.5,5.9,.6,2.1,.8,4.2,.7,6.5-.1,2.2-.6,4.4-1.5,6.6l-2-.8c1.5-4.5,1.4-8.9-.2-13.3l-16,6.9-1.4-.5,.5-1.4,16-6.9c-2.1-4.2-5.3-7.3-9.6-9.2Z"/></g></g><g id="small_circle"><circle class="cls-11" cx="305" cy="305" r="250"/></g><g id="constellation_lines"><line class="cls-12" x1="295" y1="188" x2="365" y2="198"/><line class="cls-12" x1="375" y1="318" x2="335" y2="288"/><line class="cls-12" x1="225" y1="248" x2="235" y2="318"/><line class="cls-12" x1="295" y1="188" x2="225" y2="248"/><line class="cls-12" x1="225" y1="248" x2="275" y2="288"/><line class="cls-12" x1="275" y1="368" x2="305" y2="358"/><line class="cls-12" x1="305" y1="358" x2="335" y2="358"/><line class="cls-12" x1="375" y1="318" x2="335" y2="358"/><line class="cls-12" x1="335" y1="288" x2="365" y2="188"/><line class="cls-12" x1="275" y1="288" x2="335" y2="288"/><line class="cls-12" x1="305" y1="308" x2="305" y2="288"/><line class="cls-12" x1="335" y1="358" x2="325" y2="398"/></g><g id="stars"><circle class="cls-6" cx="305" cy="358" r="10"/><circle class="cls-5" cx="335" cy="358" r="10"/><circle class="cls-7" cx="224.9" cy="245.6" r="13.5"/><circle class="cls-10" cx="335" cy="288" r="10"/><circle class="cls-8" cx="275" cy="368" r="10"/><circle class="cls-3" cx="361.7" cy="201.4" r="20"/><circle class="cls-9" cx="295" cy="188" r="10"/><circle class="cls-4" cx="275" cy="288" r="10"/><circle class="cls-2" cx="375" cy="318" r="10"/><circle class="cls-14" cx="233.8" cy="316.8" r="8.8"/><circle class="cls-15" cx="305" cy="308" r="10"/><circle class="cls-13" cx="325" cy="398" r="10"/></g></svg>