<?xml version="1.0" encoding="UTF-8"?><svg xmlns="http://www.w3.org/2000/svg" xmlns:xlink="http://www.w3.org/1999/xlink" viewBox="0 0 610 610"><defs><style>.cls-1{stroke-width:5px;}.cls-1,.cls-2{fill:#231f20;}.cls-1,.cls-2,.cls-3,.cls-4,.cls-5,.cls-6,.cls-7,.cls-8,.cls-9,.cls-10,.cls-11,.cls-12,.cls-13,.cls-14,.cls-15,.cls-16,.cls-17,.cls-18,.cls-19,.cls-20,.cls-21,.cls-22,.cls-23{stroke-miterlimit:10;}.cls-1,.cls-12,.cls-13,.cls-14,.cls-15,.cls-16,.cls-17,.cls-18,.cls-19,.cls-20,.cls-21,.cls-22,.cls-23{stroke:#000;}.cls-24,.cls-12,.cls-13,.cls-14,.cls-15,.cls-16,.cls-17,.cls-18,.cls-19,.cls-20,.cls-21,.cls-22,.cls-23{fill:ivory;}.cls-2,.cls-3,.cls-4,.cls-5,.cls-6,.cls-7,.cls-8,.cls-9,.cls-10,.cls-11{stroke:ivory;}.cls-2,.cls-3,.cls-4,.cls-5,.cls-6,.cls-7,.cls-8,.cls-9,.cls-10,.cls-11,.cls-12,.cls-13,.cls-14,.cls-15,.cls-16,.cls-17,.cls-18,.cls-19,.cls-20,.cls-21,.cls-22,.cls-23{stroke-width:2px;}.cls-3{filter:url(#drop-shadow-5);}.cls-3,.cls-4,.cls-5,.cls-6,.cls-7,.cls-8,.cls-9,.cls-10,.cls-11{fill:none;}.cls-4{filter:url(#drop-shadow-9);}.cls-5{filter:url(#drop-shadow-3);}.cls-6{filter:url(#drop-shadow-7);}.cls-7{filter:url(#drop-shadow-4);}.cls-8{filter:url(#drop-shadow-1);}.cls-9{filter:url(#drop-shadow-6);}.cls-10{filter:url(#drop-shadow-2);}.cls-11{filter:url(#drop-shadow-8);}.cls-12{filter:url(#drop-shadow-20);}.cls-13{filter:url(#drop-shadow-21);}.cls-14{filter:url(#drop-shadow-19);}.cls-15{filter:url(#drop-shadow-16);}.cls-16{filter:url(#drop-shadow-13);}.cls-17{filter:url(#drop-shadow-15);}.cls-18{filter:url(#drop-shadow-12);}.cls-19{filter:url(#drop-shadow-17);}.cls-20{filter:url(#drop-shadow-14);}.cls-21{filter:url(#drop-shadow-18);}.cls-22{filter:url(#drop-shadow-11);}.cls-23{filter:url(#drop-shadow-10);}</style><filter id="drop-shadow-1" filterUnits="userSpaceOnUse"><feOffset dx="0" dy="0"/><feGaussianBlur result="blur" stdDeviation="12"/><feFlood flood-color="ivory" flood-opacity=".8"/><feComposite in2="blur" operator="in"/><feComposite in="SourceGraphic"/></filter><filter id="drop-shadow-2" filterUnits="userSpaceOnUse"><feOffset dx="0" dy="0"/><feGaussianBlur result="blur-2" stdDeviation="12"/><feFlood flood-color="ivory" flood-opacity=".8"/><feComposite in2="blur-2" operator="in"/><feComposite in="SourceGraphic"/></filter><filter id="drop-shadow-3" filterUnits="userSpaceOnUse"><feOffset dx="0" dy="0"/><feGaussianBlur result="blur-3" stdDeviation="12"/><feFlood flood-color="ivory" flood-opacity=".8"/><feComposite in2="blur-3" operator="in"/><feComposite in="SourceGraphic"/></filter><filter id="drop-shadow-4" filterUnits="userSpaceOnUse"><feOffset dx="0" dy="0"/><feGaussianBlur result="blur-4" stdDeviation="12"/><feFlood flood-color="ivory" flood-opacity=".8"/><feComposite in2="blur-4" operator="in"/><feComposite in="SourceGraphic"/></filter><filter id="drop-shadow-5" filterUnits="userSpaceOnUse"><feOffset dx="0" dy="0"/><feGaussianBlur result="blur-5" stdDeviation="12"/><feFlood flood-color="ivory" flood-opacity=".8"/><feComposite in2="blur-5" operator="in"/><feComposite in="SourceGraphic"/></filter><filter id="drop-shadow-6" filterUnits="userSpaceOnUse"><feOffset dx="0" dy="0"/><feGaussianBlur result="blur-6" stdDeviation="12"/><feFlood flood-color="ivory" flood-opacity=".8"/><feComposite in2="blur-6" operator="in"/><feComposite in="SourceGraphic"/></filter><filter id="drop-shadow-7" filterUnits="userSpaceOnUse"><feOffset dx="0" dy="0"/><feGaussianBlur result="blur-7" stdDeviation="12"/><feFlood flood-color="ivory" flood-opacity=".8"/><feComposite in2="blur-7" operator="in"/><feComposite in="SourceGraphic"/></filter><filter id="drop-shadow-8" filterUnits="userSpaceOnUse"><feOffset dx="0" dy="0"/><feGaussianBlur result="blur-8" stdDeviation="12"/><feFlood flood-color="ivory" flood-opacity=".8"/><feComposite in2="blur-8" operator="in"/><feComposite in="SourceGraphic"/></filter><filter id="drop-shadow-9" filterUnits="userSpaceOnUse"><feOffset dx="0" dy="0"/><feGaussianBlur result="blur-9" stdDeviation="12"/><feFlood flood-color="ivory" flood-opacity=".8"/><feComposite in2="blur-9" operator="in"/><feComposite in="SourceGraphic"/></filter><filter id="drop-shadow-10" filterUnits="userSpaceOnUse"><feOffset dx="0" dy="0"/><feGaussianBlur result="blur-10" stdDeviation="12"/><feFlood flood-color="ivory" flood-opacity=".8"/><feComposite in2="blur-10" operator="in"/><feComposite in="SourceGraphic"/></filter><filter id="drop-shadow-11" filterUnits="userSpaceOnUse"><feOffset dx="0" dy="0"/><feGaussianBlur result="blur-11" stdDeviation="12"/><feFlood flood-color="ivory" flood-opacity=".8"/><feComposite in2="blur-11" operator="in"/><feComposite in="SourceGraphic"/></filter><filter id="drop-shadow-12" filterUnits="userSpaceOnUse"><feOffset dx="0" dy="0"/><feGaussianBlur result="blur-12" stdDeviation="12"/><feFlood flood-color="ivory" flood-opacity=".8"/><feComposite in2="blur-12" operator="in"/><feComposite in="SourceGraphic"/></filter><filter id="drop-shadow-13" filterUnits="userSpaceOnUse"><feOffset dx="0" dy="0"/><feGaussianBlur result="blur-13" stdDeviation="12"/><feFlood flood-color="ivory" flood-opacity=".8"/><feComposite in2="blur-13" operator="in"/><feComposite in="SourceGraphic"/></filter><filter id="drop-shadow-14" filterUnits="userSpaceOnUse"><feOffset dx="0" dy="0"/><feGaussianBlur result="blur-14" stdDeviation="12"/><feFlood flood-color="ivory" flood-opacity=".8"/><feComposite in2="blur-14" operator="in"/><feComposite in="SourceGraphic"/></filter><filter id="drop-shadow-15" filterUnits="userSpaceOnUse"><feOffset dx="0" dy="0"/><feGaussianBlur result="blur-15" stdDeviation="12"/><feFlood flood-color="ivory" flood-opacity=".8"/><feComposite in2="blur-15" operator="in"/><feComposite in="SourceGraphic"/></filter><filter id="drop-shadow-16" filterUnits="userSpaceOnUse"><feOffset dx="0" dy="0"/><feGaussianBlur result="blur-16" stdDeviation="12"/><feFlood flood-color="ivory" flood-opacity=".8"/><feComposite in2="blur-16" operator="in"/><feComposite in="SourceGraphic"/></filter><filter id="drop-shadow-17" filterUnits="userSpaceOnUse"><feOffset dx="0" dy="0"/><feGaussianBlur result="blur-17" stdDeviation="12"/><feFlood flood-color="ivory" flood-opacity=".8"/><feComposite in2="blur-17" operator="in"/><feComposite in="SourceGraphic"/></filter><filter id="drop-shadow-18" filterUnits="userSpaceOnUse"><feOffset dx="0" dy="0"/><feGaussianBlur result="blur-18" stdDeviation="12"/><feFlood flood-color="ivory" flood-opacity=".8"/><feComposite in2="blur-18" operator="in"/><feComposite in="SourceGraphic"/></filter><filter id="drop-shadow-19" filterUnits="userSpaceOnUse"><feOffset dx="0" dy="0"/><feGaussianBlur result="blur-19" stdDeviation="12"/><feFlood flood-color="ivory" flood-opacity=".8"/><feComposite in2="blur-19" operator="in"/><feComposite in="SourceGraphic"/></filter><filter id="drop-shadow-20" filterUnits="userSpaceOnUse"><feOffset dx="0" dy="0"/><feGaussianBlur result="blur-20" stdDeviation="12"/><feFlood flood-color="ivory" flood-opacity=".8"/><feComposite in2="blur-20" operator="in"/><feComposite in="SourceGraphic"/></filter><filter id="drop-shadow-21" filterUnits="userSpaceOnUse"><feOffset dx="0" dy="0"/><feGaussianBlur result="blur-21" stdDeviation="12"/><feFlood flood-color="ivory" flood-opacity=".8"/><feComposite in2="blur-21" operator="in"/><feComposite in="SourceGraphic"/></filter></defs><g id="large_circle"><circle class="cls-1" cx="305" cy="305" r="300"/></g><g id="name"><g><path class="cls-24" d="M227.6,56.4l-11,3.9-1.1,.4h0l-7.7,2.7v-.2l-.8-2.1-2.3-6.4-.8-2.3-3.2-8.9,2.3-.8,3.2,8.9,7.9-2.8,.6,1.7,.2,.6,2.3,6.4,9.6-3.4,.8,2.3Zm-15.2-4.3l-5.3,1.9,2.3,6.4,5.3-1.9-2.3-6.4Z"/><path class="cls-24" d="M251.4,31l-20.4,4.8-.5-2,20.4-4.8,.5,2Zm2.2,9.2l-20.4,4.8-.5-2,20.4-4.8,.5,2Zm2.2,9.2l-20.4,4.8-.5-2,20.4-4.8,.5,2Z"/><path class="cls-24" d="M281.8,24.6l.2,1.3-8,10.1,10.1,8.1,.2,1.3h-1.7l-9.9-7.8-8,10.2-1.3,.2-.2-1.6,7.8-10-9.9-7.9-.2-1.3,1.7-.2,9.7,7.8,7.7-9.9,1.7-.2Z"/><path class="cls-24" d="M313,25.9l-9.4,.2,.3,16.8,9.4-.2v2.1l-9.4,.2h-2.1l-9.4,.2v-2.1l9.4-.2-.3-16.8-9.4,.2v-2.1l9.4-.2h2.1l9.4-.2v2.1Z"/><path class="cls-24" d="M334.6,25.5l7.7,19.9-.2,2-20.9-2.2,.2-2h0l10.6-18h.4l1.8,.2h.4Zm-1.4,1.8l-9.5,16.2,16.5,1.7-7-17.9Z"/><path class="cls-24" d="M356,28.3l4.8,20,12.9-16.1,1.3,.3-.5,2.4-12.9,16.2-2.7-.5h-.1l-4.8-20.2,.5-2.3,1.5,.2Z"/><path class="cls-24" d="M380.2,55.9l-2-.7,6.7-19.9,2,.7-6.7,19.9Zm9,3l-2-.7,6.7-19.9,2,.7-6.7,19.9Zm9,3l-2-.7,6.7-19.9,2,.7-6.7,19.9Z"/></g></g><g id="left_top_lettering"><g><path class="cls-24" d="M78.3,173.7l-8.7-5.1h0l-13.2,3.4-1-.6,.8-1.4,12.2-3.1-3.3-12.1,.9-1.6,1,.6,3.7,13h0l8.7,5.1-1,1.8Z"/><path class="cls-24" d="M54.7,189.2c1.2-.3,2.4-.2,3.5,.3,1.2,.5,2,1.3,2.6,2.4,.6,1.1,.7,2.3,.5,3.5l3,1.3,3.8-8.6,1.9,.9-3.8,8.6-.9,1.9-3.8,8.6-1.9-.9,3.8-8.6-3-1.3c-.7,1-1.7,1.7-2.9,2s-2.4,.2-3.5-.3c-1.2-.5-2-1.3-2.6-2.4-.6-1.1-.7-2.3-.4-3.5l-3-1.3-3.8,8.6-1.9-.9,3.8-8.6,.9-1.9,3.8-8.6,1.9,.9-3.8,8.6,3,1.3c.7-1,1.7-1.7,2.9-2Zm4.3,3.9c-.3-.8-.9-1.4-1.7-1.8-.8-.4-1.6-.4-2.4,0-.8,.3-1.4,.9-1.7,1.7-.4,.8-.4,1.6,0,2.4,.3,.8,.9,1.4,1.7,1.7,.8,.4,1.6,.4,2.4,0,.8-.3,1.4-.9,1.8-1.7s.4-1.6,0-2.4Z"/><path class="cls-24" d="M40.9,231.9l-3-20.8,.6-2,20,6.4-.6,2h0l-14.4,15.3h-.4l-1.8-.7h-.4Zm.4-12.2l8.9,2.8,5.6-5.9-15.6-5,1.2,8.1Zm.3,2.3l1.2,8.2,5.7-6-6.9-2.2Z"/><path class="cls-24" d="M46,263.6l-18.5-3.7-2.1-.4,.4-2.1,3.3-16.5,.4-2,2.1,.4,18.5,3.7-.4,2-18.5-3.7-3.3,16.5,18.5,3.7-.4,2.1Zm-7.2-17.5c1.4,.3,2.5,1,3.3,2.2,.8,1.2,1.1,2.5,.8,3.9-.3,1.4-1,2.5-2.2,3.3-1.2,.8-2.5,1.1-3.9,.8-1.4-.3-2.5-1-3.3-2.2-.8-1.2-1.1-2.5-.8-3.9,.3-1.4,1-2.5,2.2-3.3,1.2-.8,2.5-1.1,3.9-.8Zm1.6,3.4c-.5-.7-1.1-1.2-2-1.3-.9-.2-1.6,0-2.4,.5-.7,.5-1.2,1.1-1.3,2s0,1.6,.5,2.4c.5,.7,1.1,1.2,2,1.3,.9,.2,1.6,0,2.4-.5,.7-.5,1.2-1.1,1.3-2s0-1.6-.5-2.4Z"/><path class="cls-24" d="M33.3,270.3h1.3l.8,.2h0l7.4,21.7h0l-2.2-.2-5.6-16.6-1.5,16-2.1-.2,1.5-16-8.5,15.4-2.2-.2h0l11.1-20.1Z"/><path class="cls-24" d="M41.1,321.2l-.2-9.4-16.8,.4,.2,9.4h-2.1l-.2-9.4v-2.1l-.2-9.4h2.1l.2,9.4,16.8-.4-.2-9.4h2.1l.2,9.4v2.1l.2,9.4h-2.1Z"/><path class="cls-24" d="M41.8,329.2l2.1-.3,.3,2.1h0l2.2,16.7,.3,2.1-2.1,.3-18.8,2.5-.3-2.1,18.8-2.5-2.2-16.7-18.8,2.5-.3-2.1,18.8-2.5Z"/><path class="cls-24" d="M37.4,391.1l-2,.6-.6-2-4.6-16.2-.6-2,2-.6,7.4-2.1,2-.6,8.7-2.5,.6,2-8.7,2.5,4.6,16.2,8.7-2.5,.6,2-18.2,5.1Zm-.6-2l7.4-2.1-4.6-16.2-7.4,2.1,4.6,16.2Z"/><path class="cls-24" d="M46.5,420.8l-7.9-19.5,1.9-.8,7.9,19.5-1.9,.8Zm8.8-3.5l-7.9-19.5,1.9-.8,7.9,19.5-1.9,.8Zm8.8-3.5l-7.9-19.5,1.9-.8,7.9,19.5-1.9,.8Z"/><path class="cls-24" d="M67.5,421l1.9-1c1.1,2,1.8,4.1,2.2,6.3,.4,2.2,.4,4.4,0,6.5s-.9,4.2-1.8,6.1c-.9,2-2.1,3.8-3.7,5.4-1.5,1.6-3.3,3-5.3,4.1l-1-1.9c4-2.4,6.8-5.9,8.4-10.3l-16.6-5-.7-1.3,1.3-.7,16.7,5c1.1-4.6,.7-9-1.3-13.2Z"/><path class="cls-24" d="M86.4,485.1l-11.4-15-1.3-1.7,1.7-1.3,5.8-4.4,.8-.6,.8-.6,11.4,15,5.8-4.4-11.4-15,1.7-1.3,11.4,15,1.3,1.7-1.7,1.3-5.8,4.4-.9,.6-.8,.6-11.4-15-5.8,4.4,11.4,15-1.7,1.3Z"/><path class="cls-24" d="M99.7,486.4h0l.8-.8h.2l.6-.7h0l21.2,8.8h0l-1.6,1.6-16.2-6.7,11.1,11.6-1.5,1.4-11.1-11.7,5.9,16.6-1.6,1.5h0l-7.8-21.6Z"/><path class="cls-24" d="M127,500.5l1.4-1.6c1.7,1.5,3.2,3.2,4.4,5.1,1.2,1.9,2,3.9,2.5,6,.5,2.1,.7,4.2,.6,6.4s-.6,4.3-1.4,6.4-2,4-3.4,5.8l-1.6-1.4c2.8-3.8,4.2-8,4-12.7l-17.3,1.5-1.1-1,1-1.1,17.3-1.5c-.7-4.7-2.7-8.6-6.1-11.8Z"/><path class="cls-24" d="M167.1,530.5l-7.9-5.2-9.3,14,7.9,5.2-1.2,1.7-7.9-5.2-1.7-1.2-7.9-5.2,1.2-1.7,7.9,5.2,9.3-14-7.9-5.2,1.2-1.7,7.9,5.2,1.7,1.2,7.9,5.2-1.2,1.7Z"/><path class="cls-24" d="M185,559.2l-1,1.9-1.9-1-14.9-7.7-1.9-1,1-1.9,3.6-6.9,1-1.9,4.2-8,1.9,1-4.2,8,14.9,7.7,4.2-8,1.9,1-8.7,16.8Zm-1.9-1l3.6-6.9-14.9-7.7-3.6,6.9,14.9,7.7Z"/><path class="cls-24" d="M203.9,569.3l-2-.8,3.4-8.9-8.7-3.4,.8-2,8.7,3.4,2.6-6.8-8.7-3.4,.7-1.9,19.6,7.6-.7,1.9-8.9-3.4-2.6,6.8,8.9,3.4-.8,2-8.9-3.4-3.4,8.9Z"/><path class="cls-24" d="M229.4,555.9l3.9,20.2,13.6-15.5,1.3,.4-.6,2.3-13.6,15.6-2.6-.6h-.1l-3.9-20.4,.6-2.3,1.5,.3Z"/><path class="cls-24" d="M254.9,583.7l-2.1-.3,3.1-20.8,2.1,.3-3.1,20.8Zm9.3,1.4l-2.1-.3,3.1-20.8,2.1,.3-3.1,20.8Zm9.3,1.4l-2.1-.3,3.1-20.8,2.1,.3-3.1,20.8Z"/></g></g><g id="right_top_lettering"><g><path class="cls-24" d="M409,568.4l-11,3.9-1.1,.4h0l-7.7,2.7v-.2l-.8-2.1-2.2-6.4-.8-2.3-3.1-9,2.3-.8,3.2,8.9,7.9-2.8,.6,1.7,.2,.6,2.2,6.4,9.6-3.4,.8,2.3Zm-15.2-4.4l-5.3,1.9,2.3,6.4,5.3-1.9-2.2-6.4Z"/><path class="cls-24" d="M429.2,538.5l-18.9,9.1-.9-1.9,18.9-9.1,.9,1.9Zm4.1,8.5l-18.9,9.1-.9-1.9,18.9-9.1,.9,1.9Zm4.1,8.5l-18.9,9.1-.9-1.9,18.9-9.1,.9,1.9Z"/><path class="cls-24" d="M452.9,521.6l.4,.7,.6,1,9,14.4,1.1,1.7-17.8,11.1-1.1-1.7,16.1-10.1-9-14.4-16.1,10-1.1-1.7,17.8-11.1Z"/><path class="cls-24" d="M460.6,518.8l-1.3-1.6,1.6-1.3h0l13.2-10.4,1.6-1.3,1.3,1.6,11.8,14.9-1.6,1.3-11.8-14.9-13.2,10.4,11.8,14.9-1.6,1.3-11.8-14.9Z"/><path class="cls-24" d="M504.6,505.8l-1.5,1.5-6.7-6.8-6.6,6.6-1.5-1.5,6.6-6.6-5.1-5.2-6.6,6.6-1.5-1.5,14.9-14.8,1.5,1.5-6.8,6.7,5.1,5.2,6.8-6.7,1.5,1.5-6.8,6.7,6.7,6.8Z"/><path class="cls-24" d="M502.8,477l20,4.7-8.5-18.7,.9-1,1.9,1.5,8.7,18.8-1.7,2.1h0l-20.2-4.7-1.8-1.5,.9-1.2Z"/><path class="cls-24" d="M548.8,449.3l-10.2,15.9-1.1,1.8-1.8-1.1-6.2-4-.9-.6-.9-.6,10.2-15.9-6.2-4-10.2,15.9-1.8-1.1,10.2-15.9,1.1-1.8,1.8,1.1,6.2,4,.9,.6,.9,.6-10.2,15.9,6.2,4,10.2-15.9,1.8,1.1Z"/><path class="cls-24" d="M566.5,408.3l1.9,.9-.8,1.9-6.8,15.4-.8,1.9-1.9-.9-7.1-3.1-1.9-.9-8.3-3.6,.8-1.9,8.3,3.6,6.8-15.4-8.3-3.6,.8-1.9,17.3,7.6Zm-.8,1.9l-7.1-3.1-6.8,15.4,7.1,3.1,6.8-15.4Z"/><path class="cls-24" d="M554,394l-2-.6c.7-2.2,1.7-4.2,3-6,1.3-1.8,2.8-3.4,4.6-4.6,1.8-1.3,3.6-2.2,5.7-3,2-.7,4.2-1.1,6.4-1.1,2.2,0,4.5,.3,6.6,1l-.6,2c-4.5-1.2-9-.8-13.2,1.2l8,15.4-.4,1.4-1.4-.4-8.1-15.4c-4,2.4-6.9,5.8-8.5,10.2Z"/><path class="cls-24" d="M566.3,345.5l-1.8,9.3,16.5,3.2,1.8-9.3,2.1,.4-1.8,9.3-.4,2.1-1.8,9.3-2.1-.4,1.8-9.3-16.5-3.2-1.8,9.3-2.1-.4,1.8-9.3,.4-2.1,1.8-9.3,2.1,.4Z"/><path class="cls-24" d="M586.4,337l-.2,2.1-20.9-1.7,.2-2.1,20.9,1.7Zm.8-9.4l-.2,2.1-20.9-1.7,.2-2.1,20.9,1.7Zm.8-9.4l-.2,2.1-20.9-1.7,.2-2.1,20.9,1.7Z"/><path class="cls-24" d="M567.1,307.1l18.2-9.5-18.7-8.7v-1.4h2.4l18.8,8.6v2.7h.1l-18.5,9.6h-2.4v-1.4Z"/><path class="cls-24" d="M584,256l2.6,18.7,.3,2.1-2.1,.3-7.3,1h-1l-1,.3-2.6-18.7-7.3,1,2.6,18.7-2.1,.3-2.6-18.7-.3-2.1,2.1-.3,7.3-1h1.1l1-.3,2.6,18.7,7.3-1-2.6-18.7,2.1-.3Z"/></g></g><g id="small_circle"><circle class="cls-2" cx="305" cy="305" r="250"/></g><g id="constellation"><line class="cls-8" x1="275" y1="405" x2="335" y2="405"/><line class="cls-10" x1="305" y1="195" x2="305" y2="405"/><line class="cls-5" x1="185" y1="345" x2="265" y2="345"/><line class="cls-7" x1="225" y1="295" x2="225" y2="345"/><line class="cls-3" x1="385" y1="255" x2="385" y2="295"/><line class="cls-9" x1="225" y1="295" x2="395" y2="255"/><line class="cls-6" x1="275" y1="405" x2="305" y2="365"/><line class="cls-11" x1="335" y1="405" x2="305" y2="365"/><line class="cls-4" x1="355" y1="295" x2="415" y2="295"/><circle class="cls-23" cx="195" cy="345" r="10"/><circle class="cls-22" cx="305" cy="275" r="20"/><circle class="cls-18" cx="415" cy="295" r="10"/><circle class="cls-16" cx="272" cy="404.7" r="13"/><circle class="cls-20" cx="355" cy="295" r="10"/><circle class="cls-17" cx="385" cy="255" r="10"/><circle class="cls-15" cx="305" cy="205" r="10"/><circle class="cls-19" cx="305" cy="405" r="10"/><circle class="cls-21" cx="305" cy="365" r="10"/><circle class="cls-14" cx="226.8" cy="295.6" r="15"/><circle class="cls-12" cx="255" cy="345" r="10"/><circle class="cls-13" cx="335" cy="405" r="10"/></g></svg>