<?xml version="1.0" encoding="UTF-8"?><svg xmlns="http://www.w3.org/2000/svg" xmlns:xlink="http://www.w3.org/1999/xlink" viewBox="0 0 610 610"><defs><style>.cls-1{fill:#231f20;stroke-width:5px;}.cls-1,.cls-2,.cls-3,.cls-4,.cls-5,.cls-6,.cls-7,.cls-8,.cls-9,.cls-10,.cls-11,.cls-12,.cls-13,.cls-14,.cls-15{stroke-miterlimit:10;}.cls-1,.cls-3,.cls-4,.cls-5,.cls-6,.cls-7,.cls-8,.cls-9,.cls-10,.cls-11,.cls-13,.cls-14,.cls-15{stroke:#000;}.cls-2{fill:rgba(35,31,32,0);}.cls-2,.cls-3,.cls-4,.cls-5,.cls-6,.cls-7,.cls-8,.cls-9,.cls-10,.cls-11,.cls-12,.cls-13,.cls-14,.cls-15{stroke-width:2px;}.cls-2,.cls-12{stroke:ivory;}.cls-3{filter:url(#drop-shadow-6);}.cls-3,.cls-4,.cls-5,.cls-6,.cls-7,.cls-8,.cls-9,.cls-10,.cls-11,.cls-16,.cls-12,.cls-13,.cls-14,.cls-15{fill:ivory;}.cls-4{filter:url(#drop-shadow-1);}.cls-5{filter:url(#drop-shadow-4);}.cls-6{filter:url(#drop-shadow-7);}.cls-7{filter:url(#drop-shadow-2);}.cls-8{filter:url(#drop-shadow-3);}.cls-9{filter:url(#drop-shadow-5);}.cls-10{filter:url(#drop-shadow-9);}.cls-11{filter:url(#drop-shadow-8);}.cls-13{filter:url(#drop-shadow-12);}.cls-14{filter:url(#drop-shadow-11);}.cls-15{filter:url(#drop-shadow-10);}</style><filter id="drop-shadow-1" filterUnits="userSpaceOnUse"><feOffset dx="0" dy="0"/><feGaussianBlur result="blur" stdDeviation="12"/><feFlood flood-color="ivory" flood-opacity=".8"/><feComposite in2="blur" operator="in"/><feComposite in="SourceGraphic"/></filter><filter id="drop-shadow-2" filterUnits="userSpaceOnUse"><feOffset dx="0" dy="0"/><feGaussianBlur result="blur-2" stdDeviation="12"/><feFlood flood-color="ivory" flood-opacity=".8"/><feComposite in2="blur-2" operator="in"/><feComposite in="SourceGraphic"/></filter><filter id="drop-shadow-3" filterUnits="userSpaceOnUse"><feOffset dx="0" dy="0"/><feGaussianBlur result="blur-3" stdDeviation="12"/><feFlood flood-color="ivory" flood-opacity=".8"/><feComposite in2="blur-3" operator="in"/><feComposite in="SourceGraphic"/></filter><filter id="drop-shadow-4" filterUnits="userSpaceOnUse"><feOffset dx="0" dy="0"/><feGaussianBlur result="blur-4" stdDeviation="12"/><feFlood flood-color="ivory" flood-opacity=".8"/><feComposite in2="blur-4" operator="in"/><feComposite in="SourceGraphic"/></filter><filter id="drop-shadow-5" filterUnits="userSpaceOnUse"><feOffset dx="0" dy="0"/><feGaussianBlur result="blur-5" stdDeviation="12"/><feFlood flood-color="ivory" flood-opacity=".8"/><feComposite in2="blur-5" operator="in"/><feComposite in="SourceGraphic"/></filter><filter id="drop-shadow-6" filterUnits="userSpaceOnUse"><feOffset dx="0" dy="0"/><feGaussianBlur result="blur-6" stdDeviation="12"/><feFlood flood-color="ivory" flood-opacity=".8"/><feComposite in2="blur-6" operator="in"/><feComposite in="SourceGraphic"/></filter><filter id="drop-shadow-7" filterUnits="userSpaceOnUse"><feOffset dx="0" dy="0"/><feGaussianBlur result="blur-7" stdDeviation="12"/><feFlood flood-color="ivory" flood-opacity=".8"/><feComposite in2="blur-7" operator="in"/><feComposite in="SourceGraphic"/></filter><filter id="drop-shadow-8" filterUnits="userSpaceOnUse"><feOffset dx="0" dy="0"/><feGaussianBlur result="blur-8" stdDeviation="12"/><feFlood flood-color="ivory" flood-opacity=".8"/><feComposite in2="blur-8" operator="in"/><feComposite in="SourceGraphic"/></filter><filter id="drop-shadow-9" filterUnits="userSpaceOnUse"><feOffset dx="0" dy="0"/><feGaussianBlur result="blur-9" stdDeviation="12"/><feFlood flood-color="ivory" flood-opacity=".8"/><feComposite in2="blur-9" operator="in"/><feComposite in="SourceGraphic"/></filter><filter id="drop-shadow-10" filterUnits="userSpaceOnUse"><feOffset dx="0" dy="0"/><feGaussianBlur result="blur-10" stdDeviation="12"/><feFlood flood-color="ivory" flood-opacity=".8"/><feComposite in2="blur-10" operator="in"/><feComposite in="SourceGraphic"/></filter><filter id="drop-shadow-11" filterUnits="userSpaceOnUse"><feOffset dx="0" dy="0"/><feGaussianBlur result="blur-11" stdDeviation="12"/><feFlood flood-color="ivory" flood-opacity=".8"/><feComposite in2="blur-11" operator="in"/><feComposite in="SourceGraphic"/></filter><filter id="drop-shadow-12" filterUnits="userSpaceOnUse"><feOffset dx="0" dy="0"/><feGaussianBlur result="blur-12" stdDeviation="12"/><feFlood flood-color="ivory" flood-opacity=".8"/><feComposite in2="blur-12" operator="in"/><feComposite in="SourceGraphic"/></filter></defs><g id="large_circle"><circle class="cls-1" cx="305" cy="305" r="300"/></g><g id="text_right"><g><path class="cls-16" d="M427.6,558l-1.9,1-9.7-18.6,1.9-1,9.7,18.6Zm8.4-4.4l-1.9,1-9.7-18.6,1.9-1,9.7,18.6Zm8.4-4.4l-1.9,1-9.7-18.6,1.9-1,9.7,18.6Z"/><path class="cls-16" d="M460,516.7l-17.4,11.7-1.2-1.7,17.4-11.7,1.2,1.7Zm5.3,7.8l-17.4,11.7-1.2-1.7,17.4-11.7,1.2,1.7Zm5.3,7.8l-17.4,11.7-1.2-1.7,17.4-11.7,1.2,1.7Z"/><path class="cls-16" d="M480.3,524.9l-1.6,1.4-13.6-16,1.6-1.4,13.6,16Zm7.2-6.1l-1.6,1.4-13.6-16,1.6-1.4,13.6,16Zm7.2-6.1l-1.6,1.4-13.6-16,1.6-1.4,13.6,16Z"/><path class="cls-16" d="M499.2,501.1c-1.8-.4-3.4-1.3-4.8-2.6s-2.3-2.9-2.9-4.6-.6-3.6-.2-5.4c.4-1.8,1.3-3.4,2.6-4.8,1.3-1.4,2.9-2.3,4.6-2.9s3.6-.6,5.4-.2c1.8,.4,3.4,1.3,4.8,2.6,1.4,1.3,2.3,2.9,2.9,4.6,.5,1.8,.6,3.6,.2,5.4-.4,1.8-1.3,3.4-2.6,4.8s-2.9,2.3-4.6,2.9c-1.8,.5-3.6,.6-5.4,.2Zm-4.1-4.9l11.4-12.1c-1.7-1.2-3.6-1.8-5.7-1.6-2.1,.2-3.9,1.1-5.3,2.6-1.5,1.5-2.2,3.4-2.3,5.5,0,2.1,.6,4,1.9,5.6Zm1.5,1.5c1.7,1.2,3.6,1.8,5.7,1.6s3.9-1.1,5.4-2.6,2.2-3.4,2.3-5.5c0-2.1-.6-4-1.9-5.6l-11.4,12.1Z"/><path class="cls-16" d="M507.9,471.3l-1.7-1.3c1.4-1.8,3-3.4,4.8-4.7s3.8-2.2,5.9-2.8c2.1-.6,4.2-.9,6.3-.9,2.2,0,4.3,.4,6.4,1.1,2.1,.7,4.1,1.8,5.9,3.1l-1.3,1.7c-3.9-2.6-8.2-3.7-12.9-3.3l2.4,17.2-.9,1.2-1.2-.9-2.4-17.2c-4.6,.9-8.4,3.2-11.4,6.8Z"/><path class="cls-16" d="M535.8,429.7l-4.8,8.1,14.4,8.6,4.8-8.1,1.8,1.1-4.8,8.1-1.1,1.8-4.8,8.1-1.8-1.1,4.8-8.1-14.4-8.6-4.8,8.1-1.8-1.1,4.8-8.1,1.1-1.8,4.8-8.1,1.8,1.1Z"/><path class="cls-16" d="M539.5,422.6l-1.9-.9,.8-1.9h0l6.9-15.3,.9-1.9,1.9,.9,17.3,7.8-.9,1.9-17.3-7.8-7,15.3,17.3,7.8-.9,1.9-17.3-7.8Z"/><path class="cls-16" d="M553.5,381.8l20.2-3.8-15.4-13.7,.4-1.3,2.3,.6,15.5,13.7-.6,2.6h0l-20.4,3.9-2.3-.6,.3-1.5Z"/><path class="cls-16" d="M581.4,356.5l-.3,2.1-20.8-3.2,.3-2.1,20.8,3.2Zm1.4-9.3l-.3,2.1-20.8-3.2,.3-2.1,20.8,3.2Zm1.4-9.3l-.3,2.1-20.8-3.2,.3-2.1,20.8,3.2Z"/><path class="cls-16" d="M567.3,305.9l-.4,9.4,16.8,.7,.4-9.4h2.1l-.4,9.5v2.1l-.5,9.4h-2.1l.4-9.5-16.8-.7-.4,9.4h-2.1l.4-9.5v-2.1l.5-9.4h2.1Z"/></g></g><g id="text_left"><g><path class="cls-16" d="M44.2,276.8l-6.9-10.1-9.6,7.6h-.1l-2-.3v-.7l3-19.3v-.8l2.1,.3h0l7.1,10.3,9.8-7.7,2,.3v.8l-3,19.4v.6l-2.1-.3h-.1Zm-8.1-11.8l-5.9-8.5-2.2,15,8.1-6.4Zm2.7,.4l5.9,8.6,2.2-15-8.2,6.5Z"/><path class="cls-16" d="M42.6,305.8l.4-9.4-16.8-.6-.4,9.4h-2.1l.4-9.5v-2.1l.4-9.4h2.1l-.4,9.5,16.8,.6,.4-9.4h2.1l-.4,9.5v2.1l-.4,9.4h-2.1Z"/><path class="cls-16" d="M25.5,336.2l-1.4-18.8-.2-2.1,2.1-.2,7.3-.5h1l1-.2,1.4,18.8,7.3-.5-1.4-18.8,2.1-.2,1.4,18.8,.2,2.1-2.1,.2-7.3,.5h-1.1l-1,.2-1.4-18.8-7.3,.5,1.4,18.8-2.1,.2Z"/><path class="cls-16" d="M28.9,357.5l-.4-2.1,9.4-1.8-1.7-9.2,2.1-.4,1.7,9.2,7.1-1.3-1.7-9.2,2-.4,3.9,20.6-2,.4-1.8-9.4-7.1,1.3,1.8,9.4-2.1,.4-1.8-9.4-9.4,1.8Z"/><path class="cls-16" d="M38.5,376.6c1.3-1.4,2.8-2.3,4.6-2.9,1.8-.6,3.6-.6,5.5-.2,1.8,.4,3.4,1.3,4.8,2.5,1.4,1.3,2.3,2.8,2.9,4.6,.6,1.8,.6,3.6,.2,5.5-.4,1.8-1.3,3.4-2.5,4.8s-2.8,2.3-4.6,2.9c-1.8,.6-3.6,.6-5.5,.2-1.8-.4-3.4-1.3-4.8-2.5s-2.3-2.8-2.9-4.6c-.6-1.8-.6-3.6-.2-5.5,.4-1.8,1.3-3.4,2.5-4.8Zm4.3-.5c-1.9,.9-3.3,2.3-4.2,4.2-.9,1.9-1,3.9-.4,5.9,.6,2,1.8,3.6,3.6,4.7,1.8,1.1,3.7,1.5,5.8,1.1l-4.9-15.9Zm2-.6l4.9,15.9c1.9-.9,3.3-2.3,4.2-4.2,.9-1.9,1-3.9,.4-5.9-.6-2-1.8-3.6-3.6-4.7-1.8-1.1-3.7-1.5-5.8-1.1Z"/><path class="cls-16" d="M60,399l1.9-.8c.9,2.1,1.5,4.3,1.7,6.5,.2,2.2,0,4.4-.5,6.5s-1.3,4.1-2.4,5.9c-1.1,1.9-2.4,3.6-4.1,5.1-1.7,1.5-3.6,2.7-5.7,3.6l-.8-1.9c4.2-2.1,7.3-5.3,9.3-9.5l-16.2-6.4-.6-1.4,1.4-.6,16.2,6.4c1.5-4.5,1.4-8.9-.2-13.3Z"/><path class="cls-16" d="M82.4,443.8l-4.7-8.2-14.6,8.3,4.7,8.2-1.8,1-4.7-8.2-1-1.8-4.7-8.2,1.8-1,4.7,8.2,14.6-8.3-4.7-8.2,1.8-1,4.7,8.2,1,1.8,4.7,8.2-1.8,1Z"/><path class="cls-16" d="M86.8,450.5l1.7-1.2,1.3,1.7h0l9.9,13.6,1.2,1.7-1.7,1.2-15.4,11.1-1.2-1.7,15.4-11.1-9.9-13.6-15.4,11.1-1.2-1.7,15.3-11.1Z"/><path class="cls-16" d="M115.3,482.9l-6.7,19.4,19.5-6.6,.9,1-1.7,1.7-19.6,6.7-2-1.9h0l6.8-19.7,1.7-1.7,1.1,1Z"/><path class="cls-16" d="M149.9,516.7l-7.4-5.9-10.5,13.1,7.4,5.9-1.3,1.6-7.4-5.9-1.6-1.3-7.4-5.9,1.3-1.6,7.4,5.9,10.5-13.1-7.4-5.9,1.3-1.6,7.4,5.9,1.6,1.3,7.4,5.9-1.3,1.6Z"/><path class="cls-16" d="M159,520.3l-2.2,20.4,17.6-10.7,1.1,.8-1.3,2-17.7,10.9-2.3-1.4h-.1l2.3-20.7,1.3-2,1.3,.7Z"/><path class="cls-16" d="M200.3,545.5l-8.5-4.1-7.3,15.1,8.5,4.1-.9,1.9-8.5-4.1-1.9-.9-8.5-4.1,.9-1.9,8.5,4.1,7.3-15.1-8.5-4.1,.9-1.9,8.5,4.1,1.9,.9,8.5,4.1-.9,1.9Z"/><path class="cls-16" d="M212.3,570.3l-2-.7,3.2-9-8.8-3.1,.7-2,8.8,3.1,2.4-6.9-8.8-3.1,.7-2,19.8,7-.7,2-9-3.2-2.4,6.9,9,3.2-.7,2-9-3.2-3.2,9Z"/></g></g><g id="name"><g><path class="cls-16" d="M190.7,69.2l-1.9,.9-4.2-8.6-8.4,4.1-.9-1.9,8.4-4.1-3.2-6.5-8.4,4.1-.9-1.9,18.9-9.2,.9,1.9-8.6,4.2,3.2,6.5,8.6-4.2,.9,1.9-8.6,4.2,4.2,8.6Z"/><path class="cls-16" d="M200.1,44l-.7-2,2-.7h0l15.8-5.6,2-.7,.7,2,6.4,17.8-2,.7-6.4-17.8-15.8,5.7,6.4,17.8-2,.7-6.4-17.8Z"/><path class="cls-16" d="M252.2,38.6h0l-13.8,10.7,15.5-3.7,.5,2-20.4,4.9-.5-2h0l16-12.4-19.9-3.9h0v-.2l-.5-1.9,20.4-4.9,.5,2-15.6,3.7,17.2,3.4h0l.5,2.2h0Z"/><path class="cls-16" d="M261.2,25.1l11.1,17.2,6.9-19.4h1.4l.3,2.3-6.8,19.6-2.7,.4h-.1l-11.2-17.5-.3-2.3,1.5-.3Z"/><path class="cls-16" d="M312.1,42.7l-11.7,.3h-1.2l-8.1,.2v-2.4l-.2-6.7v-2.5l-.3-9.5h2.4l.2,9.4,8.4-.2v2.5l.2,6.8,10.2-.2v2.4Zm-13-8.9h-5.7l.2,6.9h5.6v-6.9Z"/><path class="cls-16" d="M321.8,24.3l.2-2.1,2.1,.2h0l16.7,1.7,2.1,.2-.2,2.1-1.8,18.9-2.1-.2,1.8-18.9-16.7-1.6-1.8,18.9-2.1-.2,1.8-18.9Z"/><path class="cls-16" d="M352.7,27.9l.4-2.1c2.2,.5,4.3,1.3,6.3,2.4,1.9,1.1,3.6,2.5,5,4.1,1.4,1.6,2.6,3.4,3.5,5.4,.9,2,1.5,4,1.8,6.3,.3,2.2,.1,4.5-.3,6.7l-2.1-.4c.7-4.6-.1-9-2.5-13.1l-14.6,9.5-1.5-.3,.3-1.5,14.5-9.5c-2.8-3.8-6.4-6.3-11-7.5Z"/><path class="cls-16" d="M385.1,33.2l2.7,20.3,14.5-14.6,1.3,.5-.8,2.3-14.5,14.8-2.6-.8h-.1l-2.7-20.6,.7-2.2,1.4,.4Z"/><path class="cls-16" d="M406.3,63.2l-1.9-.9,8.7-19.1,1.9,.9-8.7,19.1Zm8.6,3.9l-1.9-.9,8.7-19.1,1.9,.9-8.7,19.1Zm8.6,3.9l-1.9-.9,8.7-19.1,1.9,.9-8.7,19.1Z"/></g></g><g id="small_circle"><circle class="cls-2" cx="305" cy="305" r="250"/></g><g id="constellation_lines"><line class="cls-12" x1="285" y1="315" x2="275" y2="285"/><line class="cls-12" x1="335" y1="285" x2="325" y2="315"/><line class="cls-12" x1="285" y1="315" x2="325" y2="315"/><line class="cls-12" x1="255" y1="255" x2="345" y2="245"/><line class="cls-12" x1="415" y1="295" x2="345" y2="245"/><line class="cls-12" x1="195" y1="295" x2="255" y2="255"/><line class="cls-12" x1="375" y1="355" x2="415" y2="295"/><line class="cls-12" x1="195" y1="295" x2="235" y2="345"/><line class="cls-12" x1="375" y1="355" x2="245" y2="345"/><line class="cls-12" x1="395" y1="245" x2="345" y2="245"/><line class="cls-12" x1="195" y1="295" x2="185" y2="325"/><line class="cls-12" x1="275" y1="285" x2="305" y2="275"/><line class="cls-12" x1="335" y1="285" x2="305" y2="275"/></g><g id="stars"><circle class="cls-4" cx="195.8" cy="295.3" r="16.7"/><circle class="cls-7" cx="333" cy="287" r="8"/><circle class="cls-8" cx="256" cy="255.1" r="13.6"/><circle class="cls-5" cx="285" cy="315" r="10"/><circle class="cls-9" cx="415" cy="295" r="10"/><circle class="cls-3" cx="305" cy="275" r="10"/><circle class="cls-6" cx="345" cy="245" r="10"/><circle class="cls-11" cx="275" cy="285" r="10"/><circle class="cls-10" cx="375" cy="355" r="10"/><circle class="cls-15" cx="393.1" cy="246.9" r="8.1"/><circle class="cls-14" cx="325" cy="315" r="10"/><circle class="cls-13" cx="235" cy="345" r="10"/></g></svg>