<?xml version="1.0" encoding="UTF-8"?><svg xmlns="http://www.w3.org/2000/svg" xmlns:xlink="http://www.w3.org/1999/xlink" viewBox="0 0 610 610"><defs><style>.cls-1{stroke-width:5px;}.cls-1,.cls-2,.cls-3,.cls-4,.cls-5,.cls-6,.cls-7,.cls-8,.cls-9,.cls-10,.cls-11,.cls-12,.cls-13,.cls-14{stroke-miterlimit:10;}.cls-1,.cls-2,.cls-3,.cls-4,.cls-5,.cls-6,.cls-7,.cls-8,.cls-9,.cls-10,.cls-13,.cls-14{stroke:#000;}.cls-1,.cls-11{fill:#231f20;}.cls-2{filter:url(#drop-shadow-6);}.cls-2,.cls-3,.cls-4,.cls-5,.cls-6,.cls-7,.cls-8,.cls-9,.cls-10,.cls-15,.cls-13,.cls-14{fill:ivory;}.cls-2,.cls-3,.cls-4,.cls-5,.cls-6,.cls-7,.cls-8,.cls-9,.cls-10,.cls-11,.cls-12,.cls-13,.cls-14{stroke-width:2px;}.cls-3{filter:url(#drop-shadow-1);}.cls-4{filter:url(#drop-shadow-4);}.cls-5{filter:url(#drop-shadow-7);}.cls-6{filter:url(#drop-shadow-2);}.cls-7{filter:url(#drop-shadow-3);}.cls-8{filter:url(#drop-shadow-5);}.cls-9{filter:url(#drop-shadow-9);}.cls-10{filter:url(#drop-shadow-8);}.cls-11,.cls-12{stroke:ivory;}.cls-12{fill:none;}.cls-13{filter:url(#drop-shadow-11);}.cls-14{filter:url(#drop-shadow-10);}</style><filter id="drop-shadow-1" filterUnits="userSpaceOnUse"><feOffset dx="0" dy="0"/><feGaussianBlur result="blur" stdDeviation="12"/><feFlood flood-color="ivory" flood-opacity=".8"/><feComposite in2="blur" operator="in"/><feComposite in="SourceGraphic"/></filter><filter id="drop-shadow-2" filterUnits="userSpaceOnUse"><feOffset dx="0" dy="0"/><feGaussianBlur result="blur-2" stdDeviation="12"/><feFlood flood-color="ivory" flood-opacity=".8"/><feComposite in2="blur-2" operator="in"/><feComposite in="SourceGraphic"/></filter><filter id="drop-shadow-3" filterUnits="userSpaceOnUse"><feOffset dx="0" dy="0"/><feGaussianBlur result="blur-3" stdDeviation="12"/><feFlood flood-color="ivory" flood-opacity=".8"/><feComposite in2="blur-3" operator="in"/><feComposite in="SourceGraphic"/></filter><filter id="drop-shadow-4" filterUnits="userSpaceOnUse"><feOffset dx="0" dy="0"/><feGaussianBlur result="blur-4" stdDeviation="12"/><feFlood flood-color="ivory" flood-opacity=".8"/><feComposite in2="blur-4" operator="in"/><feComposite in="SourceGraphic"/></filter><filter id="drop-shadow-5" filterUnits="userSpaceOnUse"><feOffset dx="0" dy="0"/><feGaussianBlur result="blur-5" stdDeviation="12"/><feFlood flood-color="ivory" flood-opacity=".8"/><feComposite in2="blur-5" operator="in"/><feComposite in="SourceGraphic"/></filter><filter id="drop-shadow-6" filterUnits="userSpaceOnUse"><feOffset dx="0" dy="0"/><feGaussianBlur result="blur-6" stdDeviation="12"/><feFlood flood-color="ivory" flood-opacity=".8"/><feComposite in2="blur-6" operator="in"/><feComposite in="SourceGraphic"/></filter><filter id="drop-shadow-7" filterUnits="userSpaceOnUse"><feOffset dx="0" dy="0"/><feGaussianBlur result="blur-7" stdDeviation="12"/><feFlood flood-color="ivory" flood-opacity=".8"/><feComposite in2="blur-7" operator="in"/><feComposite in="SourceGraphic"/></filter><filter id="drop-shadow-8" filterUnits="userSpaceOnUse"><feOffset dx="0" dy="0"/><feGaussianBlur result="blur-8" stdDeviation="12"/><feFlood flood-color="ivory" flood-opacity=".8"/><feComposite in2="blur-8" operator="in"/><feComposite in="SourceGraphic"/></filter><filter id="drop-shadow-9" filterUnits="userSpaceOnUse"><feOffset dx="0" dy="0"/><feGaussianBlur result="blur-9" stdDeviation="12"/><feFlood flood-color="ivory" flood-opacity=".8"/><feComposite in2="blur-9" operator="in"/><feComposite in="SourceGraphic"/></filter><filter id="drop-shadow-10" filterUnits="userSpaceOnUse"><feOffset dx="0" dy="0"/><feGaussianBlur result="blur-10" stdDeviation="12"/><feFlood flood-color="ivory" flood-opacity=".8"/><feComposite in2="blur-10" operator="in"/><feComposite in="SourceGraphic"/></filter><filter id="drop-shadow-11" filterUnits="userSpaceOnUse"><feOffset dx="0" dy="0"/><feGaussianBlur result="blur-11" stdDeviation="12"/><feFlood flood-color="ivory" flood-opacity=".8"/><feComposite in2="blur-11" operator="in"/><feComposite in="SourceGraphic"/></filter></defs><g id="large_circle"><circle class="cls-1" cx="305" cy="305" r="300"/></g><g id="left_text"><g><path class="cls-15" d="M44.2,404.6l-2,.7-.7-2h0l-5.4-15.9-.7-2,2-.7,18-6.1,.7,2-18,6.1,5.4,15.9,18-6.1,.7,2-18,6.1Z"/><path class="cls-15" d="M36,379.4l-2.1,.5c-.5-2.2-.7-4.5-.5-6.7,.2-2.2,.7-4.3,1.6-6.3,.9-2,2-3.8,3.4-5.4,1.4-1.7,3-3.1,4.9-4.3,1.9-1.2,4-2,6.2-2.6l.5,2.1c-4.5,1.3-8.1,3.9-10.8,7.8l14.8,9.1,.3,1.5-1.5,.3-14.8-9.1c-2.2,4.1-3,8.5-2.1,13.1Z"/><path class="cls-15" d="M45.9,330.2l2.6,18.7,.3,2.1-2.1,.3-7.3,1h-1l-1,.3-2.6-18.7-7.3,1,2.6,18.7-2.1,.3-2.6-18.7-.3-2.1,2.1-.3,7.3-1h1.1l1-.3,2.6,18.7,7.3-1-2.6-18.7,2.1-.3Z"/><path class="cls-15" d="M44.8,297v11.7l.2,1.2h0v8.1h-11.5l-9.5,.2v-2.4h9.5v-8.5h9.1v-10.3h2.3Zm-9,12.9v5.7h6.8v-5.7h-6.8Z"/><path class="cls-15" d="M39.8,291.5c-1.7,.8-3.5,1.1-5.4,1-1.9-.2-3.6-.8-5.1-1.8-1.5-1.1-2.7-2.4-3.5-4.1-.8-1.7-1.1-3.5-1-5.4,.2-1.9,.8-3.6,1.8-5.1,1.1-1.5,2.4-2.7,4.1-3.5,1.7-.8,3.5-1.1,5.4-1,1.9,.2,3.6,.8,5.1,1.8s2.7,2.4,3.5,4.1c.8,1.7,1.1,3.5,1,5.4-.2,1.9-.8,3.6-1.8,5.1-1.1,1.5-2.4,2.7-4.1,3.5Zm-6.3-1.3l1.4-16.6c-2.1,0-3.9,.9-5.4,2.3s-2.4,3.2-2.6,5.4c-.2,2.1,.4,4,1.6,5.7,1.3,1.7,2.9,2.8,5,3.2Zm2.1,.2c2.1,0,3.9-.9,5.5-2.3,1.5-1.5,2.4-3.2,2.6-5.4,.2-2.1-.4-4-1.6-5.7-1.3-1.7-2.9-2.8-5-3.2l-1.4,16.6Z"/><path class="cls-15" d="M28.5,253.8l20.5-6.2,2,.4-3.8,20.7-2-.4h0l-17.1-12v-.4l.4-1.8v-.4Zm1.7,1.6l15.4,10.8,3-16.3-18.4,5.5Z"/><path class="cls-15" d="M37.3,218.4l.8,.2,1.2,.3,16.3,4.6,1.9,.5-5.7,20.2-1.9-.5,5.2-18.3-16.3-4.6-5.2,18.3-1.9-.6,5.7-20.2Z"/><path class="cls-15" d="M41,213.8l-1.9-.8,.7-2h0l6.1-15.7,.8-1.9,1.9,.8,17.7,6.9-.8,1.9-17.7-6.9-6.1,15.7,17.7,6.9-.8,1.9-17.7-6.9Z"/><path class="cls-15" d="M53.7,178.5l20.5,1-11.8-16.9,.7-1.2,2.1,1.2,11.9,16.9-1.2,2.4h0l-20.7-.9-2.1-1.1,.6-1.4Z"/><path class="cls-15" d="M79.5,140.3l-5.3,7.8,13.9,9.4,5.3-7.8,1.7,1.2-5.3,7.8-1.2,1.7-5.3,7.8-1.7-1.2,5.3-7.8-13.9-9.4-5.3,7.8-1.7-1.2,5.3-7.8,1.2-1.7,5.3-7.8,1.7,1.2Z"/><path class="cls-15" d="M104.7,139.1l-1.3,1.6-7.4-6-5.9,7.2-1.6-1.3,5.9-7.2-5.6-4.6-5.9,7.2-1.6-1.3,13.3-16.2,1.6,1.3-6.1,7.4,5.6,4.6,6.1-7.4,1.6,1.3-6.1,7.4,7.4,6Z"/><path class="cls-15" d="M99.8,115.5l-1.5-1.5,1.5-1.5h0l11.9-11.9,1.5-1.5,1.5,1.5,13.4,13.4-1.5,1.5-13.4-13.4-11.9,11.9,13.4,13.4-1.5,1.5-13.5-13.4Z"/><path class="cls-15" d="M148.1,85.7h0l-8.1,15.5,12.6-9.8,1.3,1.7-16.6,12.9-1.3-1.6h0l9.4-17.9-19.7,4.7h0v-.2l-1.3-1.5,16.6-12.9,1.3,1.7-12.7,9.8,17.1-4.1h0l1.4,1.8h0Z"/><path class="cls-15" d="M146.7,75l-1.1-1.8c1.9-1.2,4-2.1,6.2-2.6,2.2-.5,4.3-.7,6.5-.6,2.1,.2,4.2,.6,6.2,1.4,2,.8,3.9,1.9,5.6,3.3,1.7,1.4,3.2,3.1,4.4,5l-1.8,1.1c-2.7-3.8-6.3-6.4-10.9-7.7l-3.8,17-1.3,.8-.8-1.3,3.8-17c-4.6-.8-9,0-13.1,2.3Z"/><path class="cls-15" d="M188,51.5l-18.7,9.5-.9-1.9,18.7-9.5,.9,1.9Zm4.3,8.4l-18.7,9.5-.9-1.9,18.7-9.5,.9,1.9Zm4.3,8.4l-18.7,9.5-.9-1.9,18.7-9.5,.9,1.9Z"/><path class="cls-15" d="M193.7,46.6l15.1,13.9,1.8-20.5,1.3-.5,.9,2.2-1.8,20.7-2.5,1h-.1l-15.2-14.1-.9-2.2,1.4-.6Z"/><path class="cls-15" d="M238.1,34l-9.1,2.6,4.6,16.1,9.1-2.6,.6,2-9.1,2.6-2,.6-9.1,2.6-.6-2,9.1-2.6-4.6-16.1-9.1,2.6-.6-2,9.1-2.6,2-.6,9.1-2.6,.6,2Z"/><path class="cls-15" d="M267.5,47.4l-18.6,3.5-2.1,.4-.4-2.1-1.3-7.2-.2-1-.2-1,18.6-3.5-1.3-7.2-18.6,3.5-.4-2.1,18.6-3.5,2.1-.4,.4,2.1,1.3,7.2,.2,1.1,.2,1-18.6,3.5,1.3,7.2,18.6-3.5,.4,2.1Z"/></g></g><g id="name"><g><path class="cls-15" d="M222.1,566.1h0l.3-1.1v-.2l.3-.8h0l22.7-3.4h0l-.6,2.2-17.4,2.6,15.5,4.3-.6,2-15.5-4.3,13.6,11.2-.6,2.1h0l-17.8-14.6Z"/><path class="cls-15" d="M252.9,564.1l.3-2.1,2.1,.3h0l16.6,2.7,2.1,.3-.3,2.1-3,18.7-2.1-.3,3-18.7-16.6-2.6-3,18.7-2.1-.3,3-18.7Z"/><path class="cls-15" d="M293.2,566.7l8.8,19.5v2l-21.1-1v-2h.1l9.6-18.6h2.6Zm-1.3,2l-8.6,16.7,16.5,.8-7.9-17.5Z"/><path class="cls-15" d="M323.6,587.4h-2.1l-.6-9.4-9.3,.6v-2.1l9.2-.6-.4-7.3-9.3,.6v-2.1l20.8-1.3v2.1l-9.4,.6,.4,7.3,9.5-.6v2.1l-9.4,.6,.6,9.5Z"/><path class="cls-15" d="M343.7,580.3c-1.2-1.4-2-3.1-2.3-5-.3-1.9-.2-3.7,.5-5.4s1.7-3.2,3.1-4.4c1.4-1.2,3.1-2,5-2.3,1.9-.3,3.7-.2,5.4,.5,1.7,.6,3.2,1.7,4.4,3.1,1.2,1.4,2,3.1,2.3,5,.3,1.9,.2,3.7-.5,5.4-.6,1.7-1.7,3.2-3.1,4.4-1.4,1.2-3.1,2-5,2.3-1.9,.3-3.7,.2-5.4-.5-1.7-.6-3.2-1.7-4.4-3.1Zm-.3-6.4l16.4-2.8c-.6-2-1.8-3.6-3.6-4.7-1.8-1.1-3.7-1.5-5.8-1.1-2.1,.4-3.8,1.4-5.1,3-1.3,1.6-1.9,3.5-1.8,5.6Zm.4,2.1c.6,2,1.8,3.6,3.6,4.7,1.8,1.1,3.7,1.5,5.8,1.1,2.1-.4,3.8-1.4,5.1-3,1.3-1.7,1.9-3.5,1.8-5.6l-16.4,2.8Z"/><path class="cls-15" d="M394.2,573.9l-18.1,5.3-2,.6-.6-2-2-7-.3-1-.3-1,18.1-5.3-2-7-18.1,5.3-.6-2,18.1-5.3,2-.6,.6,2,2,7,.3,1,.3,1-18.1,5.3,2,7,18.1-5.3,.6,2Z"/></g></g><g id="right_text"><g><path class="cls-15" d="M399,42.1l.8-1.9,2,.7h0l15.6,6.3,1.9,.8-.8,1.9-7,17.6-1.9-.8,7-17.6-15.6-6.2-7,17.6-1.9-.8,7-17.6Z"/><path class="cls-15" d="M427.5,54.2l1-1.9c2,1.1,3.8,2.4,5.3,4.1,1.5,1.6,2.8,3.4,3.7,5.4s1.5,4,1.9,6.1,.3,4.3,0,6.5c-.4,2.2-1.1,4.3-2.2,6.3l-1.9-1c2-4.3,2.4-8.7,1.3-13.2l-16.6,5-1.3-.7,.7-1.3,16.6-5.1c-1.6-4.4-4.4-7.8-8.4-10.3Z"/><path class="cls-15" d="M453.3,91.3l-1.7-1.2,5.4-7.9-7.7-5.3,1.2-1.7,7.7,5.3,4.1-6-7.7-5.3,1.2-1.7,17.3,11.9-1.2,1.7-7.9-5.4-4.1,6,7.9,5.4-1.2,1.7-7.9-5.4-5.4,7.9Z"/><path class="cls-15" d="M495.6,100.9l-7.1-6.2-11,12.7,7.1,6.2-1.4,1.6-7.1-6.2-1.6-1.4-7.1-6.2,1.4-1.6,7.1,6.2,11-12.7-7.1-6.2,1.4-1.6,7.1,6.2,1.6,1.4,7.1,6.2-1.4,1.6Z"/><path class="cls-15" d="M512.1,114.8l-7.4,6.9h0l-.7,13.6-.9,.8-1.1-1.2,.6-12.5-12.5-.3-1.2-1.3,.9-.8,13.5,.3h0l7.4-6.8,1.4,1.5Z"/><path class="cls-15" d="M520.6,159.1l-12.4-16.9,1.7-1.2,12.4,16.9-1.7,1.2Zm7.6-5.6l-12.4-16.9,1.7-1.2,12.4,16.9-1.7,1.2Zm7.6-5.6l-12.4-16.9,1.7-1.2,12.4,16.9-1.7,1.2Z"/><path class="cls-15" d="M553.6,173.2l-1.1,.7-12.5-3.3-3.5,12.5-1.1,.7-.8-1.5,3.4-12.2-12.5-3.3-.7-1.1,1.4-.8,12.3,3.2,3.4-12.3,1.1-.7,.9,1.5-3.3,11.9,12.2,3.2,.9,1.5Z"/><path class="cls-15" d="M553.7,221.1l-2,.8-.8-2-6-15.7-.8-2,2-.8,7.2-2.8,2-.8,8.4-3.2,.8,2-8.4,3.2,6,15.7,8.4-3.2,.8,2-17.6,6.8Zm-.8-2l7.2-2.8-6-15.7-7.2,2.8,6,15.7Z"/><path class="cls-15" d="M572.4,224.6l2.1-.5c.6,2.2,.8,4.4,.6,6.7-.1,2.2-.6,4.4-1.4,6.4-.8,2-1.9,3.8-3.2,5.5-1.3,1.7-3,3.1-4.8,4.4-1.9,1.2-3.9,2.1-6.1,2.7l-.5-2.1c4.5-1.4,8-4.1,10.6-8l-15-8.8-.4-1.4,1.4-.4,15,8.8c2.1-4.2,2.8-8.6,1.8-13.2Z"/><path class="cls-15" d="M582.7,275.4l-1.4-9.4-16.6,2.4,1.4,9.4-2.1,.3-1.4-9.4-.3-2.1-1.4-9.4,2.1-.3,1.4,9.4,16.6-2.4-1.4-9.4,2.1-.3,1.4,9.4,.3,2.1,1.4,9.4-2.1,.3Z"/><path class="cls-15" d="M564.8,288v-2.1l20.9-.7v2.1l-20.9,.7Zm.3,9.4v-2.1l20.9-.7v2.1l-20.9,.7Zm.3,9.4v-2.1l20.9-.7v2.1l-20.9,.7Z"/><path class="cls-15" d="M586.2,318l-19.1,7.5,17.7,10.6v1.4l-2.6-.2-17.8-10.6,.2-2.7h0l19.4-7.6,2.3,.2v1.5Z"/><path class="cls-15" d="M558.6,364.1l3.6-18.5,.4-2.1,2.1,.4,7.2,1.4,1,.2,1,.2-3.6,18.5,7.2,1.4,3.6-18.5,2.1,.4-3.6,18.5-.4,2.1-2.1-.4-7.2-1.4-1.1-.2-1-.2,3.6-18.5-7.2-1.4-3.6,18.5-2.1-.4Z"/></g></g><g id="small_circle"><circle class="cls-11" cx="305" cy="305" r="250"/></g><g id="constellation"><line class="cls-12" x1="273.2" y1="344.9" x2="299.5" y2="458.5"/><line class="cls-12" x1="267.3" y1="281.2" x2="273.2" y2="344.9"/><line class="cls-12" x1="268.5" y1="210.5" x2="267.3" y2="281.2"/><line class="cls-12" x1="276.7" y1="146.9" x2="268.5" y2="210.5"/><line class="cls-12" x1="308" y1="380.9" x2="286.4" y2="401.7"/><line class="cls-12" x1="337.5" y1="310.7" x2="280.2" y2="352.1"/><line class="cls-12" x1="352.4" y1="268.5" x2="267.3" y2="281.2"/><line class="cls-12" x1="304" y1="204" x2="268.5" y2="210.5"/><line class="cls-12" x1="318.9" y1="161.8" x2="276.7" y2="146.9"/><line class="cls-12" x1="352.4" y1="268.5" x2="325.8" y2="169"/><line class="cls-12" x1="330.3" y1="317.6" x2="352.4" y2="268.5"/><line class="cls-12" x1="308" y1="380.9" x2="337.5" y2="310.7"/><line class="cls-12" x1="304" y1="204" x2="332.3" y2="204.5"/><circle class="cls-3" cx="275.1" cy="355" r="13.3"/><circle class="cls-6" cx="307.8" cy="380.5" r="10"/><circle class="cls-7" cx="265.6" cy="283.8" r="10"/><circle class="cls-4" cx="303.7" cy="205.5" r="10"/><circle class="cls-8" cx="300.2" cy="459.6" r="10"/><circle class="cls-2" cx="273.4" cy="151.2" r="10"/><circle class="cls-5" cx="267.3" cy="214.9" r="10"/><circle class="cls-10" cx="333.1" cy="315.3" r="10"/><circle class="cls-9" cx="350.8" cy="269.2" r="8"/><circle class="cls-14" cx="325.4" cy="167.7" r="16.1"/><circle class="cls-13" cx="304.5" cy="337.5" r="10"/></g></svg>