<?xml version="1.0" encoding="UTF-8"?><svg xmlns="http://www.w3.org/2000/svg" xmlns:xlink="http://www.w3.org/1999/xlink" viewBox="0 0 610 610"><defs><style>.cls-1{stroke-width:5px;}.cls-1,.cls-2,.cls-3,.cls-4,.cls-5,.cls-6,.cls-7,.cls-8,.cls-9,.cls-10{stroke:#000;}.cls-1,.cls-2,.cls-3,.cls-4,.cls-5,.cls-6,.cls-7,.cls-8,.cls-9,.cls-10,.cls-11,.cls-12{stroke-miterlimit:10;}.cls-1,.cls-12{fill:#231f20;}.cls-2{filter:url(#drop-shadow-6);}.cls-2,.cls-3,.cls-4,.cls-5,.cls-6,.cls-7,.cls-8,.cls-9,.cls-10,.cls-13,.cls-11{fill:ivory;}.cls-2,.cls-3,.cls-4,.cls-5,.cls-6,.cls-7,.cls-8,.cls-9,.cls-10,.cls-11,.cls-12{stroke-width:2px;}.cls-3{filter:url(#drop-shadow-1);}.cls-4{filter:url(#drop-shadow-4);}.cls-5{filter:url(#drop-shadow-7);}.cls-6{filter:url(#drop-shadow-2);}.cls-7{filter:url(#drop-shadow-3);}.cls-8{filter:url(#drop-shadow-5);}.cls-9{filter:url(#drop-shadow-9);}.cls-10{filter:url(#drop-shadow-8);}.cls-11,.cls-12{stroke:ivory;}</style><filter id="drop-shadow-1" filterUnits="userSpaceOnUse"><feOffset dx="0" dy="0"/><feGaussianBlur result="blur" stdDeviation="12"/><feFlood flood-color="ivory" flood-opacity=".8"/><feComposite in2="blur" operator="in"/><feComposite in="SourceGraphic"/></filter><filter id="drop-shadow-2" filterUnits="userSpaceOnUse"><feOffset dx="0" dy="0"/><feGaussianBlur result="blur-2" stdDeviation="12"/><feFlood flood-color="ivory" flood-opacity=".8"/><feComposite in2="blur-2" operator="in"/><feComposite in="SourceGraphic"/></filter><filter id="drop-shadow-3" filterUnits="userSpaceOnUse"><feOffset dx="0" dy="0"/><feGaussianBlur result="blur-3" stdDeviation="12"/><feFlood flood-color="ivory" flood-opacity=".8"/><feComposite in2="blur-3" operator="in"/><feComposite in="SourceGraphic"/></filter><filter id="drop-shadow-4" filterUnits="userSpaceOnUse"><feOffset dx="0" dy="0"/><feGaussianBlur result="blur-4" stdDeviation="12"/><feFlood flood-color="ivory" flood-opacity=".8"/><feComposite in2="blur-4" operator="in"/><feComposite in="SourceGraphic"/></filter><filter id="drop-shadow-5" filterUnits="userSpaceOnUse"><feOffset dx="0" dy="0"/><feGaussianBlur result="blur-5" stdDeviation="12"/><feFlood flood-color="ivory" flood-opacity=".8"/><feComposite in2="blur-5" operator="in"/><feComposite in="SourceGraphic"/></filter><filter id="drop-shadow-6" filterUnits="userSpaceOnUse"><feOffset dx="0" dy="0"/><feGaussianBlur result="blur-6" stdDeviation="12"/><feFlood flood-color="ivory" flood-opacity=".8"/><feComposite in2="blur-6" operator="in"/><feComposite in="SourceGraphic"/></filter><filter id="drop-shadow-7" filterUnits="userSpaceOnUse"><feOffset dx="0" dy="0"/><feGaussianBlur result="blur-7" stdDeviation="12"/><feFlood flood-color="ivory" flood-opacity=".8"/><feComposite in2="blur-7" operator="in"/><feComposite in="SourceGraphic"/></filter><filter id="drop-shadow-8" filterUnits="userSpaceOnUse"><feOffset dx="0" dy="0"/><feGaussianBlur result="blur-8" stdDeviation="12"/><feFlood flood-color="ivory" flood-opacity=".8"/><feComposite in2="blur-8" operator="in"/><feComposite in="SourceGraphic"/></filter><filter id="drop-shadow-9" filterUnits="userSpaceOnUse"><feOffset dx="0" dy="0"/><feGaussianBlur result="blur-9" stdDeviation="12"/><feFlood flood-color="ivory" flood-opacity=".8"/><feComposite in2="blur-9" operator="in"/><feComposite in="SourceGraphic"/></filter></defs><g id="large_circle"><circle class="cls-1" cx="305" cy="305" r="300"/></g><g id="left_text"><g><path class="cls-13" d="M27.9,338l-2.1,.2c-.2-2.3,0-4.5,.5-6.7s1.4-4.2,2.5-6c1.2-1.8,2.5-3.4,4.1-4.9,1.6-1.4,3.5-2.6,5.5-3.5s4.2-1.4,6.5-1.6l.2,2.1c-4.7,.6-8.6,2.7-11.8,6.1l13.2,11.3v1.5h-1.4l-13.3-11.1c-2.8,3.7-4.2,8-4.1,12.7Z"/><path class="cls-13" d="M26.5,286.1l-.6,21h-2.1l.6-21.1h2.1Zm9.4,.3l-.6,21h-2.1l.6-21.1h2.1Zm9.4,.3l-.6,21h-2.1l.6-21.1h2.1Z"/><path class="cls-13" d="M49,258.1l-2.6,18.7-.3,2.1-2.1-.3-7.3-1h-1l-1-.3,2.6-18.7-7.3-1-2.6,18.7-2.1-.3,2.6-18.7,.3-2.1,2.1,.3,7.3,1,1.1,.2h1l-2.6,18.8,7.3,1,2.6-18.7,2.1,.3Z"/><path class="cls-13" d="M53.7,229.5l2.1,.5-.5,2-4.2,16.3-.5,2-2.1-.5-7.5-1.9-2.1-.5-8.7-2.3,.5-2,8.7,2.3,4.2-16.3-8.7-2.3,.5-2,18.3,4.7Zm-.5,2l-7.5-1.9-4.2,16.3,7.5,1.9,4.2-16.3Z"/><path class="cls-13" d="M38.9,213.6l20.5-1.8-14-15.2,.5-1.3,2.3,.9,14.1,15.2-.9,2.6h0l-20.7,1.9-2.2-.8,.5-1.4Z"/><path class="cls-13" d="M68.5,156.8l-4.7,8.2,14.6,8.4,4.7-8.2,1.8,1-4.7,8.2-1,1.8-4.7,8.2-1.8-1,4.7-8.2-14.6-8.4-4.7,8.2-1.8-1,4.7-8.2,1-1.8,4.7-8.2,1.8,1Z"/><path class="cls-13" d="M90.4,157.9l-1.2,1.7-16.9-12.4,1.2-1.7,16.9,12.4Zm5.6-7.6l-1.2,1.7-16.9-12.4,1.2-1.7,16.9,12.4Zm5.6-7.6l-1.2,1.7-16.9-12.4,1.2-1.7,16.9,12.4Z"/><path class="cls-13" d="M119.2,119.7l1.6,1.4-1.4,1.5-11.4,12.4-1.4,1.5-1.6-1.4-5.7-5.2-1.6-1.4-6.7-6.1,1.4-1.5,6.7,6.1,11.4-12.4-6.7-6.1,1.4-1.5,13.9,12.8Zm-1.4,1.5l-5.7-5.2-11.4,12.4,5.7,5.2,11.4-12.4Z"/><path class="cls-13" d="M129.8,87.6l-15.8,13.8-1.4-1.6,15.8-13.8,1.4,1.6Zm6.2,7.1l-15.8,13.8-1.4-1.6,15.8-13.8,1.4,1.6Zm6.2,7.1l-15.8,13.8-1.4-1.6,15.8-13.8,1.4,1.6Z"/><path class="cls-13" d="M137.6,81.5l-1.2-1.7c1.9-1.3,3.9-2.3,6.1-2.9,2.2-.6,4.3-.9,6.5-.8,2.2,0,4.3,.5,6.3,1.1,2,.7,4,1.7,5.8,3.1,1.8,1.4,3.3,3,4.6,4.8l-1.7,1.2c-2.9-3.7-6.6-6.1-11.2-7.2l-3.1,17.1-1.2,.8-.8-1.2,3.1-17.1c-4.7-.6-9,.3-13,2.8Z"/><path class="cls-13" d="M181.9,54.4l-8.3,4.5,8,14.8,8.3-4.5,1,1.8-8.3,4.5-1.8,1-8.3,4.5-1-1.8,8.3-4.5-8-14.8-8.3,4.5-1-1.8,8.3-4.5,1.8-1,8.3-4.5,1,1.8Z"/><path class="cls-13" d="M190.8,50.2l-.8-1.9,1.9-.8h0l15.6-6.2,1.9-.8,.8,1.9,7.1,17.6-1.9,.8-7.1-17.6-15.6,6.3,7.1,17.6-1.9,.8-7.1-17.6Z"/></g></g><g id="name"><g><path class="cls-13" d="M236.3,557.9l-2.7,9.8h0l6.6,11.9-.3,1.1-1.6-.4-6.1-11-10.8,6.3-1.8-.5,.3-1.2,11.7-6.9h0l2.7-9.7,2,.5Z"/><path class="cls-13" d="M252.9,564.1l.3-2.1,2.1,.3h0l16.6,2.7,2.1,.3-.3,2.1-3,18.7-2.1-.3,3-18.7-16.6-2.6-3,18.7-2.1-.3,3-18.7Z"/><path class="cls-13" d="M292.3,587.7h-2.1l.4-9.6-9.3-.4v-2.1l9.4,.4,.3-7.3-9.3-.4v-2.1l21.1,1v2.1l-9.6-.5-.3,7.3,9.5,.5v2.1l-9.6-.5-.4,9.5Z"/><path class="cls-13" d="M331.9,568l-9.4,.6,1,16.8,9.4-.6v2.1l-9.3,.6h-2.1l-9.4,.7v-2.1l9.3-.6-1-16.8-9.4,.6v-2.1l9.3-.6h2.1l9.4-.7v2.1Z"/><path class="cls-13" d="M343.7,580.3c-1.2-1.4-2-3.1-2.3-5-.3-1.9-.2-3.7,.5-5.4s1.7-3.2,3.1-4.4c1.4-1.2,3.1-2,5-2.3,1.9-.3,3.7-.2,5.4,.5,1.7,.6,3.2,1.7,4.4,3.1,1.2,1.4,2,3.1,2.3,5,.3,1.9,.2,3.7-.5,5.4-.6,1.7-1.7,3.2-3.1,4.4-1.4,1.2-3.1,2-5,2.3-1.9,.3-3.7,.2-5.4-.5-1.7-.6-3.2-1.7-4.4-3.1Zm-.3-6.4l16.4-2.8c-.6-2-1.8-3.6-3.6-4.7-1.8-1.1-3.7-1.5-5.8-1.1-2.1,.4-3.8,1.4-5.1,3-1.3,1.6-1.9,3.5-1.8,5.6Zm.4,2.1c.6,2,1.8,3.6,3.6,4.7,1.8,1.1,3.7,1.5,5.8,1.1,2.1-.4,3.8-1.4,5.1-3,1.3-1.7,1.9-3.5,1.8-5.6l-16.4,2.8Z"/><path class="cls-13" d="M394.2,573.9l-18.1,5.3-2,.6-.6-2-2-7-.3-1-.3-1,18.1-5.3-2-7-18.1,5.3-.6-2,18.1-5.3,2-.6,.6,2,2,7,.3,1,.3,1-18.1,5.3,2,7,18.1-5.3,.6,2Z"/></g></g><g id="right_text"><g><path class="cls-13" d="M424.7,50.7l-4.3,9.2h0l4.5,12.8-.5,1.1-1.5-.7-4.2-11.8-11.7,4.4-1.7-.8,.5-1.1,12.7-4.8h0l4.3-9.1,1.8,.9Z"/><path class="cls-13" d="M435.3,73.7c0-1.9,.5-3.6,1.5-5.2,1-1.6,2.3-2.9,3.9-3.8,1.6-.9,3.4-1.3,5.3-1.3,1.9,0,3.6,.5,5.2,1.5s2.9,2.3,3.8,3.9,1.3,3.4,1.3,5.3-.5,3.6-1.5,5.2c-1,1.6-2.3,2.9-3.9,3.8s-3.4,1.3-5.3,1.3c-1.9,0-3.6-.5-5.2-1.5-1.6-1-2.9-2.3-3.8-3.9-.9-1.6-1.3-3.4-1.3-5.3Zm2.8-3.2c-.9,1.9-1,3.9-.4,5.9,.6,2,1.8,3.6,3.7,4.7,1.8,1.1,3.8,1.5,5.9,1.1s3.8-1.4,5.1-3l-14.2-8.7Zm1.1-1.8l14.2,8.7c.9-1.9,1-3.9,.3-5.9-.6-2-1.8-3.6-3.7-4.7-1.8-1.1-3.8-1.5-5.8-1.1-2.1,.4-3.8,1.4-5.1,3Z"/><path class="cls-13" d="M467.4,77.9l1.3-1.7c1.8,1.4,3.3,3,4.6,4.9s2.2,3.8,2.7,5.9c.6,2.1,.8,4.2,.8,6.3s-.4,4.3-1.2,6.4c-.7,2.1-1.8,4.1-3.2,5.9l-1.7-1.3c2.7-3.9,3.8-8.1,3.5-12.8l-17.2,2.2-1.2-.9,.9-1.2,17.2-2.2c-.9-4.6-3.1-8.5-6.6-11.5Z"/><path class="cls-13" d="M479.9,112.3l-1.5-1.5,14.6-15.1,1.5,1.5-14.6,15.1Zm6.8,6.6l-1.5-1.5,14.6-15.1,1.5,1.5-14.6,15.1Zm6.8,6.6l-1.5-1.5,14.6-15.1,1.5,1.5-14.6,15.1Z"/><path class="cls-13" d="M526.7,135.3l-6-7.3-13,10.7,6,7.3-1.6,1.3-6-7.3-1.3-1.6-6-7.3,1.6-1.3,6,7.3,13-10.7-6-7.3,1.6-1.3,6,7.3,1.3,1.6,6,7.3-1.6,1.3Z"/><path class="cls-13" d="M536,166.2l-18-10.8-1.1-1.8,17.6-11.5,1.1,1.7h0l2.7,20.8-.4,.2-1.6,1-.3,.2Zm-9.1-7.9l7.8-5.1-1.1-8.1-13.7,9,7,4.2Zm2,1.2l7.1,4.3-1.1-8.2-6.1,4Z"/><path class="cls-13" d="M537.5,176.9c1-1.6,2.4-2.8,4.1-3.6,1.7-.9,3.5-1.2,5.3-1.1,1.9,.1,3.6,.7,5.1,1.7s2.8,2.4,3.6,4.1c.9,1.7,1.2,3.5,1.1,5.3-.1,1.9-.7,3.6-1.7,5.1-1,1.6-2.4,2.8-4.1,3.6-1.7,.9-3.5,1.2-5.3,1.1s-3.6-.7-5.1-1.7c-1.6-1-2.8-2.4-3.6-4.1-.9-1.7-1.2-3.5-1.1-5.3s.7-3.6,1.7-5.1Zm4.1-1.2c-1.7,1.2-2.9,2.8-3.4,4.8s-.3,4,.6,5.9,2.4,3.2,4.4,4c2,.8,3.9,.8,5.9,0l-7.5-14.9Zm1.9-1l7.5,14.9c1.7-1.2,2.9-2.8,3.4-4.8,.5-2,.3-4-.6-5.9-1-1.9-2.4-3.2-4.4-4-2-.8-3.9-.8-5.9-.1Z"/><path class="cls-13" d="M567.5,209.9l2-.7c.7,2.2,1,4.4,1,6.6,0,2.2-.4,4.4-1.1,6.4-.7,2-1.7,3.9-2.9,5.7-1.2,1.8-2.8,3.3-4.6,4.6-1.8,1.3-3.8,2.3-6,3l-.7-2c4.4-1.7,7.8-4.5,10.1-8.6l-15.5-7.9-.5-1.4,1.4-.5,15.5,7.9c1.9-4.3,2.3-8.7,1.1-13.3Z"/><path class="cls-13" d="M562.1,263.8l-4.2-20.6,2.1-.4,4.2,20.6-2.1,.4Zm9.3-1.9l-4.2-20.6,2.1-.4,4.2,20.6-2.1,.4Zm9.3-1.9l-4.2-20.6,2.1-.4,4.2,20.6-2.1,.4Z"/><path class="cls-13" d="M586,290.6h-.8l-1.2,.2-16.9,1.5-2,.2-1.8-20.9,2-.2,1.7,18.9,16.9-1.5-1.7-18.9,2-.2,1.8,20.9Z"/><path class="cls-13" d="M586.5,302.4l-18.7,8.5,18.2,9.6v1.4h-2.5l-18.4-9.7v-2.7h0l18.9-8.7h2.4v1.5Z"/><path class="cls-13" d="M561.4,350l.3-2.1,20.8,2.8-.3,2.1-20.8-2.8Zm1.3-9.4l.3-2.1,20.8,2.8-.3,2.1-20.8-2.8Zm1.3-9.4l.3-2.1,20.8,2.8-.3,2.1-20.8-2.8Z"/></g></g><g id="small_circle"><circle class="cls-12" cx="305" cy="305" r="250"/></g><g id="constellation"><line class="cls-11" x1="305.7" y1="169.9" x2="305.7" y2="265"/><line class="cls-11" x1="375.3" y1="265" x2="234.7" y2="265"/><line class="cls-11" x1="330.6" y1="265" x2="305.7" y2="453.6"/><line class="cls-11" x1="285.1" y1="265" x2="305.7" y2="453.6"/><circle class="cls-3" cx="368.8" cy="266.1" r="13.7"/><circle class="cls-6" cx="244.7" cy="265" r="10"/><circle class="cls-7" cx="290.6" cy="316.9" r="10"/><circle class="cls-4" cx="325.7" cy="296.9" r="10"/><circle class="cls-8" cx="305.5" cy="165.2" r="16.9"/><circle class="cls-2" cx="330.6" cy="265" r="10"/><circle class="cls-5" cx="306.4" cy="452.4" r="8.8"/><circle class="cls-10" cx="305.7" cy="224.7" r="10"/><circle class="cls-9" cx="315.7" cy="369.3" r="10"/></g></svg>