<?xml version="1.0" encoding="UTF-8"?><svg xmlns="http://www.w3.org/2000/svg" xmlns:xlink="http://www.w3.org/1999/xlink" viewBox="0 0 610 610"><defs><style>.cls-1,.cls-2,.cls-3{fill:none;}.cls-4{fill:#231f20;stroke-width:5px;}.cls-4,.cls-5,.cls-6,.cls-7,.cls-8,.cls-9,.cls-10,.cls-11,.cls-12,.cls-13{stroke:#000;}.cls-4,.cls-5,.cls-6,.cls-7,.cls-8,.cls-9,.cls-10,.cls-11,.cls-12,.cls-13,.cls-14,.cls-15{stroke-miterlimit:10;}.cls-5{filter:url(#drop-shadow-6);}.cls-5,.cls-6,.cls-7,.cls-8,.cls-9,.cls-10,.cls-11,.cls-12,.cls-13,.cls-16,.cls-14{fill:ivory;}.cls-5,.cls-6,.cls-7,.cls-8,.cls-9,.cls-10,.cls-11,.cls-12,.cls-13,.cls-14,.cls-15{stroke-width:2px;}.cls-6{filter:url(#drop-shadow-1);}.cls-7{filter:url(#drop-shadow-4);}.cls-8{filter:url(#drop-shadow-7);}.cls-9{filter:url(#drop-shadow-2);}.cls-10{filter:url(#drop-shadow-3);}.cls-11{filter:url(#drop-shadow-5);}.cls-12{filter:url(#drop-shadow-9);}.cls-13{filter:url(#drop-shadow-8);}.cls-14,.cls-15{stroke:ivory;}.cls-2{stroke-linejoin:bevel;}.cls-2,.cls-3{stroke:#231f20;stroke-width:.3px;}.cls-15{fill:url(#Hatching_Dense);}</style><pattern id="Hatching_Dense" x="0" y="0" width="72" height="72" patternTransform="translate(-95 -95)" patternUnits="userSpaceOnUse" viewBox="0 0 72 72"><g><rect class="cls-1" width="72" height="72"/><g><polyline class="cls-2" points="30.8 71.3 32.5 73 50.2 90.8"/><polyline class="cls-3" points="35.2 71.2 37.1 73.1 44.6 80.8"/><polyline class="cls-2" points="45.6 71.2 45.8 73.3 46.6 84.3"/><polyline class="cls-2" points="65.7 71.2 66.2 72.9 70.9 89"/><polyline class="cls-2" points="48.9 71.2 49.1 73.2 50.4 88"/><polyline class="cls-2" points="53.5 71.3 53.8 73.1 55.6 87.8"/><polyline class="cls-2" points="57.2 71.3 57.4 73.1 59.4 86.8"/><polyline class="cls-2" points="62.2 71.3 62.6 73 66.2 88.1"/><polyline class="cls-3" points="40.8 71.2 42.6 72.9 44.1 74.4"/><polyline class="cls-3" points="25.6 71.2 27.1 73.1 42.8 92.7"/><polyline class="cls-3" points="4.2 70.8 6.8 73.2 9.6 76.1"/><polyline class="cls-3" points=".8 71.4 2 72.9 6.9 78.8"/><polyline class="cls-2" points="69.4 71.2 71.5 74.2 72.7 75.9"/><polyline class="cls-2" points="68.9 70.9 69.7 73 71.5 77.4 72.6 80"/></g><g><polyline class="cls-2" points="-2.6 71.2 -.5 74.2 .7 75.9"/><polyline class="cls-2" points="-3.1 70.9 -2.3 73 -.5 77.4 .6 80"/></g><g><polyline class="cls-2" points="71.5 2.2 72.7 3.9 76.6 9.2"/><polyline class="cls-2" points="71.5 5.4 72.6 8 74.9 13.7"/><polyline class="cls-3" points="71.4 22 72.6 20.7 80.7 11.4"/><polyline class="cls-3" points="71.2 30.9 72.7 29.4 90.2 11.9"/><polyline class="cls-3" points="71.4 17.2 72.8 15.9 77.2 11.2"/><polyline class="cls-3" points="71.4 25.6 72.7 24.4 85.5 11.6"/><polyline class="cls-2" points="71.2 54.8 72.7 53.8 77.1 51"/><polyline class="cls-3" points="71.2 58 72.8 57 80.4 52.2"/><polyline class="cls-3" points="71 64 72.7 62.8 83.9 55.2"/><polyline class="cls-3" points="74.2 65.2 72.7 66.1 71 67.1"/><polyline class="cls-3" points="71.1 51.5 72.6 51.7 74.4 52"/><polyline class="cls-3" points="73.8 48.2 72.7 47.9 71 47.3"/><polyline class="cls-2" points="74.7 50.1 72.6 49.7 71.1 49.3"/><polyline class="cls-3" points="71.3 39.3 72.7 40.3 76.9 43.5"/><polyline class="cls-3" points="71.2 42.5 72.8 43.5 76.1 45.5"/><polyline class="cls-2" points="71.3 34.6 72.9 36 78.9 41.2"/><polyline class="cls-2" points="71.1 45.8 72.7 46.8 74.1 47.6"/><polyline class="cls-3" points="72 66.5 76.2 70.8 78.7 73.2"/><polyline class="cls-3" points="69.6 67.6 72.8 71.4 74 72.9"/></g><g><line class="cls-3" x1="35.4" y1="18.2" x2="40.1" y2="20.5"/><line class="cls-3" x1="35.1" y1="15.2" x2="38.4" y2="17.5"/><line class="cls-3" x1="8.6" y1="42" x2="32" y2="41.5"/><line class="cls-3" x1="7.6" y1="45.5" x2="33.5" y2="45.2"/><line class="cls-2" x1="3.2" y1="34.1" x2="22.1" y2="12"/><line class="cls-2" x1="22.1" y1="15.5" x2="22" y2="37.5"/><line class="cls-3" x1="7.1" y1="8.2" x2="31.6" y2="9.2"/><line class="cls-3" x1="44.1" y1="42.2" x2="35.6" y2="37.8"/><line class="cls-3" x1="8.8" y1="38.2" x2="1.3" y2="32.4"/><line class="cls-3" x1="29" y1="12.5" x2="28.9" y2="37.1"/><line class="cls-3" x1="32" y1="12.5" x2="31.9" y2="36.9"/><line class="cls-3" x1="24.8" y1="12.2" x2="25.2" y2="37.2"/><line class="cls-3" x1="19.1" y1="18.5" x2="19" y2="37.7"/><line class="cls-3" x1="15.1" y1="24" x2="14.1" y2="37.9"/><line class="cls-3" x1="11.4" y1="27" x2="10.4" y2="38.2"/><line class="cls-3" x1="8.1" y1="31.2" x2="7.4" y2="35.2"/><line class="cls-3" x1="8.4" y1="5.5" x2="28.9" y2="6.2"/><line class="cls-3" x1="11.3" y1="2.5" x2="25.6" y2="3"/><line class="cls-2" x1="4.9" y1="48.5" x2="32.8" y2="48.5"/><line class="cls-2" x1="52.1" y1="37" x2="42.8" y2="45"/><line class="cls-2" x1="50.6" y1="55.8" x2="34" y2="44"/><line class="cls-2" x1="45.1" y1="46.2" x2="51.8" y2="40.1"/><line class="cls-3" x1="44.6" y1="48.2" x2="34.8" y2="40.1"/><line class="cls-2" x1="26.4" y1="52" x2="43.1" y2="69.5"/><line class="cls-2" x1="30.6" y1="51.8" x2="44.1" y2="65"/><line class="cls-2" x1="33.9" y1="50.8" x2="42.1" y2="59.2"/><line class="cls-2" x1="33.2" y1="46.6" x2="43.9" y2="56.2"/><line class="cls-3" x1="47.6" y1="19.5" x2="53.4" y2="33.8"/><line class="cls-3" x1="59.5" y1="16.4" x2="67.6" y2="18.8"/><line class="cls-3" x1="57.5" y1="16.9" x2="65.4" y2="21.8"/><line class="cls-3" x1="55" y1="17.6" x2="63.4" y2="23.8"/><line class="cls-3" x1="52.2" y1="18.4" x2="62.6" y2="27.1"/><line class="cls-3" x1="52.1" y1="20.2" x2="60.6" y2="31"/><line class="cls-3" x1="49.9" y1="20.5" x2="59.9" y2="36.8"/><line class="cls-3" x1="2.6" y1="66.2" x2="15.1" y2="57.5"/><line class="cls-3" x1="16.6" y1="59.8" x2="4.4" y2="68.5"/><line class="cls-3" x1="18.4" y1="61.8" x2="6.4" y2="70.8"/><line class="cls-3" x1="53.4" y1="33.8" x2="55.6" y2="39.8"/><line class="cls-3" x1="54.7" y1="39.9" x2="45.8" y2="48.9"/><line class="cls-3" x1="12.4" y1="69.5" x2="22.1" y2="70"/><line class="cls-3" x1="54.9" y1="47.8" x2="49.1" y2="53.2"/><line class="cls-3" x1="58.4" y1="51.4" x2="55.6" y2="56.5"/><line class="cls-3" x1="60.6" y1="54.8" x2="67.1" y2="55.2"/><line class="cls-3" x1="56.6" y1="48.8" x2="52.4" y2="56.2"/><line class="cls-3" x1="35.6" y1="21.2" x2="48.1" y2="24"/><line class="cls-3" x1="36.4" y1="25" x2="49.4" y2="28"/><line class="cls-3" x1="35.3" y1="28.6" x2="51.4" y2="32.2"/><line class="cls-3" x1="35.7" y1="32.2" x2="50.6" y2="35.8"/><line class="cls-3" x1="35.6" y1="34.9" x2="48.4" y2="38.2"/><line class="cls-3" x1="39.1" y1="37.8" x2="46.2" y2="40.3"/><line class="cls-3" x1="13.9" y1="67.8" x2="20.9" y2="68"/><line class="cls-3" x1="15.6" y1="66" x2="19.2" y2="66.2"/><polyline class="cls-2" points="30.8 -.7 32.5 1 50.2 18.8"/><polyline class="cls-3" points="35.2 -.8 37.1 1.1 44.6 8.8"/><polyline class="cls-2" points="45.6 -.8 45.8 1.3 46.6 12.2"/><polyline class="cls-2" points="65.7 -.8 66.2 .9 70.9 17"/><polyline class="cls-2" points="48.9 -.8 49.1 1.2 50.4 16"/><polyline class="cls-2" points="53.5 -.7 53.8 1.1 55.6 15.8"/><polyline class="cls-2" points="57.2 -.7 57.4 1.1 59.4 14.8"/><polyline class="cls-2" points="62.2 -.7 62.6 1 66.2 16.1"/><polyline class="cls-3" points="40.8 -.8 42.6 .9 44.1 2.4"/><polyline class="cls-3" points="25.6 -.8 27.1 1.1 42.8 20.7"/><polyline class="cls-3" points="4.2 -1.2 6.8 1.2 9.6 4.1"/><polyline class="cls-3" points=".8 -.6 2 .9 6.9 6.8"/><polyline class="cls-2" points="-.5 2.2 .7 3.9 4.6 9.2"/><polyline class="cls-2" points="-.5 5.4 .6 8 2.9 13.7"/><polyline class="cls-3" points="-.6 22 .6 20.7 8.8 11.4"/><polyline class="cls-3" points="-.8 30.9 .7 29.4 18.2 11.9"/><polyline class="cls-3" points="-.6 17.2 .8 15.9 5.2 11.2"/><polyline class="cls-3" points="-.6 25.6 .7 24.4 13.5 11.6"/><polyline class="cls-2" points="-.8 54.8 .7 53.8 5.1 51"/><polyline class="cls-3" points="-.8 58 .8 57 8.4 52.2"/><polyline class="cls-3" points="-1 64 .7 62.8 11.9 55.2"/><polyline class="cls-3" points="2.2 65.2 .7 66.1 -1 67.1"/><polyline class="cls-3" points="-.9 51.5 .6 51.7 2.4 52"/><polyline class="cls-3" points="1.8 48.2 .7 47.9 -1 47.3"/><polyline class="cls-2" points="2.8 50.1 .6 49.7 -.9 49.3"/><polyline class="cls-3" points="-.7 39.3 .7 40.3 4.9 43.5"/><polyline class="cls-3" points="-.8 42.5 .8 43.5 4.1 45.5"/><polyline class="cls-2" points="-.7 34.6 .9 36 6.9 41.2"/><polyline class="cls-2" points="-.9 45.8 .7 46.8 2.1 47.6"/><polyline class="cls-2" points="11.4 51.7 30.8 71.3 32.5 73"/><polyline class="cls-3" points="15.4 51 35.2 71.2 37.1 73.1"/><polyline class="cls-2" points="44.9 60.8 45.6 71.2 45.8 73.3"/><polyline class="cls-2" points="64.6 67.5 65.7 71.2 66.2 72.9"/><polyline class="cls-2" points="47.6 57 48.9 71.2 49.1 73.2"/><polyline class="cls-2" points="51.9 58.2 53.5 71.3 53.8 73.1"/><polyline class="cls-2" points="55.4 59 57.2 71.3 57.4 73.1"/><polyline class="cls-2" points="59.2 58.6 62.2 71.3 62.6 73"/><polyline class="cls-3" points="20.4 51.8 40.8 71.2 42.6 72.9"/><polyline class="cls-3" points="20.6 65 25.6 71.2 27.1 73.1"/><polyline class="cls-3" points="0 66.5 4.2 70.8 6.8 73.2"/><polyline class="cls-3" points="-2.4 67.6 .8 71.4 2 72.9"/><polyline class="cls-2" points="69.4 -.8 71.5 2.2 72.7 3.9"/><polyline class="cls-2" points="68.9 -1.1 69.7 1 71.5 5.4 72.6 8"/><polyline class="cls-3" points="60.6 34.2 71.4 22 72.6 20.7"/><polyline class="cls-3" points="61.9 40.2 71.2 30.9 72.7 29.4"/><polyline class="cls-3" points="63.2 25.8 71.4 17.2 72.8 15.9"/><polyline class="cls-3" points="46.6 50.2 71.4 25.6 72.7 24.4"/><polyline class="cls-2" points="63.1 59.9 71.2 54.8 72.7 53.8"/><polyline class="cls-3" points="62.1 63.8 71.2 58 72.8 57"/><polyline class="cls-3" points="66.9 66.8 71 64 72.7 62.8"/><polyline class="cls-3" points="72.7 66.1 71 67.1 68.9 68.2"/><polyline class="cls-3" points="57.9 49.2 71.1 51.5 72.6 51.7"/><polyline class="cls-3" points="72.7 47.9 71 47.3 57.9 43"/><polyline class="cls-2" points="72.6 49.7 71.1 49.3 56.1 46"/><polyline class="cls-3" points="68.4 37 71.3 39.3 72.7 40.3"/><polyline class="cls-3" points="65.4 39 71.2 42.5 72.8 43.5"/><polyline class="cls-2" points="69.2 32.8 71.3 34.6 72.9 36"/><polyline class="cls-2" points="63.4 41.2 71.1 45.8 72.7 46.8"/><line class="cls-3" x1="69.6" y1="67.6" x2="72.8" y2="71.4"/><polyline class="cls-2" points="68.4 69.8 68.9 70.9 69.7 73"/></g><g><polyline class="cls-2" points="-2.6 -.8 -.5 2.2 .7 3.9"/><polyline class="cls-2" points="-3.1 -1.1 -2.3 1 -.5 5.4 .6 8"/><polyline class="cls-3" points="-11.4 34.2 -.6 22 .6 20.7"/><polyline class="cls-3" points="-10.1 40.2 -.8 30.9 .7 29.4"/><polyline class="cls-3" points="-8.8 25.8 -.6 17.2 .8 15.9"/><polyline class="cls-3" points="-25.4 50.2 -.6 25.6 .7 24.4"/><polyline class="cls-2" points="-8.9 59.9 -.8 54.8 .7 53.8"/><polyline class="cls-3" points="-9.9 63.8 -.8 58 .8 57"/><polyline class="cls-3" points="-5.1 66.8 -1 64 .7 62.8"/><polyline class="cls-3" points=".7 66.1 -1 67.1 -3.1 68.2"/><polyline class="cls-3" points="-14.1 49.2 -.9 51.5 .6 51.7"/><polyline class="cls-3" points=".7 47.9 -1 47.3 -14.1 43"/><polyline class="cls-2" points=".6 49.7 -.9 49.3 -15.9 46"/><polyline class="cls-3" points="-3.6 37 -.7 39.3 .7 40.3"/><polyline class="cls-3" points="-6.6 39 -.8 42.5 .8 43.5"/><polyline class="cls-2" points="-2.8 32.8 -.7 34.6 .9 36"/><polyline class="cls-2" points="-8.6 41.2 -.9 45.8 .7 46.8"/><line class="cls-3" x1="-2.4" y1="67.6" x2=".8" y2="71.4"/></g><g><polyline class="cls-3" points="72 -5.5 76.2 -1.2 78.7 1.2"/><polyline class="cls-3" points="69.6 -4.4 72.8 -.6 74 .9"/></g><g><polyline class="cls-2" points="11.4 -20.3 30.8 -.7 32.5 1"/><polyline class="cls-3" points="15.4 -21 35.2 -.8 37.1 1.1"/><polyline class="cls-2" points="44.9 -11.2 45.6 -.8 45.8 1.3"/><polyline class="cls-2" points="64.6 -4.5 65.7 -.8 66.2 .9"/><polyline class="cls-2" points="47.6 -15 48.9 -.8 49.1 1.2"/><polyline class="cls-2" points="51.9 -13.7 53.5 -.7 53.8 1.1"/><polyline class="cls-2" points="55.4 -13 57.2 -.7 57.4 1.1"/><polyline class="cls-2" points="59.2 -13.4 62.2 -.7 62.6 1"/><polyline class="cls-3" points="20.4 -20.2 40.8 -.8 42.6 .9"/><polyline class="cls-3" points="20.6 -7 25.6 -.8 27.1 1.1"/><polyline class="cls-3" points="0 -5.5 4.2 -1.2 6.8 1.2"/><polyline class="cls-3" points="-2.4 -4.4 .8 -.6 2 .9"/><polyline class="cls-2" points="68.4 -2.2 68.9 -1.1 69.7 1"/></g></g></pattern><filter id="drop-shadow-1" filterUnits="userSpaceOnUse"><feOffset dx="0" dy="0"/><feGaussianBlur result="blur" stdDeviation="12"/><feFlood flood-color="ivory" flood-opacity=".8"/><feComposite in2="blur" operator="in"/><feComposite in="SourceGraphic"/></filter><filter id="drop-shadow-2" filterUnits="userSpaceOnUse"><feOffset dx="0" dy="0"/><feGaussianBlur result="blur-2" stdDeviation="12"/><feFlood flood-color="ivory" flood-opacity=".8"/><feComposite in2="blur-2" operator="in"/><feComposite in="SourceGraphic"/></filter><filter id="drop-shadow-3" filterUnits="userSpaceOnUse"><feOffset dx="0" dy="0"/><feGaussianBlur result="blur-3" stdDeviation="12"/><feFlood flood-color="ivory" flood-opacity=".8"/><feComposite in2="blur-3" operator="in"/><feComposite in="SourceGraphic"/></filter><filter id="drop-shadow-4" filterUnits="userSpaceOnUse"><feOffset dx="0" dy="0"/><feGaussianBlur result="blur-4" stdDeviation="12"/><feFlood flood-color="ivory" flood-opacity=".8"/><feComposite in2="blur-4" operator="in"/><feComposite in="SourceGraphic"/></filter><filter id="drop-shadow-5" filterUnits="userSpaceOnUse"><feOffset dx="0" dy="0"/><feGaussianBlur result="blur-5" stdDeviation="12"/><feFlood flood-color="ivory" flood-opacity=".8"/><feComposite in2="blur-5" operator="in"/><feComposite in="SourceGraphic"/></filter><filter id="drop-shadow-6" filterUnits="userSpaceOnUse"><feOffset dx="0" dy="0"/><feGaussianBlur result="blur-6" stdDeviation="12"/><feFlood flood-color="ivory" flood-opacity=".8"/><feComposite in2="blur-6" operator="in"/><feComposite in="SourceGraphic"/></filter><filter id="drop-shadow-7" filterUnits="userSpaceOnUse"><feOffset dx="0" dy="0"/><feGaussianBlur result="blur-7" stdDeviation="12"/><feFlood flood-color="ivory" flood-opacity=".8"/><feComposite in2="blur-7" operator="in"/><feComposite in="SourceGraphic"/></filter><filter id="drop-shadow-8" filterUnits="userSpaceOnUse"><feOffset dx="0" dy="0"/><feGaussianBlur result="blur-8" stdDeviation="12"/><feFlood flood-color="ivory" flood-opacity=".8"/><feComposite in2="blur-8" operator="in"/><feComposite in="SourceGraphic"/></filter><filter id="drop-shadow-9" filterUnits="userSpaceOnUse"><feOffset dx="0" dy="0"/><feGaussianBlur result="blur-9" stdDeviation="12"/><feFlood flood-color="ivory" flood-opacity=".8"/><feComposite in2="blur-9" operator="in"/><feComposite in="SourceGraphic"/></filter></defs><g id="large_circle"><circle class="cls-4" cx="305" cy="305" r="300"/></g><g id="left_text"><g><path class="cls-16" d="M163.7,545.8l-1.1,1.8-1.8-1.1h0l-14.2-9.1-1.8-1.1,1.1-1.8,10.2-16,1.8,1.1-10.2,16,14.2,9,10.2-16,1.8,1.1-10.2,16Z"/><path class="cls-16" d="M135.3,505.1l1.3-1.7,1.7,1.3,13.2,10.3,1.7,1.3-1.3,1.7-4.8,6.1-1.3,1.7-5.6,7.1-1.7-1.3,5.6-7.1-13.2-10.3-5.6,7.1-1.7-1.3,11.6-14.9Zm1.7,1.3l-4.8,6.1,13.2,10.3,4.8-6.1-13.2-10.3Z"/><path class="cls-16" d="M105.5,500.3l6.9,6.5,11.6-12.2-6.9-6.5,1.4-1.5,6.9,6.5,1.5,1.4,6.9,6.5-1.4,1.5-6.9-6.5-11.6,12.2,6.9,6.5-1.4,1.5-6.9-6.5-1.5-1.4-6.9-6.5,1.4-1.5Z"/><path class="cls-16" d="M108.4,475.3l1.4,1.6-7.2,6.3,6.1,7-1.6,1.4-6.1-7-5.5,4.8,6.1,7-1.6,1.4-13.8-15.8,1.6-1.4,6.3,7.2,5.5-4.8-6.3-7.2,1.6-1.4,6.3,7.2,7.2-6.3Z"/><path class="cls-16" d="M72.3,459.1l12,2.4,1.6-12.1h.1l1.6-1.2,.4,.6,11.3,15.8,.5,.7-1.6,1.2h0l-12.2-2.4-1.6,12.3-1.7,1.2-.5-.6-11.4-15.9-.4-.5,1.7-1.2h.1Zm11.7,4.3l-10.2-2,8.9,12.4,1.4-10.3Zm2.3-1.6l10.2,2-8.8-12.3-1.4,10.3Z"/><path class="cls-16" d="M58.7,436.3l4.7,8.2,14.5-8.4-4.8-8.2,1.8-1.1,4.8,8.2,1.1,1.8,4.8,8.2-1.8,1.1-4.7-8.2-14.5,8.4,4.8,8.2-1.8,1.1-4.8-8.2-1.1-1.8-4.7-8.2,1.8-1.1Z"/><path class="cls-16" d="M56.1,431.5l-1.9,.9-.9-1.9h0l-7-15.3-.9-1.9,1.9-.9,17.2-7.9,.9,1.9-17.2,7.9,7,15.3,17.2-7.9,.9,1.9-17.2,8Z"/><path class="cls-16" d="M38.3,387.4l7,19.8-2,.7-7-19.8,2-.7Zm8.9-3.1l7,19.8-2,.7-7-19.8,2-.7Zm8.9-3.1l7,19.8-2,.7-7-19.8,2-.7Z"/><path class="cls-16" d="M29.9,362.8l16.6-13.5,2-.4,4.4,20.5-2,.4h0l-20.4-4.5v-.4l-.5-1.8v-.4Zm2,.8l18.4,4.1-3.4-16.2-14.9,12.1Z"/><path class="cls-16" d="M42.5,344.4c-1.5,1.1-3.2,1.8-5.1,2-1.9,.2-3.7,0-5.4-.8-1.7-.7-3.1-1.9-4.2-3.4-1.1-1.5-1.8-3.2-2-5.1s0-3.7,.8-5.4c.7-1.7,1.9-3.1,3.4-4.2,1.5-1.1,3.2-1.8,5.1-2,1.9-.2,3.7,0,5.4,.8,1.7,.7,3.1,1.9,4.2,3.4,1.1,1.5,1.8,3.2,2,5.1s0,3.7-.8,5.4c-.7,1.7-1.9,3.1-3.4,4.2Zm-6.4,0l-1.9-16.6c-2,.5-3.7,1.6-4.9,3.4-1.2,1.7-1.7,3.7-1.4,5.8,.2,2.1,1.2,3.9,2.7,5.3,1.6,1.4,3.4,2.1,5.5,2.2Zm2.1-.2c2-.5,3.7-1.6,4.9-3.4,1.2-1.7,1.7-3.7,1.5-5.8-.2-2.1-1.2-3.9-2.7-5.3-1.6-1.4-3.4-2.1-5.5-2.1l1.9,16.6Z"/><path class="cls-16" d="M44.7,299.6l.3,11.7v1.2h0l.2,8.1h-2.4l-6.7,.2h-2.5l-9.5,.2v-2.4l9.4-.2-.2-8.4h2.5l6.8-.2-.2-10.2h2.4Zm-8.9,13v5.7l6.9-.2v-5.6h-6.9Z"/><path class="cls-16" d="M27.6,273.6l-.7,9.4,16.8,1.3,.7-9.4,2.1,.2-.7,9.4-.2,2.1-.7,9.4-2.1-.2,.7-9.4-16.8-1.3-.7,9.4-2.1-.2,.7-9.4,.2-2.1,.7-9.4,2.1,.2Z"/><path class="cls-16" d="M39,261h0l-1-.2h-.2l-.8-.2h0l-4.8-22.5h0l2.2,.4,3.7,17.2,3.3-15.7,2,.4-3.3,15.7,10.2-14.3,2.2,.5h0l-13.4,18.7Z"/><path class="cls-16" d="M41.4,213.1l-6.2,20.1-2-.6,6.2-20.1,2,.6Zm9,2.8l-6.2,20.1-2-.6,6.2-20.1,2,.6Zm9,2.8l-6.2,20.1-2-.6,6.2-20.1,2,.6Z"/><path class="cls-16" d="M60.3,192.2l1.3,21-.8,1.9-19.4-8,.8-1.9h0l15.6-14,.4,.2,1.7,.7,.4,.2Zm-1.3,12l-8.6-3.5-6.1,5.4,15.1,6.2-.5-8.1Zm-.1-2.4l-.5-8.3-6.2,5.5,6.7,2.8Z"/><path class="cls-16" d="M63.5,165l-9.8,18.6-1.9-1,9.8-18.6,1.9,1Zm8.4,4.4l-9.8,18.6-1.9-1,9.8-18.6,1.9,1Zm8.4,4.4l-9.8,18.6-1.9-1,9.8-18.6,1.9,1Z"/><path class="cls-16" d="M100.6,143.8l-11.1,15.3-1.2,1.7-1.7-1.2-5.9-4.3-.9-.6-.9-.6,11.1-15.3-5.9-4.3-11.1,15.3-1.7-1.2,11.1-15.3,1.2-1.7,1.7,1.2,5.9,4.3,.9,.6,.8,.6-11.1,15.3,5.9,4.3,11.1-15.3,1.7,1.2Z"/><path class="cls-16" d="M102.7,112.6l-13.9,15.8-1.6-1.4,13.9-15.8,1.6,1.4Zm7.1,6.2l-13.9,15.8-1.6-1.4,13.9-15.8,1.6,1.4Zm7.1,6.2l-13.9,15.8-1.6-1.4,13.9-15.8,1.6,1.4Z"/><path class="cls-16" d="M128.5,101.4l-7.5,19.6-1.5,1.4-14.4-15.3,1.5-1.4h0l20-6.3,.3,.3,1.3,1.4,.3,.3Zm-6.2,10.3l-6.4-6.8-7.8,2.4,11.2,12,2.9-7.6Zm.8-2.2l3-7.8-7.9,2.5,5,5.3Z"/><path class="cls-16" d="M150.2,72.8l-2.4,12,12.1,1.6h0l1.2,1.7-.6,.4-15.8,11.4-.7,.5-1.2-1.6h0l2.4-12.2-12.4-1.6-1.2-1.7,.6-.5,15.9-11.4,.5-.4,1.2,1.7h0Zm-4.4,11.9l2-10.2-12.3,8.9,10.3,1.3Zm1.6,2.2l-2,10.2,12.3-8.9-10.3-1.3Z"/><path class="cls-16" d="M155,67l17.1,11.4-1.4-20.6,1.2-.7,1.2,2.1,1.5,20.7-2.3,1.4h-.1l-17.2-11.5-1.2-2,1.2-.8Z"/><path class="cls-16" d="M187.7,72.8l-1.9,.9-8.8-19,1.9-.9,8.8,19Zm8.6-4l-1.9,.9-8.8-19,1.9-.9,8.8,19Zm8.6-4l-1.9,.9-8.8-19,1.9-.9,8.8,19Z"/><path class="cls-16" d="M202,45.5l-.7-2,2-.7h0l15.9-5.6,2-.7,.7,2,6.3,17.9-2,.7-6.3-17.9-15.9,5.6,6.3,17.9-2,.7-6.4-17.9Z"/><path class="cls-16" d="M237.5,32.2l14.1,16.1,.5,2-20.4,5.1-.5-1.9h0l3.8-20.6h.4l1.8-.5h.4Zm-.7,2l-3.4,18.5,16.1-4-12.6-14.5Z"/><path class="cls-16" d="M273.6,27.6l-9.3,1.4,2.5,16.6,9.3-1.4,.3,2.1-9.3,1.4-2.1,.3-9.3,1.4-.3-2.1,9.3-1.4-2.5-16.6-9.3,1.4-.3-2.1,9.3-1.4,2.1-.3,9.3-1.4,.3,2.1Z"/><path class="cls-16" d="M291.6,45.3h-2.1l-.6-9.4-9.3,.5v-2.1l9.2-.5-.4-7.3-9.3,.5v-2.1l20.9-1.2v2.1l-9.4,.5,.4,7.3,9.5-.5v2.1l-9.4,.5,.6,9.5Z"/><path class="cls-16" d="M305.6,25.8v-2.1h2.2l16.8,.7h2.1v2.2l-.8,18.9h-2.1l.8-19-16.8-.7-.8,18.9h-2.1l.7-19Z"/><path class="cls-16" d="M340.9,47.4l-2.1-.3,1.3-9.5-9.3-1.3,.3-2.1,9.3,1.3,1-7.2-9.3-1.3,.3-2.1,20.8,2.8-.3,2.1-9.5-1.3-1,7.2,9.5,1.3-.3,2.1-9.5-1.3-1.3,9.5Z"/><path class="cls-16" d="M378.8,35.8l-9.2-2.2-3.8,16.4,9.2,2.2-.5,2-9.2-2.2-2-.5-9.2-2.2,.5-2,9.2,2.2,3.8-16.4-9.2-2.2,.5-2,9.2,2.2,2,.5,9.2,2.2-.5,2Z"/></g></g><g id="name"><g><path class="cls-16" d="M209.9,571.8l-17.5-7-2-.8,.8-2,2.7-6.8,.4-1,.4-1,17.5,7,2.7-6.8-17.5-7,.8-2,17.5,7,2,.8-.8,2-2.7,6.8-.4,1-.4,1-17.5-7-2.7,6.8,17.5,7-.8,2Z"/><path class="cls-16" d="M240.5,578.6l-.6,2-2-.6-16.2-4.5-2-.6,.6-2,2.1-7.5,.6-2,2.4-8.7,2,.6-2.4,8.7,16.2,4.5,2.4-8.7,2,.6-5,18.2Zm-2-.6l2.1-7.5-16.2-4.5-2.1,7.5,16.2,4.5Z"/><path class="cls-16" d="M270.7,586.2l-20.7-3.3,.3-2.1,20.7,3.3-.3,2.1Zm1.5-9.3l-20.7-3.3,.3-2.1,20.7,3.3-.3,2.1Zm1.5-9.3l-20.7-3.3,.3-2.1,20.7,3.3-.3,2.1Z"/><path class="cls-16" d="M281.3,577.9h0v-2.1h.1l21.4-8.3h0v2.2l-16.5,6.3,16,.8v2.1l-16.2-.8,15.7,7.9v2.2h-.2l-20.5-10.3Z"/><path class="cls-16" d="M323.6,587.4h-2.1l-.6-9.4-9.3,.6v-2.1l9.2-.6-.4-7.3-9.3,.6v-2.1l20.8-1.3v2.1l-9.4,.6,.4,7.3,9.5-.6v2.1l-9.4,.6,.6,9.5Z"/><path class="cls-16" d="M340,567.1l-.4-2.1c2.2-.4,4.5-.4,6.7,0,2.2,.3,4.3,1,6.2,2,1.9,1,3.7,2.2,5.2,3.7,1.6,1.5,2.9,3.2,3.9,5.2,1.1,2,1.8,4.1,2.2,6.3l-2.1,.4c-1-4.6-3.4-8.3-7.1-11.2l-10,14.2-1.5,.3-.3-1.5,10-14.2c-4-2.5-8.3-3.5-13-2.9Z"/><path class="cls-16" d="M373.9,574.4c-1.3-1.3-2.3-2.8-2.8-4.7-.5-1.8-.6-3.6-.1-5.5,.5-1.8,1.3-3.4,2.6-4.7s2.8-2.3,4.7-2.8c1.8-.5,3.6-.6,5.5-.1,1.8,.5,3.4,1.3,4.7,2.6,1.3,1.3,2.3,2.8,2.8,4.7,.5,1.8,.6,3.6,.1,5.5-.5,1.8-1.3,3.4-2.6,4.7s-2.8,2.3-4.7,2.8c-1.8,.5-3.6,.6-5.5,.1-1.8-.5-3.4-1.3-4.7-2.6Zm-1-6.3l16-4.6c-.8-1.9-2.2-3.3-4.1-4.2-1.9-.9-3.9-1.1-5.9-.5-2,.6-3.6,1.8-4.8,3.6s-1.5,3.7-1.2,5.8Zm.6,2c.8,1.9,2.2,3.3,4.1,4.3,1.9,.9,3.9,1.1,5.9,.5,2-.6,3.6-1.8,4.8-3.6,1.1-1.8,1.5-3.7,1.2-5.8l-16,4.6Z"/><path class="cls-16" d="M423.3,562.4l-17.4,7.2-1.9,.8-.8-2-2.8-6.8-.4-1-.4-1,17.4-7.2-2.8-6.8-17.4,7.2-.8-1.9,17.4-7.2,1.9-.8,.8,1.9,2.8,6.8,.4,1,.4,.9-17.4,7.2,2.8,6.8,17.4-7.2,.8,2Z"/></g></g><g id="right_text"><g><path class="cls-16" d="M450.5,86.6l-1.1,1.8-1.8-1.1-14.4-8.7-1.8-1.1,1.1-1.8,4-6.6,1.1-1.8,4.7-7.7,1.8,1.1-4.7,7.7,14.4,8.7,4.7-7.7,1.8,1.1-9.8,16.1Zm-1.8-1.1l4-6.6-14.4-8.7-4,6.6,14.4,8.7Z"/><path class="cls-16" d="M472.5,105.7l-16.6-12.8,1.3-1.7,16.6,12.8-1.3,1.7Zm5.8-7.5l-16.6-12.8,1.3-1.7,16.6,12.8-1.3,1.7Zm5.8-7.5l-16.6-12.8,1.3-1.7,16.6,12.8-1.3,1.7Z"/><path class="cls-16" d="M484.8,104.1h0l.7-.8v-.2l.7-.6h0l21.5,7.9h0l-1.5,1.6-16.5-6.1,11.5,11.2-1.4,1.5-11.5-11.2,6.6,16.3-1.5,1.6h0l-8.6-21.3Z"/><path class="cls-16" d="M506.1,140l-1.3-1.6,7.4-6.1-6-7.2,1.6-1.3,5.9,7.2,5.6-4.6-6-7.2,1.6-1.3,13.4,16.2-1.6,1.3-6.1-7.4-5.6,4.6,6.1,7.4-1.6,1.3-6.1-7.4-7.4,6.1Z"/><path class="cls-16" d="M535.4,143.4l-10.6,17.6,20.5-2.4,.7,1.2-2,1.3-20.6,2.5-1.5-2.2h0l10.7-17.9,2-1.3,.9,1.2Z"/><path class="cls-16" d="M541.8,196.8l-8.5-16.8-1-1.9,1.9-1,6.5-3.3,.9-.5,.9-.5,8.5,16.8,6.5-3.3-8.5-16.8,1.9-1,8.5,16.8,1,1.9-1.9,1-6.5,3.3-1,.5-.9,.5-8.5-16.8-6.5,3.3,8.5,16.8-1.9,1Z"/><path class="cls-16" d="M556,235.7l-5.8-18-.6-2,2-.6,7-2.2,1-.3,1-.3,5.8,18,7-2.2-5.8-18,2-.6,5.8,18,.6,2-2,.6-7,2.2-1,.3-1,.3-5.8-18-7,2.2,5.8,18-2,.6Z"/><path class="cls-16" d="M563.4,243.6c1.4-1.2,3-2,4.9-2.4,1.9-.4,3.7-.3,5.4,.3s3.3,1.6,4.5,3c1.2,1.4,2,3,2.4,4.9,.4,1.9,.3,3.7-.3,5.4-.6,1.8-1.6,3.3-3,4.5-1.4,1.2-3,2-4.9,2.4-1.9,.4-3.7,.3-5.4-.3-1.8-.6-3.3-1.6-4.5-3s-2-3-2.4-4.9c-.4-1.9-.3-3.7,.3-5.4,.6-1.8,1.6-3.3,3-4.5Zm4.3,0c-2,.7-3.5,1.9-4.6,3.8-1.1,1.8-1.4,3.8-1,5.9,.4,2.1,1.5,3.8,3.2,5,1.7,1.3,3.6,1.8,5.7,1.7l-3.3-16.3Zm2.1-.4l3.3,16.3c2-.7,3.5-1.9,4.6-3.8,1.1-1.8,1.4-3.8,1-5.9s-1.5-3.8-3.2-5c-1.7-1.3-3.6-1.8-5.7-1.7Z"/><path class="cls-16" d="M565.2,292.6l-1-11.6v-1.2h-.1l-.7-8.1h.2l2.2-.2,6.7-.6,2.5-.2,9.5-.8,.2,2.4-9.4,.9,.8,8.3-1.8,.2h-.6l-6.7,.6,.9,10.1-2.4,.2Zm8-13.6l-.5-5.6-6.7,.6,.5,5.6,6.8-.6Z"/><path class="cls-16" d="M583.8,321.8l.2-9.4-16.8-.4-.2,9.4h-2.1l.2-9.5v-2.1l.3-9.4h2.1l-.2,9.5,16.8,.4,.2-9.4h2.1l-.2,9.5v2.1l-.3,9.4h-2.1Z"/></g></g><g id="small_circle"><circle class="cls-15" cx="305" cy="305" r="250"/></g><g id="constellation"><line class="cls-14" x1="305.1" y1="435.4" x2="189.7" y2="248.6"/><line class="cls-14" x1="426.7" y1="258.6" x2="305.1" y2="435.4"/><line class="cls-14" x1="246.8" y1="216.1" x2="305.1" y2="435.4"/><line class="cls-14" x1="305.8" y1="188.2" x2="305.1" y2="435.4"/><line class="cls-14" x1="367.1" y1="216.1" x2="305.1" y2="435.4"/><line class="cls-14" x1="416.7" y1="347" x2="305.1" y2="435.4"/><line class="cls-14" x1="199.7" y1="350.7" x2="305.1" y2="435.4"/><circle class="cls-6" cx="411.2" cy="351.4" r="10"/><circle class="cls-9" cx="192" cy="250.9" r="7.7"/><circle class="cls-10" cx="424.8" cy="260.8" r="8.3"/><circle class="cls-7" cx="265.1" cy="286.6" r="16.6"/><circle class="cls-11" cx="305.8" cy="188.2" r="10"/><circle class="cls-5" cx="367.1" cy="216.1" r="10"/><circle class="cls-8" cx="304.3" cy="430.9" r="10"/><circle class="cls-13" cx="352.5" cy="267.5" r="12.8"/><circle class="cls-12" cx="199.7" cy="350.7" r="10"/></g></svg>