<?xml version="1.0" encoding="UTF-8"?><svg xmlns="http://www.w3.org/2000/svg" xmlns:xlink="http://www.w3.org/1999/xlink" viewBox="0 0 610 610"><defs><style>.cls-1{stroke-width:5px;}.cls-1,.cls-2,.cls-3,.cls-4,.cls-5,.cls-6,.cls-7,.cls-8,.cls-9,.cls-10,.cls-11,.cls-12,.cls-13,.cls-14,.cls-15{stroke-miterlimit:10;}.cls-1,.cls-2,.cls-3,.cls-4,.cls-5,.cls-6,.cls-7,.cls-8,.cls-9,.cls-10,.cls-13,.cls-14,.cls-15{stroke:#000;}.cls-1,.cls-12{fill:#231f20;}.cls-2{filter:url(#drop-shadow-6);}.cls-2,.cls-3,.cls-4,.cls-5,.cls-6,.cls-7,.cls-8,.cls-9,.cls-10,.cls-16,.cls-11,.cls-13,.cls-14,.cls-15{fill:ivory;}.cls-2,.cls-3,.cls-4,.cls-5,.cls-6,.cls-7,.cls-8,.cls-9,.cls-10,.cls-11,.cls-12,.cls-13,.cls-14,.cls-15{stroke-width:2px;}.cls-3{filter:url(#drop-shadow-1);}.cls-4{filter:url(#drop-shadow-4);}.cls-5{filter:url(#drop-shadow-7);}.cls-6{filter:url(#drop-shadow-2);}.cls-7{filter:url(#drop-shadow-3);}.cls-8{filter:url(#drop-shadow-5);}.cls-9{filter:url(#drop-shadow-9);}.cls-10{filter:url(#drop-shadow-8);}.cls-11,.cls-12{stroke:ivory;}.cls-13{filter:url(#drop-shadow-12);}.cls-14{filter:url(#drop-shadow-11);}.cls-15{filter:url(#drop-shadow-10);}</style><filter id="drop-shadow-1" filterUnits="userSpaceOnUse"><feOffset dx="0" dy="0"/><feGaussianBlur result="blur" stdDeviation="12"/><feFlood flood-color="ivory" flood-opacity=".8"/><feComposite in2="blur" operator="in"/><feComposite in="SourceGraphic"/></filter><filter id="drop-shadow-2" filterUnits="userSpaceOnUse"><feOffset dx="0" dy="0"/><feGaussianBlur result="blur-2" stdDeviation="12"/><feFlood flood-color="ivory" flood-opacity=".8"/><feComposite in2="blur-2" operator="in"/><feComposite in="SourceGraphic"/></filter><filter id="drop-shadow-3" filterUnits="userSpaceOnUse"><feOffset dx="0" dy="0"/><feGaussianBlur result="blur-3" stdDeviation="12"/><feFlood flood-color="ivory" flood-opacity=".8"/><feComposite in2="blur-3" operator="in"/><feComposite in="SourceGraphic"/></filter><filter id="drop-shadow-4" filterUnits="userSpaceOnUse"><feOffset dx="0" dy="0"/><feGaussianBlur result="blur-4" stdDeviation="12"/><feFlood flood-color="ivory" flood-opacity=".8"/><feComposite in2="blur-4" operator="in"/><feComposite in="SourceGraphic"/></filter><filter id="drop-shadow-5" filterUnits="userSpaceOnUse"><feOffset dx="0" dy="0"/><feGaussianBlur result="blur-5" stdDeviation="12"/><feFlood flood-color="ivory" flood-opacity=".8"/><feComposite in2="blur-5" operator="in"/><feComposite in="SourceGraphic"/></filter><filter id="drop-shadow-6" filterUnits="userSpaceOnUse"><feOffset dx="0" dy="0"/><feGaussianBlur result="blur-6" stdDeviation="12"/><feFlood flood-color="ivory" flood-opacity=".8"/><feComposite in2="blur-6" operator="in"/><feComposite in="SourceGraphic"/></filter><filter id="drop-shadow-7" filterUnits="userSpaceOnUse"><feOffset dx="0" dy="0"/><feGaussianBlur result="blur-7" stdDeviation="12"/><feFlood flood-color="ivory" flood-opacity=".8"/><feComposite in2="blur-7" operator="in"/><feComposite in="SourceGraphic"/></filter><filter id="drop-shadow-8" filterUnits="userSpaceOnUse"><feOffset dx="0" dy="0"/><feGaussianBlur result="blur-8" stdDeviation="12"/><feFlood flood-color="ivory" flood-opacity=".8"/><feComposite in2="blur-8" operator="in"/><feComposite in="SourceGraphic"/></filter><filter id="drop-shadow-9" filterUnits="userSpaceOnUse"><feOffset dx="0" dy="0"/><feGaussianBlur result="blur-9" stdDeviation="12"/><feFlood flood-color="ivory" flood-opacity=".8"/><feComposite in2="blur-9" operator="in"/><feComposite in="SourceGraphic"/></filter><filter id="drop-shadow-10" filterUnits="userSpaceOnUse"><feOffset dx="0" dy="0"/><feGaussianBlur result="blur-10" stdDeviation="12"/><feFlood flood-color="ivory" flood-opacity=".8"/><feComposite in2="blur-10" operator="in"/><feComposite in="SourceGraphic"/></filter><filter id="drop-shadow-11" filterUnits="userSpaceOnUse"><feOffset dx="0" dy="0"/><feGaussianBlur result="blur-11" stdDeviation="12"/><feFlood flood-color="ivory" flood-opacity=".8"/><feComposite in2="blur-11" operator="in"/><feComposite in="SourceGraphic"/></filter><filter id="drop-shadow-12" filterUnits="userSpaceOnUse"><feOffset dx="0" dy="0"/><feGaussianBlur result="blur-12" stdDeviation="12"/><feFlood flood-color="ivory" flood-opacity=".8"/><feComposite in2="blur-12" operator="in"/><feComposite in="SourceGraphic"/></filter></defs><g id="large_circle"><circle class="cls-1" cx="305" cy="305" r="300"/></g><g id="left_text"><g><path class="cls-16" d="M26.1,291.6l-2.1-.2v-2.1h.2l1.4-16.8,.2-2.1,2.1,.2,18.9,1.6-.2,2.1-18.9-1.6-1.4,16.8,18.9,1.6-.2,2.1-18.9-1.6Z"/><path class="cls-16" d="M43,242.2l5.3,20.3-.4,2.1-20.6-4.1,.4-2h0l12.6-16.8h.4l1.9,.4h.4Zm1,12.1l-9.1-1.8-4.9,6.5,16.1,3.2-2.1-7.9Zm-.6-2.3l-2.1-8-5,6.6,7.1,1.4Z"/><path class="cls-16" d="M39.8,217.7l-1.9-.7,.7-2h0l5.9-15.8,.7-1.9,1.9,.7,17.8,6.6-.7,1.9-17.8-6.6-5.9,15.8,17.8,6.6-.7,1.9-17.8-6.6Z"/><path class="cls-16" d="M69.2,174.5h0l-.7,17.5,7.2-14.2,1.9,.9-9.5,18.7-1.9-.9h0l.8-20.2-15.8,12.7h-.2l-1.7-1,9.5-18.7,1.9,.9-7.2,14.3,13.7-11h0l2,1h0Z"/><path class="cls-16" d="M70.1,150.8l14.1,9.2-9.3-16.6,.4-.5,2.8,1.8,9.7,17.4h0v.2l-1.2,1.8h0v.2l-20-1.9-2.7-1.8,.4-.6,18.9,1.8-14.1-9.2,1.2-1.8Z"/><path class="cls-16" d="M110.8,131.7l-12,14.6-1.3,1.6-1.6-1.3-5.7-4.6-.8-.7-.8-.7,12-14.6-5.7-4.6-12,14.6-1.6-1.3,12-14.6,1.3-1.6,1.6,1.3,5.7,4.6,.8,.7,.8,.7-12,14.6,5.7,4.6,12-14.6,1.6,1.3Z"/><path class="cls-16" d="M131.1,111.3l-13.5,13.2-1.5,1.5-1.5-1.5-5.1-5.2-.7-.8-.7-.8,13.5-13.2-5.1-5.2-13.5,13.2-1.5-1.5,13.5-13.2,1.5-1.5,1.5,1.5,5.1,5.2,.7,.8,.7,.7-13.5,13.2,5.1,5.2,13.5-13.2,1.5,1.5Z"/><path class="cls-16" d="M125.3,88.5l18.4,9.1-4.1-20.2,1.1-.8,1.5,1.9,4.2,20.3-2.1,1.7h0l-18.6-9.2-1.4-1.9,1.1-1Z"/><path class="cls-16" d="M161.9,87.6l-1.8,1.1-11-17.9,1.8-1.1,11,17.9Zm8.1-4.9l-1.8,1.1-11-17.9,1.8-1.1,11,17.9Zm8.1-4.9l-1.8,1.1-11-17.9,1.8-1.1,11,17.9Z"/></g></g><g id="name"><g><path class="cls-16" d="M238.7,560.9l.4-2,2.1,.4h0l16.4,3.6,2,.4-.4,2-4,18.5-2-.4,4-18.5-16.4-3.6-4,18.5-2-.4,4-18.5Z"/><path class="cls-16" d="M267.3,566.7l.2-2.1c2.3,.2,4.4,.8,6.5,1.7,2.1,.9,3.9,2.1,5.4,3.6s2.9,3.1,4,5c1.1,1.8,1.9,3.9,2.4,6.1,.5,2.2,.6,4.4,.4,6.7l-2.1-.2c.2-4.7-1-8.9-3.8-12.7l-13.5,11-1.5-.2,.2-1.5,13.5-11c-3.2-3.5-7.1-5.6-11.7-6.3Z"/><path class="cls-16" d="M296.5,578.9h0v-2.1h0l20.9-9.6h0v2.2l-15.9,7.3,16.1-.2v2.1l-16.1,.2,16.2,6.9v2.2h0l-21.1-9Z"/><path class="cls-16" d="M328.5,582c-1.1-1.5-1.8-3.2-2-5.1-.2-1.9,0-3.7,.8-5.4,.7-1.7,1.9-3.1,3.4-4.2,1.5-1.1,3.2-1.8,5.1-2,1.9-.2,3.7,0,5.4,.8,1.7,.7,3.1,1.9,4.2,3.4,1.1,1.5,1.8,3.2,2,5.1,.2,1.9,0,3.7-.8,5.4-.7,1.7-1.9,3.1-3.4,4.2-1.5,1.1-3.2,1.8-5.1,2-1.9,.2-3.7,0-5.4-.8-1.7-.7-3.1-1.9-4.2-3.4Zm0-6.4l16.6-1.9c-.5-2-1.6-3.7-3.4-4.9-1.7-1.2-3.7-1.7-5.8-1.4-2.1,.2-3.9,1.2-5.3,2.7s-2.1,3.4-2.1,5.5Zm.2,2.1c.5,2,1.6,3.7,3.4,4.9,1.7,1.2,3.7,1.7,5.8,1.5,2.1-.2,3.9-1.2,5.3-2.7s2.1-3.4,2.1-5.5l-16.6,1.9Z"/><path class="cls-16" d="M379.2,578.4l-18.4,4.2-2,.5-.5-2.1-1.6-7.1-.2-1-.2-1,18.4-4.2-1.6-7.1-18.4,4.2-.5-2,18.4-4.2,2-.5,.5,2,1.6,7.1,.2,1,.2,1-18.4,4.2,1.6,7.1,18.4-4.2,.5,2.1Z"/></g></g><g id="right_text"><g><path class="cls-16" d="M394.1,38.2l2,20.4,15-14.1,1.3,.5-.8,2.3-15,14.3-2.6-.9h-.1l-2-20.7,.8-2.2,1.4,.4Z"/><path class="cls-16" d="M415.8,63.8c-.1-1.9,.2-3.6,1.1-5.3,.9-1.7,2.1-3.1,3.6-4.1,1.6-1,3.3-1.6,5.1-1.7s3.6,.2,5.3,1.1c1.7,.9,3.1,2.1,4.1,3.6,1,1.6,1.6,3.3,1.7,5.1,.1,1.9-.2,3.6-1.1,5.3-.9,1.7-2.1,3.1-3.6,4.1-1.6,1-3.3,1.6-5.1,1.7-1.9,.1-3.6-.2-5.3-1.1-1.7-.9-3.1-2.1-4.1-3.6-1-1.6-1.6-3.3-1.7-5.1Zm2.6-3.4c-.7,2-.7,4,.1,5.9,.8,2,2.1,3.4,4,4.4,1.9,1,3.9,1.2,5.9,.6,2-.6,3.7-1.7,4.8-3.4l-14.9-7.5Zm.9-1.9l14.9,7.5c.7-2,.6-4-.1-5.9-.8-2-2.1-3.4-4-4.4-1.9-1-3.9-1.2-5.9-.6-2,.5-3.6,1.7-4.8,3.4Z"/><path class="cls-16" d="M466.9,74.9l-.7,1.1-12.6,2.7,2.6,12.7-.7,1.1-1.4-1-2.6-12.4-12.6,2.7-1.1-.7,.9-1.4,12.4-2.7-2.6-12.4,.7-1.1,1.5,.9,2.5,12.2,12.3-2.7,1.5,.9Z"/><path class="cls-16" d="M493.4,112.4l-20.2-5.9-1.6-1.4,14.1-15.6,1.5,1.4h0l7.9,19.5-.3,.3-1.3,1.4-.3,.3Zm-10.8-5.3l6.2-6.9-3.1-7.5-11,12.1,7.8,2.3Zm2.3,.7l8,2.3-3.1-7.7-4.9,5.4Z"/><path class="cls-16" d="M520.8,128l-6.3-7.1-12.6,11.1,6.3,7.1-1.6,1.4-6.3-7.1-1.4-1.6-6.3-7.1,1.6-1.4,6.3,7.1,12.6-11.1-6.3-7.1,1.6-1.4,6.3,7.1,1.4,1.6,6.3,7.1-1.6,1.4Z"/><path class="cls-16" d="M523.6,163.8l-10.9-15.4-1.2-1.7,1.7-1.2,6-4.2,.9-.6,.9-.6,10.9,15.4,6-4.2-10.9-15.4,1.7-1.2,10.9,15.4,1.2,1.7-1.7,1.2-6,4.2-.9,.6-.8,.6-10.9-15.4-6,4.2,10.9,15.4-1.7,1.2Z"/><path class="cls-16" d="M535.9,165.9h0l.9-.5h.2l.7-.5h0l18.3,13.9h0l-1.9,1.1-14-10.6,7.7,14.1-1.8,1-7.8-14.1,1.5,17.5-1.9,1.1h0l-2-22.9Z"/><path class="cls-16" d="M546.7,195.2c1.1-1.5,2.6-2.6,4.3-3.3s3.6-1,5.4-.7c1.8,.2,3.5,.9,5,2.1,1.5,1.1,2.6,2.6,3.3,4.3,.7,1.8,1,3.6,.7,5.4-.2,1.8-.9,3.5-2.1,5-1.1,1.5-2.6,2.6-4.3,3.3-1.8,.7-3.6,1-5.4,.7-1.8-.2-3.5-.9-5-2.1-1.5-1.1-2.6-2.6-3.3-4.3s-1-3.6-.7-5.4c.2-1.8,.9-3.5,2.1-5Zm4.2-.9c-1.8,1-3.1,2.6-3.8,4.6-.7,2-.6,4,.2,5.9,.8,2,2.2,3.4,4.1,4.3s3.9,1.1,5.9,.6l-6.4-15.4Zm2-.8l6.4,15.4c1.8-1,3.1-2.6,3.8-4.6,.7-2,.6-4-.2-5.9-.8-2-2.2-3.4-4.1-4.3-1.9-.9-3.9-1.1-5.9-.6Z"/><path class="cls-16" d="M570.1,217.5l2-.6c.6,2.2,.9,4.4,.8,6.7,0,2.2-.5,4.4-1.3,6.4-.8,2-1.8,3.9-3.1,5.6-1.3,1.7-2.9,3.2-4.7,4.5-1.9,1.3-3.9,2.2-6.1,2.9l-.6-2c4.4-1.5,7.9-4.3,10.4-8.3l-15.2-8.4-.4-1.4,1.4-.4,15.2,8.4c2-4.2,2.5-8.6,1.5-13.2Z"/><path class="cls-16" d="M572.2,269.7l-12.2-17.1-.4-2.1,20.7-3.6,.4,2h0l-5.8,20.2h-.4l-1.9,.4h-.4Zm-5.2-10.8l9.2-1.6,2.2-7.8-16.1,2.8,4.7,6.6Zm1.4,1.9l4.8,6.8,2.3-8-7.1,1.2Z"/><path class="cls-16" d="M584.2,298.9l-.6-9.4-16.8,1,.6,9.4h-2.1l-.6-9.3v-2.1l-.7-9.4h2.1l.6,9.3,16.8-1-.6-9.4h2.1l.6,9.3v2.1l.7,9.4h-2.1Z"/><path class="cls-16" d="M583.1,329.8l.5-9.4-16.8-.9-.5,9.4h-2.1l.5-9.5v-2.1l.6-9.4h2.1l-.5,9.5,16.8,.9,.5-9.4h2.1l-.5,9.5v2.1l-.6,9.4h-2.1Z"/></g></g><g id="small_circle"><circle class="cls-12" cx="305" cy="305" r="250"/></g><g id="constellation_lines"><line class="cls-11" x1="408.2" y1="281.7" x2="376.5" y2="216.5"/><line class="cls-11" x1="290.7" y1="191.5" x2="376.5" y2="216.5"/><line class="cls-11" x1="221.1" y1="247.9" x2="290.7" y2="191.5"/><line class="cls-11" x1="211.6" y1="285.1" x2="221.1" y2="247.9"/><line class="cls-11" x1="245.5" y1="351.4" x2="211.6" y2="285.1"/><line class="cls-11" x1="304.8" y1="390.5" x2="245.5" y2="351.4"/><line class="cls-11" x1="366.5" y1="341.4" x2="304.8" y2="390.5"/><line class="cls-11" x1="348.6" y1="271.7" x2="366.5" y2="341.4"/><line class="cls-11" x1="290.7" y1="261.7" x2="348.6" y2="271.7"/><line class="cls-11" x1="275.2" y1="318.3" x2="290.7" y2="261.7"/><line class="cls-11" x1="275.2" y1="318.3" x2="319.6" y2="308.4"/></g><g id="stars"><circle class="cls-3" cx="211.6" cy="285.1" r="10"/><circle class="cls-6" cx="275.2" cy="318.3" r="10"/><circle class="cls-7" cx="223.7" cy="246.1" r="8.3"/><circle class="cls-4" cx="346.8" cy="271.1" r="17.4"/><circle class="cls-8" cx="292.6" cy="261.3" r="8.2"/><circle class="cls-2" cx="376.5" cy="216.5" r="10"/><circle class="cls-5" cx="290.7" cy="191.5" r="10"/><circle class="cls-10" cx="304.8" cy="390.5" r="10"/><circle class="cls-9" cx="366.5" cy="341.4" r="10"/><circle class="cls-15" cx="408.2" cy="281.7" r="10"/><circle class="cls-14" cx="246.1" cy="352" r="15.1"/><circle class="cls-13" cx="319.6" cy="308.4" r="10"/></g></svg>