<?xml version="1.0" encoding="UTF-8"?><svg xmlns="http://www.w3.org/2000/svg" viewBox="0 0 1269.36 141.36"><defs><style>.k{stroke-width:6px;}.k,.l{fill:none;stroke:#000;stroke-miterlimit:100;}.l{stroke-width:10px;}.m{fill-rule:evenodd;}</style></defs><g id="a"><g><path d="M641.76,31.75c1.08-10.44,1.8-19.98,2.7-28.44,.18-2.34,.72-2.7,1.08-2.7,.72,0,1.26,1.44,1.98,2.88,1.98,3.42,11.7,23.4,15.84,31.86l40.32,84.42,36.9-76.68c7.92-15.12,13.68-27,19.44-39.42,1.26-2.34,1.98-3.06,2.52-3.06s.9,.54,1.26,4.86c.72,8.46,1.44,17.82,2.34,27.72,3.42,42.66,7.74,96.12,9.9,105.66-1.26-.18-3.06-.18-5.58-.18-3.06,0-6.12,.18-7.56,.54,0-9.9-4.32-75.42-6.66-112.14-15.66,34.02-35.1,73.8-51.84,109.44-1.8,3.78-2.16,3.78-3.6,.36-20.52-43.92-34.92-74.7-50.76-110.34-1.98,33.48-7.56,102.6-7.38,112.31-1.62-.18-3.6-.18-5.04-.18-2.7,0-5.4,.18-6.66,.54,1.62-8.28,7.02-63.72,10.8-107.46Z"/><path d="M833.1,85.93c-.54,0-.72,.18-.9,.54-5.94,17.1-15.84,44.1-17.82,52.38-1.62-.18-2.52-.18-5.22-.18-2.16,0-5.76,.18-7.02,.54,4.5-9.54,10.8-25.2,16.56-40.68L854.16,7.27c1.8-4.5,2.7-6.66,3.6-6.66,.72,0,1.44,1.44,3.6,6.66,1.62,3.96,18.9,44.46,34.2,81.36,8.1,19.44,18.18,43.74,22.14,50.22-1.8,0-3.96-.18-5.76-.18-3.24,0-6.66,.18-8.1,.54-2.7-8.28-14.04-36-20.7-52.74-.18-.36-.36-.54-.9-.54h-49.14Zm46.62-7.38c.36,0,.54-.18,.36-.72l-23.4-57.78-21.6,57.78c-.18,.54,0,.72,.36,.72h44.28Z"/><path d="M1053.59,123.01c0,7.02,.18,9.18,.18,10.44-12.6,6.3-28.8,8.28-43.74,8.28-19.62,0-41.04-6.48-55.44-21.42-10.44-10.62-19.08-28.08-19.08-50.04,0-28.98,14.04-46.44,26.46-55.44,18.36-13.68,39.6-14.22,51.48-14.22,21.6,0,39.24,7.2,43.02,8.28-.72,1.98-1.62,8.46-1.62,13.14-3.24-3.96-18-13.86-47.34-13.86-12.96,0-28.44,3.42-40.32,13.32-10.8,9-19.8,24.84-19.8,45.54,0,23.58,9.18,39.6,19.8,49.32,15.84,15.12,37.44,17.28,47.52,17.28s21.96-1.8,27.72-5.04c.54-.36,.72-1.44,.72-5.94v-26.1c0-7.38-.72-20.7-1.8-24.66,1.98,.18,4.14,.18,6.12,.18,3.24,0,5.58-.18,7.2-.36-.54,4.32-1.08,19.26-1.08,28.44v22.86Z"/><path d="M1101.66,55.15c0-25.56-.54-47.88-1.62-51.66,1.62,.18,4.14,.18,5.58,.18,3.06,0,6.66-.18,7.56-.54-.72,6.48-1.26,26.64-1.26,52.2v31.68c0,23.76,.72,46.98,1.44,51.84-1.26-.18-3.96-.18-5.58-.18-2.52,0-5.94,.18-7.38,.54,.54-5.58,1.26-28.62,1.26-52.2v-31.86Z"/><path d="M1171.86,122.29c-16.92-15.66-21.6-37.98-21.6-52.92,0-13.5,2.88-32.58,18.18-48.6,10.08-10.44,27.36-20.16,54.54-20.16,24.84,0,39.42,5.94,46.62,8.46-.9,2.52-1.98,7.92-2.16,12.6-6.48-7.02-22.86-13.68-45-13.68-25.56,0-37.44,9.18-44.64,16.2-12.24,12.24-15.84,28.26-15.84,43.56,0,29.16,17.64,65.34,67.32,65.34,15.3,0,30.6-2.88,38.88-9.36-1.08,3.24-1.98,8.28-2.16,11.34-7.02,3.42-22.32,6.66-37.62,6.66-25.74,0-43.2-7.2-56.52-19.44Z"/></g></g><g id="b"><g id="c"><path d="M406.84,32.79c1.08-10.44,1.8-19.98,2.7-28.44,.18-2.34,.72-2.7,1.08-2.7,.72,0,1.26,1.44,1.98,2.88,1.98,3.42,11.7,23.4,15.84,31.86l40.32,84.42,36.9-76.68c7.92-15.12,13.68-27,19.44-39.42,1.26-2.34,1.98-3.06,2.52-3.06s.9,.54,1.26,4.86c.72,8.46,1.44,17.82,2.34,27.72,3.42,42.66,7.74,96.12,9.9,105.66-1.26-.18-3.06-.18-5.58-.18-3.06,0-6.12,.18-7.56,.54,0-9.9-4.32-75.42-6.66-112.14-15.66,34.02-35.1,73.8-51.84,109.44-1.8,3.78-2.16,3.78-3.6,.36-20.52-43.92-34.92-74.7-50.76-110.34-1.98,33.48-7.56,102.6-7.38,112.31-1.62-.18-3.6-.18-5.04-.18-2.7,0-5.4,.18-6.66,.54,1.62-8.28,7.02-63.72,10.8-107.46Z"/></g><g id="d"><circle class="l" cx="296.88" cy="70.56" r="66" transform="translate(-7.47 48.47) rotate(-9.22)"/></g><g id="e"><g id="f"><path class="m" d="M302.74,71.49c1.98,.07,3.69-.59,3.69-.59,0,0-1.44-1.28-3.35-1.85,1.84-.73,3.14-2.02,3.14-2.02,0,0-1.84-.59-3.81-.34,1.39-1.41,2.06-3.12,2.06-3.12,0,0-2.06,.21-3.81,1.33,.75-1.93,.62-3.89,.62-3.89,0,0-1.89,1.13-2.98,2.98-.14-2.14-1.18-3.95-1.18-3.95,0,0-1.05,1.62-1.31,3.59-1-1.71-2.48-2.79-2.48-2.79,0,0-.3,1.91,.24,3.81-1.6-1.16-3.39-1.56-3.39-1.56,0,0,.49,1.87,1.76,3.39-1.93-.42-3.73-.06-3.73-.06,0,0,1.2,1.51,2.98,2.4-1.94,.4-3.44,1.45-3.44,1.45,0,0,1.71,.9,3.69,1-1.61,1.14-2.57,2.71-2.57,2.71,0,0,1.93,.14,3.78-.57-1.02,1.7-1.26,3.52-1.26,3.52,0,0,1.82-.65,3.23-2.05-.25,1.96,.27,3.72,.27,3.72,0,0,1.4-1.33,2.13-3.17,.57,1.9,1.74,3.3,1.74,3.3,0,0,.75-1.78,.67-3.76,1.28,1.51,2.92,2.32,2.92,2.32,0,0-.03-1.93-.9-3.72,1.78,.86,3.61,.95,3.61,.95,0,0-.81-1.76-2.32-3.04Z"/></g><g id="g"><polygon class="k" points="296.93 12.17 277.78 70.64 296.93 129.11 316.08 70.64 296.93 12.17"/></g><g id="h"><polygon class="k" points="287.35 54.06 246.29 99.88 306.5 87.22 347.56 41.41 287.35 54.06"/></g><g id="i"><polygon class="k" points="306.5 54.06 246.29 41.41 287.35 87.22 347.56 99.88 306.5 54.06"/></g></g><g id="j"><g><path d="M30.92,85.39c-.54,0-.72,.18-.9,.54-5.94,17.1-15.84,44.1-17.82,52.38-1.62-.18-2.52-.18-5.22-.18-2.16,0-5.76,.18-7.02,.54,4.5-9.54,10.8-25.2,16.56-40.68L51.98,6.74C53.78,2.24,54.68,.08,55.58,.08c.72,0,1.44,1.44,3.6,6.66,1.62,3.96,18.9,44.46,34.2,81.36,8.1,19.44,18.18,43.74,22.14,50.22-1.8,0-3.96-.18-5.76-.18-3.24,0-6.66,.18-8.1,.54-2.7-8.28-14.04-36-20.7-52.74-.18-.36-.36-.54-.9-.54H30.92Zm46.62-7.38c.36,0,.54-.18,.36-.72L54.5,19.52l-21.6,57.78c-.18,.54,0,.72,.36,.72h44.28Z"/><path d="M109.4,1.7c3.96,.9,9.9,1.44,25.02,1.44h57.42c9.54,0,22.5-.36,25.56-1.44-.72,2.52-1.26,7.38-1.44,12.06-2.7-1.62-7.2-2.34-19.62-2.88-6.66-.54-16.02-.72-29.52-.72V86.47c0,23.76,.72,46.26,1.26,51.84-1.44-.18-3.78-.18-5.4-.18-2.52,0-5.22,0-7.74,.54,.9-5.58,1.44-28.62,1.44-52.2V10.16c-8.82,0-13.5-.18-25.38,.36-11.34,.36-19.8,.9-23.94,2.52,.9-2.16,2.16-8.46,2.34-11.34Z"/></g></g></g></svg>